<svg enable-background="new 0 0 960 560" height="312" viewBox="0 0 914 312" width="914" xml:space="preserve" xmlns="http://www.w3.org/2000/svg"><g transform="translate(-20.174795 -124.57772)"><path d="m436.049 307.343c0 8.706-7.048 15.751-15.744 15.751h-94.442c-8.685 0-15.731-7.045-15.731-15.751v-94.426c0-8.685 7.047-15.753 15.731-15.753h94.442c8.696 0 15.744 7.069 15.744 15.753" fill="#438394"/><path d="m294.674 294.902h-.124c-2.156-32.813-29.46-58.775-62.827-58.775-33.376 0-60.681 25.963-62.826 58.775h-.13v-125.921h125.907z" fill="#83d6e8"/><path d="m21.763 126.197h125.901v125.92h-125.901z" fill="#a6e2ee"/><path d="m84.712 428.663c-34.78 0-62.95-28.192-62.95-62.953 0-34.797 28.17-62.962 62.95-62.962 34.766 0 62.965 28.165 62.965 62.962.001 34.761-28.199 62.953-62.965 62.953" fill="#d1d0d0"/><path d="m346.399 259.754c0 5.092.335 10.173.984 15.203.668 5.062 2.146 9.645 4.446 13.786 2.291 4.113 5.651 7.458 10.093 10.013 4.443 2.547 10.472 3.824 18.128 3.824 4.587 0 8.996-.849 13.237-2.526 4.218-1.686 7.971-4.26 11.244-7.725l9.625 9.022c-4.478 4.782-9.683 8.284-15.604 10.471-5.915 2.196-12.083 3.284-18.502 3.284-9.083 0-16.686-1.385-22.789-4.192-6.125-2.803-11.041-6.668-14.766-11.547-3.731-4.902-6.413-10.704-8.036-17.451-1.632-6.718-2.454-14.015-2.454-21.872v-5.641c0-7.756 1.002-14.672 2.993-20.743 1.988-6.05 4.961-11.212 8.943-15.443 3.984-4.243 8.977-7.467 14.985-9.724 6.029-2.235 13.068-3.344 21.123-3.344 6.214 0 12.31 1.028 18.279 3.116 5.971 2.084 11.136 5.389 15.532 9.871l-9.33 9.333c-3.167-3.264-6.927-5.69-11.244-7.267-4.342-1.578-8.754-2.365-13.237-2.365-6.738 0-12.268 1.078-16.59 3.284-4.343 2.186-7.782 5.041-10.327 8.566-2.556 3.513-4.318 7.476-5.287 11.848-.963 4.394-1.447 8.774-1.447 13.157" fill="#fff"/><g fill="#438394"><path d="m494.827 276.266c-1.139-1.447-2.577-2.456-4.332-3.046-1.717-.598-3.444-.917-5.197-.917h-10.087v43.642h-17.31v-106.473h50.228c4.516 0 8.652.721 12.434 2.157 3.769 1.417 7.013 3.492 9.711 6.209 2.693 2.716 4.814 5.939 6.355 9.672 1.527 3.714 2.305 7.857 2.305 12.429 0 9.204-2.341 16.761-7.001 22.651-4.638 5.869-11.23 9.104-19.796 9.713l20.211 25.545c1.62 2.057 3.094 3.407 4.421 4.015 1.344.616 3.282.919 5.845.919v13.163c-1.014.521-2.247.933-3.68 1.291-1.421.378-2.746.549-3.969.549-3.067 0-5.827-1.038-8.283-3.125-2.456-2.127-4.542-4.302-6.262-6.526zm-19.616-19.945h28.635c6.543 0 11.125-1.188 13.767-3.584 2.676-2.387 4.012-6.649 4.012-12.798 0-4.873-1.204-8.515-3.593-10.921-2.392-2.414-6.514-3.624-12.339-3.624h-30.481v30.927z"/><path d="m563.76599 209.472h17.309999v106.473h-17.309999z"/><path d="m604.147 236.435c0-5.301 1.208-9.763 3.638-13.386 2.452-3.653 5.621-6.599 9.483-8.884 3.899-2.316 8.222-3.964 12.987-4.973 4.751-1.048 9.433-1.575 14.041-1.575 3.247 0 6.533.348 9.85 1.018 3.311.658 6.548 1.606 9.712 2.895 3.19 1.306 6.147 2.894 8.885 4.802 2.766 1.867 5.212 4.032 7.372 6.478l-11.798 10.554c-3.561-3.554-7.472-6.03-11.736-7.418-4.229-1.388-8.905-2.077-13.986-2.077-2.372 0-4.741.22-7.143.6-2.386.4-4.626 1.078-6.67 1.996-2.03.909-3.688 2.147-4.976 3.675-1.267 1.536-1.886 3.423-1.886 5.66 0 2.576.318 4.68.963 6.317.675 1.617 1.639 2.976 2.904 4.034 1.294 1.098 2.787 1.996 4.506 2.725 1.753.719 3.699 1.408 5.852 2.118 4.905 1.625 9.856 2.974 14.875 4.042 4.992 1.088 9.901 2.805 14.723 5.162 5.306 2.555 9.556 5.929 12.759 10.142 3.221 4.172 4.833 9.612 4.833 16.33 0 5.83-1.233 10.762-3.685 14.723-2.43 3.988-5.592 7.229-9.483 9.676-3.862 2.423-8.245 4.154-13.127 5.151-4.85 1.047-9.709 1.567-14.585 1.567-4.304 0-8.557-.491-12.759-1.476-4.178-.941-8.129-2.387-11.878-4.313-3.709-1.971-7.109-4.384-10.163-7.239-3.074-2.854-5.62-6.218-7.652-10.133l14.231-7.487c2.97 4.602 6.829 8.176 11.554 10.711 4.752 2.564 10.357 3.824 16.807 3.824 2.847 0 5.671-.238 8.467-.73 2.817-.517 5.313-1.338 7.506-2.443 2.211-1.129 4.005-2.627 5.388-4.513 1.381-1.896 2.067-4.184 2.067-6.849 0-2.336-.356-4.292-1.06-5.859-.71-1.577-1.736-2.896-3.082-3.913-1.327-1.028-2.854-1.907-4.608-2.616-1.728-.738-3.538-1.398-5.477-1.985-5.009-1.748-10.034-3.174-15.101-4.282-5.067-1.128-9.982-2.876-14.774-5.232-2.666-1.337-5.11-2.725-7.323-4.202-2.182-1.488-4.038-3.294-5.569-5.392-1.541-2.084-2.74-4.512-3.583-7.268-.865-2.777-1.299-6.081-1.299-9.955z"/><path d="m703.265 252.496h-8.744v-13.755h8.744v-16.571l16.707-3.675v20.246h12.254l-4.286 13.755h-7.968v41.209c0 6.151 3.164 9.205 9.487 9.205h3.819v13.177c-1.408.508-2.813.941-4.184 1.249-1.381.287-2.843.448-4.382.448-2.851 0-5.588-.39-8.188-1.146-2.61-.751-4.881-1.96-6.817-3.597-1.931-1.614-3.496-3.733-4.685-6.348-1.179-2.604-1.759-5.752-1.759-9.442v-44.755z"/><path d="m780.256 270.617h32.029l-13.947-35.739-2.48-11.919-2.447 11.919zm-5.206 14.995-11.191 30.332h-18.233l39.688-106.473h20.669l41.67 106.473h-17.913l-11.782-30.332z"/><path d="m879.059 299.885h51.791l-4.785 16.059h-64.305v-106.472h17.299z"/></g><path d="m231.723 362.048c-34.785 0-62.956-28.183-62.956-62.963 0-1.396.045-2.785.13-4.183h125.653c.073 1.397.124 2.786.124 4.183 0 34.78-28.181 62.963-62.951 62.963" fill="#b2b1b1"/><path d="m294.55 294.902h-125.653c2.145-32.813 29.449-58.775 62.826-58.775 33.366 0 60.671 25.963 62.827 58.775" fill="#87a2a9"/><text font-size="33" transform="translate(306.0352 382.5771)"><tspan fill="#656263" font-family="CasperBold" font-size="33" x="0" y="0">Centre de Recherche en Informatique,</tspan><tspan fill="#656263" font-family="CasperBold" font-size="33" x="0" y="45.689999">            Signal et Automatique de Lille</tspan></text></g></svg>