<?xml version="1.0" standalone="no"?>
<svg width="640" height="220" xmlns="http://www.w3.org/2000/svg"><g><g fill="#f7fbff"><rect x="180" y="21.980198019801975" width="0" height="17.821782178217823"></rect><rect x="180" y="41.78217821782178" width="0" height="17.821782178217823"></rect><rect x="180" y="61.58415841584158" width="8.75" height="17.821782178217823"></rect><rect x="180" y="81.38613861386138" width="0" height="17.821782178217823"></rect><rect x="180" y="101.18811881188118" width="17.5" height="17.821782178217823"></rect><rect x="180" y="120.99009900990099" width="0" height="17.821782178217823"></rect><rect x="180" y="140.79207920792078" width="17.5" height="17.821782178217823"></rect><rect x="180" y="160.59405940594058" width="8.75" height="17.821782178217823"></rect><rect x="180" y="180.3960396039604" width="8.75" height="17.821782178217823"></rect><rect x="180" y="200.1980198019802" width="35" height="17.821782178217823"></rect></g><g fill="#deebf7"><rect x="180" y="21.980198019801975" width="8.75" height="17.821782178217823"></rect><rect x="180" y="41.78217821782178" width="17.5" height="17.821782178217823"></rect><rect x="188.75" y="61.58415841584158" width="35" height="17.821782178217823"></rect><rect x="180" y="81.38613861386138" width="35" height="17.821782178217823"></rect><rect x="197.5" y="101.18811881188118" width="43.75" height="17.821782178217823"></rect><rect x="180" y="120.99009900990099" width="61.25" height="17.821782178217823"></rect><rect x="197.5" y="140.79207920792078" width="78.75" height="17.821782178217823"></rect><rect x="188.75" y="160.59405940594058" width="78.75" height="17.821782178217823"></rect><rect x="188.75" y="180.3960396039604" width="52.5" height="17.821782178217823"></rect><rect x="215" y="200.1980198019802" width="96.25" height="17.821782178217823"></rect></g><g fill="#c6dbef"><rect x="188.75" y="21.980198019801975" width="61.25" height="17.821782178217823"></rect><rect x="197.5" y="41.78217821782178" width="61.25" height="17.821782178217823"></rect><rect x="223.75" y="61.58415841584158" width="43.75" height="17.821782178217823"></rect><rect x="215" y="81.38613861386138" width="78.75" height="17.821782178217823"></rect><rect x="241.25" y="101.18811881188118" width="61.25" height="17.821782178217823"></rect><rect x="241.25" y="120.99009900990099" width="78.75" height="17.821782178217823"></rect><rect x="276.25" y="140.79207920792078" width="52.5" height="17.821782178217823"></rect><rect x="267.5" y="160.59405940594058" width="87.5" height="17.821782178217823"></rect><rect x="241.25" y="180.3960396039604" width="113.75" height="17.821782178217823"></rect><rect x="311.25" y="200.1980198019802" width="96.25" height="17.821782178217823"></rect></g><g fill="#9ecae1"><rect x="250" y="21.980198019801975" width="157.5" height="17.821782178217823"></rect><rect x="258.75" y="41.78217821782178" width="105" height="17.821782178217823"></rect><rect x="267.5" y="61.58415841584158" width="131.25" height="17.821782178217823"></rect><rect x="293.75" y="81.38613861386138" width="122.5" height="17.821782178217823"></rect><rect x="302.5" y="101.18811881188118" width="140" height="17.821782178217823"></rect><rect x="320" y="120.99009900990099" width="113.75" height="17.821782178217823"></rect><rect x="328.75" y="140.79207920792078" width="96.25" height="17.821782178217823"></rect><rect x="355" y="160.59405940594058" width="70" height="17.821782178217823"></rect><rect x="355" y="180.3960396039604" width="78.75" height="17.821782178217823"></rect><rect x="407.5" y="200.1980198019802" width="43.75" height="17.821782178217823"></rect></g><g fill="#6baed6"><rect x="407.5" y="21.980198019801975" width="52.5" height="17.821782178217823"></rect><rect x="363.75" y="41.78217821782178" width="96.25" height="17.821782178217823"></rect><rect x="398.75" y="61.58415841584158" width="61.25" height="17.821782178217823"></rect><rect x="416.25" y="81.38613861386138" width="43.75" height="17.821782178217823"></rect><rect x="442.5" y="101.18811881188118" width="17.5" height="17.821782178217823"></rect><rect x="433.75" y="120.99009900990099" width="26.25" height="17.821782178217823"></rect><rect x="425" y="140.79207920792078" width="35" height="17.821782178217823"></rect><rect x="425" y="160.59405940594058" width="35" height="17.821782178217823"></rect><rect x="433.75" y="180.3960396039604" width="26.25" height="17.821782178217823"></rect><rect x="451.25" y="200.1980198019802" width="8.75" height="17.821782178217823"></rect></g></g><g stroke="salmon"><line x1="250" y1="21.980198019801975" x2="250" y2="39.8019801980198"></line><line x1="258.75" y1="41.78217821782178" x2="258.75" y2="59.603960396039604"></line><line x1="267.5" y1="61.58415841584158" x2="267.5" y2="79.4059405940594"></line><line x1="293.75" y1="81.38613861386138" x2="293.75" y2="99.2079207920792"></line><line x1="302.5" y1="101.18811881188118" x2="302.5" y2="119.009900990099"></line><line x1="320" y1="120.99009900990099" x2="320" y2="138.8118811881188"></line><line x1="328.75" y1="140.79207920792078" x2="328.75" y2="158.6138613861386"></line><line x1="355" y1="160.59405940594058" x2="355" y2="178.41584158415841"></line><line x1="355" y1="180.3960396039604" x2="355" y2="198.21782178217822"></line><line x1="407.5" y1="200.1980198019802" x2="407.5" y2="218.01980198019803"></line></g><g stroke="black"><line x1="206.25" y1="26.435643564356432" x2="206.25" y2="35.34653465346534"></line><line x1="215" y1="46.23762376237624" x2="215" y2="55.148514851485146"></line><line x1="223.75" y1="66.03960396039604" x2="223.75" y2="74.95049504950495"></line><line x1="250" y1="85.84158415841583" x2="250" y2="94.75247524752474"></line><line x1="258.75" y1="105.64356435643563" x2="258.75" y2="114.55445544554455"></line><line x1="267.5" y1="125.44554455445544" x2="267.5" y2="134.35643564356437"></line><line x1="285" y1="145.24752475247524" x2="285" y2="154.15841584158414"></line><line x1="302.5" y1="165.04950495049505" x2="302.5" y2="173.96039603960395"></line><line x1="311.25" y1="184.85148514851485" x2="311.25" y2="193.76237623762376"></line><line x1="372.5" y1="204.65346534653466" x2="372.5" y2="213.56435643564356"></line></g><g stroke="black"><line x1="206.25" y1="30.891089108910887" x2="293.75" y2="30.891089108910887"></line><line x1="215" y1="50.693069306930695" x2="302.5" y2="50.693069306930695"></line><line x1="223.75" y1="70.49504950495049" x2="311.25" y2="70.49504950495049"></line><line x1="250" y1="90.29702970297029" x2="341.875" y2="90.29702970297029"></line><line x1="258.75" y1="110.0990099009901" x2="346.25" y2="110.0990099009901"></line><line x1="267.5" y1="129.9009900990099" x2="372.5" y2="129.9009900990099"></line><line x1="285" y1="149.70297029702968" x2="381.25" y2="149.70297029702968"></line><line x1="302.5" y1="169.50495049504948" x2="398.75" y2="169.50495049504948"></line><line x1="311.25" y1="189.3069306930693" x2="398.75" y2="189.3069306930693"></line><line x1="372.5" y1="209.1089108910891" x2="442.5" y2="209.1089108910891"></line></g><g stroke="black"><line x1="293.75" y1="26.435643564356432" x2="293.75" y2="35.34653465346534"></line><line x1="302.5" y1="46.23762376237624" x2="302.5" y2="55.148514851485146"></line><line x1="311.25" y1="66.03960396039604" x2="311.25" y2="74.95049504950495"></line><line x1="341.875" y1="85.84158415841583" x2="341.875" y2="94.75247524752474"></line><line x1="346.25" y1="105.64356435643563" x2="346.25" y2="114.55445544554455"></line><line x1="372.5" y1="125.44554455445544" x2="372.5" y2="134.35643564356437"></line><line x1="381.25" y1="145.24752475247524" x2="381.25" y2="154.15841584158414"></line><line x1="398.75" y1="165.04950495049505" x2="398.75" y2="173.96039603960395"></line><line x1="398.75" y1="184.85148514851485" x2="398.75" y2="193.76237623762376"></line><line x1="442.5" y1="204.65346534653466" x2="442.5" y2="213.56435643564356"></line></g><g transform="translate(0,20)" fill="none" font-size="10" font-family="sans-serif" text-anchor="middle"><g class="tick" opacity="1" transform="translate(180.5,0)"><line stroke="currentColor" y2="-6"></line><text fill="currentColor" y="-9" dy="0em">0%</text></g><g class="tick" opacity="1" transform="translate(250.5,0)"><line stroke="currentColor" y2="-6"></line><text fill="currentColor" y="-9" dy="0em">25%</text></g><g class="tick" opacity="1" transform="translate(320.5,0)"><line stroke="currentColor" y2="-6"></line><text fill="currentColor" y="-9" dy="0em">50%</text></g><g class="tick" opacity="1" transform="translate(390.5,0)"><line stroke="currentColor" y2="-6"></line><text fill="currentColor" y="-9" dy="0em">75%</text></g><g class="tick" opacity="1" transform="translate(460.5,0)"><line stroke="currentColor" y2="-6"></line><text fill="currentColor" y="-9" dy="0em">100%</text></g></g><g transform="translate(180,0)" fill="none" font-size="10" font-family="sans-serif" text-anchor="end"><g class="tick" opacity="1" transform="translate(0,30.891089108910887)"><line stroke="currentColor" x2="-6"></line><text fill="currentColor" x="-9" dy="0.32em">Documentation quality</text></g><g class="tick" opacity="1" transform="translate(0,50.693069306930695)"><line stroke="currentColor" x2="-6"></line><text fill="currentColor" x="-9" dy="0.32em">Quality of the API</text></g><g class="tick" opacity="1" transform="translate(0,70.49504950495049)"><line stroke="currentColor" x2="-6"></line><text fill="currentColor" x="-9" dy="0.32em">User community</text></g><g class="tick" opacity="1" transform="translate(0,90.29702970297029)"><line stroke="currentColor" x2="-6"></line><text fill="currentColor" x="-9" dy="0.32em">Compatibility with other tools/libraries</text></g><g class="tick" opacity="1" transform="translate(0,110.0990099009901)"><line stroke="currentColor" x2="-6"></line><text fill="currentColor" x="-9" dy="0.32em">Tool reputation</text></g><g class="tick" opacity="1" transform="translate(0,129.9009900990099)"><line stroke="currentColor" x2="-6"></line><text fill="currentColor" x="-9" dy="0.32em">Personal experience</text></g><g class="tick" opacity="1" transform="translate(0,149.70297029702968)"><line stroke="currentColor" x2="-6"></line><text fill="currentColor" x="-9" dy="0.32em">Project constraints</text></g><g class="tick" opacity="1" transform="translate(0,169.50495049504948)"><line stroke="currentColor" x2="-6"></line><text fill="currentColor" x="-9" dy="0.32em">Technical efficiency</text></g><g class="tick" opacity="1" transform="translate(0,189.3069306930693)"><line stroke="currentColor" x2="-6"></line><text fill="currentColor" x="-9" dy="0.32em">Range of use cases supported</text></g><g class="tick" opacity="1" transform="translate(0,209.1089108910891)"><line stroke="currentColor" x2="-6"></line><text fill="currentColor" x="-9" dy="0.32em">Developer reputation</text></g></g><g><circle cx="495" cy="50" r="7" fill="#f7fbff"></circle><circle cx="495" cy="80" r="7" fill="#deebf7"></circle><circle cx="495" cy="110" r="7" fill="#c6dbef"></circle><circle cx="495" cy="140" r="7" fill="#9ecae1"></circle><circle cx="495" cy="170" r="7" fill="#6baed6"></circle></g><g font-family="sans-serif" font-size="12"><text x="510" y="50" dominant-baseline="middle">Not important at all</text><text x="510" y="80" dominant-baseline="middle">Of little importance</text><text x="510" y="110" dominant-baseline="middle">Of average importance</text><text x="510" y="140" dominant-baseline="middle">Very important</text><text x="510" y="170" dominant-baseline="middle">Absolutely essential</text></g></svg>