<svg height="49.332302mm" viewBox="0 0 204.54574 174.79949" width="57.727352mm" xmlns="http://www.w3.org/2000/svg"><g transform="translate(-18.187822 -853.81903)"><g stroke="#000"><path d="m18.687822 998.31903h203.54573v29.7995h-203.54573z" fill="#009ac0"/><path d="m18.687822 962.31903h203.54573v29.7995h-203.54573z" fill="#00ced0"/><path d="m18.687822 926.31903h203.54573v29.7995h-203.54573z" fill="#00e05a"/><path d="m18.45104 890.08228h55.526871v30.273066h-55.526871z" fill="#f0f0f0" stroke-width=".526434"/><path d="m18.687822 854.31903h203.54573v29.7995h-203.54573z" fill="#fffc00"/></g><g font-family="sans-serif" font-size="14.440792" letter-spacing="0" word-spacing="0"><text fill="#101010" x="32.749973" y="981.91724"><tspan x="32.749973" y="981.91724">pilotes de périphériques</tspan></text><text x="90.749969" y="1017.9172"><tspan x="90.749969" y="1017.9172">matériel</tspan></text><text fill="#202020" x="38.749973" y="945.91724"><tspan x="38.749973" y="945.91724">système d'exploitation</tspan></text><text fill="#404040" x="34.749973" y="873.91724"><tspan x="34.749973" y="873.91724">framework d'interaction</tspan></text></g><path d="m18.464846 890.09607h61.560177v30.245455h-61.560177z" fill="#f0f0f0" stroke="#000" stroke-width=".554044"/><g fill="#8df000" stroke="#808080" stroke-width=".565"><path d="m18.470394 890.10162h64.074463v30.234358h-64.074463z"/><path d="m88.470398 890.10162h64.074463v30.234358h-64.074463z"/><path d="m157.96532 890.10162h64.074463v30.234358h-64.074463z"/></g><text fill="#808080" font-family="sans-serif" font-size="14.440792" letter-spacing="0" word-spacing="0" x="24.749973" y="909.91724"><tspan x="24.749973" y="909.91724">bibliothèques spécialisées</tspan></text></g></svg>