<?xml version="1.0" standalone="no"?>
<svg width="690" height="270" xmlns="http://www.w3.org/2000/svg"><rect fill="steelblue" x="31.99395770392755" y="10" width="17.94561933534743" height="180"></rect><rect fill="steelblue" x="51.93353474320247" y="90" width="17.94561933534743" height="100"></rect><rect fill="steelblue" x="71.8731117824774" y="110" width="17.94561933534743" height="80"></rect><rect fill="steelblue" x="91.81268882175232" y="110" width="17.94561933534743" height="80"></rect><rect fill="steelblue" x="111.75226586102724" y="110" width="17.94561933534743" height="80"></rect><rect fill="steelblue" x="131.69184290030216" y="110" width="17.94561933534743" height="80"></rect><rect fill="steelblue" x="151.63141993957709" y="130" width="17.94561933534743" height="60"></rect><rect fill="steelblue" x="171.570996978852" y="150" width="17.94561933534743" height="40"></rect><rect fill="steelblue" x="191.51057401812693" y="150" width="17.94561933534743" height="40"></rect><rect fill="steelblue" x="211.45015105740185" y="150" width="17.94561933534743" height="40"></rect><rect fill="steelblue" x="231.38972809667678" y="150" width="17.94561933534743" height="40"></rect><rect fill="steelblue" x="251.3293051359517" y="150" width="17.94561933534743" height="40"></rect><rect fill="steelblue" x="271.2688821752266" y="150" width="17.94561933534743" height="40"></rect><rect fill="steelblue" x="291.20845921450154" y="170" width="17.94561933534743" height="20"></rect><rect fill="steelblue" x="311.14803625377647" y="170" width="17.94561933534743" height="20"></rect><rect fill="steelblue" x="331.0876132930514" y="170" width="17.94561933534743" height="20"></rect><rect fill="steelblue" x="351.0271903323263" y="170" width="17.94561933534743" height="20"></rect><rect fill="steelblue" x="370.96676737160124" y="170" width="17.94561933534743" height="20"></rect><rect fill="steelblue" x="390.90634441087616" y="170" width="17.94561933534743" height="20"></rect><rect fill="steelblue" x="410.8459214501511" y="170" width="17.94561933534743" height="20"></rect><rect fill="steelblue" x="430.785498489426" y="170" width="17.94561933534743" height="20"></rect><rect fill="steelblue" x="450.7250755287009" y="170" width="17.94561933534743" height="20"></rect><rect fill="steelblue" x="470.66465256797585" y="170" width="17.94561933534743" height="20"></rect><rect fill="steelblue" x="490.6042296072508" y="170" width="17.94561933534743" height="20"></rect><rect fill="steelblue" x="510.5438066465257" y="170" width="17.94561933534743" height="20"></rect><rect fill="steelblue" x="530.4833836858006" y="170" width="17.94561933534743" height="20"></rect><rect fill="steelblue" x="550.4229607250755" y="170" width="17.94561933534743" height="20"></rect><rect fill="steelblue" x="570.3625377643505" y="170" width="17.94561933534743" height="20"></rect><rect fill="steelblue" x="590.3021148036254" y="170" width="17.94561933534743" height="20"></rect><rect fill="steelblue" x="610.2416918429003" y="170" width="17.94561933534743" height="20"></rect><rect fill="steelblue" x="630.1812688821752" y="170" width="17.94561933534743" height="20"></rect><rect fill="steelblue" x="650.1208459214502" y="170" width="17.94561933534743" height="20"></rect><rect fill="steelblue" x="670.0604229607251" y="170" width="17.94561933534743" height="20"></rect><g transform="translate(0,190)" fill="none" font-size="11" font-family="sans-serif" text-anchor="middle"><g class="tick" opacity="1" transform="translate(40.966767371601264,0)"><line stroke="currentColor" y2="6"></line><text fill="currentColor" y="7" dy="0.71em" text-anchor="end" transform="translate(-5,3) rotate(-45)">Qt ✱</text></g><g class="tick" opacity="1" transform="translate(60.90634441087619,0)"><line stroke="currentColor" y2="6"></line><text fill="currentColor" y="7" dy="0.71em" text-anchor="end" transform="translate(-5,3) rotate(-45)">HTML/CSS/JS ✱</text></g><g class="tick" opacity="1" transform="translate(80.84592145015111,0)"><line stroke="currentColor" y2="6"></line><text fill="currentColor" y="7" dy="0.71em" text-anchor="end" transform="translate(-5,3) rotate(-45)">JavaFX ✱</text></g><g class="tick" opacity="1" transform="translate(100.78549848942603,0)"><line stroke="currentColor" y2="6"></line><text fill="currentColor" y="7" dy="0.71em" text-anchor="end" transform="translate(-5,3) rotate(-45)">React ✱</text></g><g class="tick" opacity="1" transform="translate(120.72507552870096,0)"><line stroke="currentColor" y2="6"></line><text fill="currentColor" y="7" dy="0.71em" text-anchor="end" transform="translate(-5,3) rotate(-45)">Swing ✱</text></g><g class="tick" opacity="1" transform="translate(140.66465256797588,0)"><line stroke="currentColor" y2="6"></line><text fill="currentColor" y="7" dy="0.71em" text-anchor="end" transform="translate(-5,3) rotate(-45)">Unity ✱</text></g><g class="tick" opacity="1" transform="translate(160.6042296072508,0)"><line stroke="currentColor" y2="6"></line><text fill="currentColor" y="7" dy="0.71em" text-anchor="end" transform="translate(-5,3) rotate(-45)">Cocoa ✱</text></g><g class="tick" opacity="1" transform="translate(180.54380664652572,0)"><line stroke="currentColor" y2="6"></line><text fill="currentColor" y="7" dy="0.71em" text-anchor="end" transform="translate(-5,3) rotate(-45)">Android SDK ✱</text></g><g class="tick" opacity="1" transform="translate(200.48338368580065,0)"><line stroke="currentColor" y2="6"></line><text fill="currentColor" y="7" dy="0.71em" text-anchor="end" transform="translate(-5,3) rotate(-45)">Angular ✱</text></g><g class="tick" opacity="1" transform="translate(220.42296072507557,0)"><line stroke="currentColor" y2="6"></line><text fill="currentColor" y="7" dy="0.71em" text-anchor="end" transform="translate(-5,3) rotate(-45)">Arduino ✱</text></g><g class="tick" opacity="1" transform="translate(240.3625377643505,0)"><line stroke="currentColor" y2="6"></line><text fill="currentColor" y="7" dy="0.71em" text-anchor="end" transform="translate(-5,3) rotate(-45)">D3</text></g><g class="tick" opacity="1" transform="translate(260.3021148036254,0)"><line stroke="currentColor" y2="6"></line><text fill="currentColor" y="7" dy="0.71em" text-anchor="end" transform="translate(-5,3) rotate(-45)">openFrameworks</text></g><g class="tick" opacity="1" transform="translate(280.2416918429003,0)"><line stroke="currentColor" y2="6"></line><text fill="currentColor" y="7" dy="0.71em" text-anchor="end" transform="translate(-5,3) rotate(-45)">Processing ✱</text></g><g class="tick" opacity="1" transform="translate(300.18126888217523,0)"><line stroke="currentColor" y2="6"></line><text fill="currentColor" y="7" dy="0.71em" text-anchor="end" transform="translate(-5,3) rotate(-45)">.Net</text></g><g class="tick" opacity="1" transform="translate(320.12084592145015,0)"><line stroke="currentColor" y2="6"></line><text fill="currentColor" y="7" dy="0.71em" text-anchor="end" transform="translate(-5,3) rotate(-45)">Bootstrap</text></g><g class="tick" opacity="1" transform="translate(340.0604229607251,0)"><line stroke="currentColor" y2="6"></line><text fill="currentColor" y="7" dy="0.71em" text-anchor="end" transform="translate(-5,3) rotate(-45)">djnn ✱</text></g><g class="tick" opacity="1" transform="translate(360,0)"><line stroke="currentColor" y2="6"></line><text fill="currentColor" y="7" dy="0.71em" text-anchor="end" transform="translate(-5,3) rotate(-45)">Emgu CV</text></g><g class="tick" opacity="1" transform="translate(379.9395770392749,0)"><line stroke="currentColor" y2="6"></line><text fill="currentColor" y="7" dy="0.71em" text-anchor="end" transform="translate(-5,3) rotate(-45)">Ionic ✱</text></g><g class="tick" opacity="1" transform="translate(399.87915407854985,0)"><line stroke="currentColor" y2="6"></line><text fill="currentColor" y="7" dy="0.71em" text-anchor="end" transform="translate(-5,3) rotate(-45)">Isis ✱</text></g><g class="tick" opacity="1" transform="translate(419.81873111782477,0)"><line stroke="currentColor" y2="6"></line><text fill="currentColor" y="7" dy="0.71em" text-anchor="end" transform="translate(-5,3) rotate(-45)">jQuery</text></g><g class="tick" opacity="1" transform="translate(439.7583081570997,0)"><line stroke="currentColor" y2="6"></line><text fill="currentColor" y="7" dy="0.71em" text-anchor="end" transform="translate(-5,3) rotate(-45)">Kinect</text></g><g class="tick" opacity="1" transform="translate(459.6978851963746,0)"><line stroke="currentColor" y2="6"></line><text fill="currentColor" y="7" dy="0.71em" text-anchor="end" transform="translate(-5,3) rotate(-45)">Kivy ✱</text></g><g class="tick" opacity="1" transform="translate(479.63746223564954,0)"><line stroke="currentColor" y2="6"></line><text fill="currentColor" y="7" dy="0.71em" text-anchor="end" transform="translate(-5,3) rotate(-45)">LeapMotion</text></g><g class="tick" opacity="1" transform="translate(499.57703927492446,0)"><line stroke="currentColor" y2="6"></line><text fill="currentColor" y="7" dy="0.71em" text-anchor="end" transform="translate(-5,3) rotate(-45)">Max/MSP ✱</text></g><g class="tick" opacity="1" transform="translate(519.5166163141994,0)"><line stroke="currentColor" y2="6"></line><text fill="currentColor" y="7" dy="0.71em" text-anchor="end" transform="translate(-5,3) rotate(-45)">MobX</text></g><g class="tick" opacity="1" transform="translate(539.4561933534743,0)"><line stroke="currentColor" y2="6"></line><text fill="currentColor" y="7" dy="0.71em" text-anchor="end" transform="translate(-5,3) rotate(-45)">Node.js ✱</text></g><g class="tick" opacity="1" transform="translate(559.3957703927492,0)"><line stroke="currentColor" y2="6"></line><text fill="currentColor" y="7" dy="0.71em" text-anchor="end" transform="translate(-5,3) rotate(-45)">OpenGL</text></g><g class="tick" opacity="1" transform="translate(579.3353474320242,0)"><line stroke="currentColor" y2="6"></line><text fill="currentColor" y="7" dy="0.71em" text-anchor="end" transform="translate(-5,3) rotate(-45)">OpenHaptics</text></g><g class="tick" opacity="1" transform="translate(599.2749244712991,0)"><line stroke="currentColor" y2="6"></line><text fill="currentColor" y="7" dy="0.71em" text-anchor="end" transform="translate(-5,3) rotate(-45)">PixiJS</text></g><g class="tick" opacity="1" transform="translate(619.214501510574,0)"><line stroke="currentColor" y2="6"></line><text fill="currentColor" y="7" dy="0.71em" text-anchor="end" transform="translate(-5,3) rotate(-45)">Spring ✱</text></g><g class="tick" opacity="1" transform="translate(639.1540785498489,0)"><line stroke="currentColor" y2="6"></line><text fill="currentColor" y="7" dy="0.71em" text-anchor="end" transform="translate(-5,3) rotate(-45)">Three.js</text></g><g class="tick" opacity="1" transform="translate(659.0936555891238,0)"><line stroke="currentColor" y2="6"></line><text fill="currentColor" y="7" dy="0.71em" text-anchor="end" transform="translate(-5,3) rotate(-45)">Vega</text></g><g class="tick" opacity="1" transform="translate(679.0332326283988,0)"><line stroke="currentColor" y2="6"></line><text fill="currentColor" y="7" dy="0.71em" text-anchor="end" transform="translate(-5,3) rotate(-45)">Vue</text></g></g><g transform="translate(30,0)" fill="none" font-size="10" font-family="sans-serif" text-anchor="end"><g class="tick" opacity="1" transform="translate(0,190.5)"><line stroke="currentColor" x2="-6"></line><text fill="currentColor" x="-9" dy="0.32em">0</text></g><g class="tick" opacity="1" transform="translate(0,170.5)"><line stroke="currentColor" x2="-6"></line><text fill="currentColor" x="-9" dy="0.32em">1</text></g><g class="tick" opacity="1" transform="translate(0,150.5)"><line stroke="currentColor" x2="-6"></line><text fill="currentColor" x="-9" dy="0.32em">2</text></g><g class="tick" opacity="1" transform="translate(0,130.5)"><line stroke="currentColor" x2="-6"></line><text fill="currentColor" x="-9" dy="0.32em">3</text></g><g class="tick" opacity="1" transform="translate(0,110.5)"><line stroke="currentColor" x2="-6"></line><text fill="currentColor" x="-9" dy="0.32em">4</text></g><g class="tick" opacity="1" transform="translate(0,90.5)"><line stroke="currentColor" x2="-6"></line><text fill="currentColor" x="-9" dy="0.32em">5</text></g><g class="tick" opacity="1" transform="translate(0,70.5)"><line stroke="currentColor" x2="-6"></line><text fill="currentColor" x="-9" dy="0.32em">6</text></g><g class="tick" opacity="1" transform="translate(0,50.5)"><line stroke="currentColor" x2="-6"></line><text fill="currentColor" x="-9" dy="0.32em">7</text></g><g class="tick" opacity="1" transform="translate(0,30.5)"><line stroke="currentColor" x2="-6"></line><text fill="currentColor" x="-9" dy="0.32em">8</text></g><g class="tick" opacity="1" transform="translate(0,10.5)"><line stroke="currentColor" x2="-6"></line><text fill="currentColor" x="-9" dy="0.32em">9</text></g></g></svg>