<svg viewBox="0 0 309.44 108.73" xmlns="http://www.w3.org/2000/svg"><path d="m100.35-100.35h108.73v309.44h-108.73z" fill="none" transform="matrix(0 1 -1 0 209.08 -100.35)"/><path d="m69.71 23.7a59.52 59.52 0 0 0 11.45-9.09c2.8-2.84-9.52-1.57-12.49 1a83.93 83.93 0 0 0 -9.47 9.25c-1.76 2.01 6.66 1.14 10.51-1.16zm225.34 63.93c2.19 1.31 2.09-5.53-2.32-8.28-15.79-9.84-59 7.31-75.34 9.26-3.07.37-4.19-.41-3.46-2.49 1.39-4 6.86-11.4 8-13.94s.9-10.78-11.45-10.78c-10.09 0-19.35 4.69-25.85 10.58-6.2 5.29-18.21 15.75-25.6 15.75-7.65 0 14.76-23.12 16-24.29 3.33-3.13-7.17-2.35-11.59 1-1.76 1.34-8.81 8.88-13.22 16.18-12.75 8.81-25.44 10.86-19.4 3.53 3.21-3.9 8.64-9.13 12.38-13.27 5.21-5.78 4.27-9.59-7.24-9.59-15.41 0-17 1.34-25.74 11.53-1.61 1.89-.78 6.64.89 5 10.43-10.32 10.2-9.48 24-9.48-2.22 2.36-6.18 4.71-12.89 13.23-6 7.6-2.07 13.74 6.43 13.74 4.7 0 11.71-2.2 18.12-6.72-.77 4 .82 6.79 6.87 6.79 7 0 15-4.17 21.64-8.8-.83 5 1.76 8.8 9.18 8.8 5.71 0 12.35-2.24 19.21-8.19 0 4.55 3.17 8.16 9.14 8.16 14.51-.01 64.76-18.26 82.24-7.72zm-106.73 1.2c-9.54 0 9.56-21.8 22-21.8 7.46-.03-12.8 21.8-22 21.8zm-7.57-33.72a98.22 98.22 0 0 0 14.75-11.62c2.8-2.84-9.52-1.58-12.49 1a122.05 122.05 0 0 0 -11.5 11.14c-1.75 2 5.4 1.79 9.24-.52zm-75.31 23.22c-3.74 3.67-11.91 9.76-19.06 9.76-5.29 0 5.24-9.47 10.46-17.11 5-7.3.91-9.48-3.2-9.48-10.18 0-20.12 7.15-26.86 12.17 2-2.73 5.21-6.22 8.59-10.68 1.87-2.48-9.35-1.59-12.22 2.19-.92 1.2-1.92 2.54-3 4-9.76 11.68-24.47 19.58-31.69 19.58-4 0-5.49-2.77-3-8 6-12.63 26.84-36.64 38.15-47.15 5.13-4.81-10.29-2.85-13.83.7-15.65 15.76-31.42 33.36-35.87 47.05-2.46 7.57-.19 14.37 9.22 14.37 7.72 0 16.28-3.83 23.55-8.37l-4.74 6.44c-2.05 2.78 8.35 1.76 10.54-1 8.22-10.55 27.98-23.49 33.52-23.49 5 0-12.24 12.92-12.08 20.83.2 10.39 24.26 4 32.43-6.67 1.24-1.66.24-6.26-.91-5.14z" fill="#e63312"/></svg>