<svg height="98.697525" viewBox="0 0 316.53864 98.697525" width="316.53864" xml:space="preserve" xmlns="http://www.w3.org/2000/svg" xmlns:xlink="http://www.w3.org/1999/xlink"><clipPath id="a"><path d="m318.26 559.42h239.1889v75.00464h-239.1889z"/></clipPath><clipPath id="b"><path d="m459.3258 622.7551h43.2026v-5.769h-43.2026z"/></clipPath><clipPath id="c"><path d="m318.26 559.42h239.1889v75.00464h-239.1889z"/></clipPath><clipPath id="d"><path d="m318.26 559.42h239.1889v75.00464h-239.1889z"/></clipPath><clipPath id="e"><path d="m438.3389 604.704h32.2585v-6.655h-32.2585z"/></clipPath><clipPath id="f"><path d="m318.26 559.42h239.1889v75.00464h-239.1889z"/></clipPath><clipPath id="g"><path d="m318.26 559.42h239.1889v75.00464h-239.1889z"/></clipPath><clipPath id="h"><path d="m481.912 610.8315h25.7039v-5.769h-25.7039z"/></clipPath><clipPath id="i"><path d="m318.26 559.42h239.1889v75.00464h-239.1889z"/></clipPath><clipPath id="j"><path d="m318.26 559.42h239.1889v75.00464h-239.1889z"/></clipPath><clipPath id="k"><path d="m429.2539 615.512h49.9286v-5.7691h-49.9286z"/></clipPath><clipPath id="l"><path d="m318.26 559.42h239.1889v75.00464h-239.1889z"/></clipPath><clipPath id="m"><path d="m318.26 559.42h239.1889v75.00464h-239.1889z"/></clipPath><clipPath id="n"><path d="m474.4339 628.3591h-10.5349v4.8394h10.5349z"/></clipPath><clipPath id="o"><path d="m318.26 559.42h239.1889v75.00464h-239.1889z"/></clipPath><clipPath id="p"><path d="m318.26 559.42h239.1889v75.00464h-239.1889z"/></clipPath><clipPath id="q"><path d="m12.5 12.5h587v767h-587z"/></clipPath><g transform="matrix(1.3333333 0 0 -1.3333333 -425.29848 845.42327)"><g clip-path="url(#a)"><path d="m319.5047 633.8257h236.1512c.1972 0 .357-.1599.357-.3572v-66.871c0-.1972-.1598-.3571-.357-.3571h-236.1512c-.1971 0-.357.1599-.357.3571v66.871c0 .1973.1599.3572.357.3572z" fill="#f7f7f7"/><path d="m65.35709 228.198h661.47771c.5522.177 1 .6246 1.5223 1.1769v187.2272c-.5223.5521-.9701.9998-1.5223 1.5959h-661.49103c-.55224-.5961-1-1.0438-.98666-1.5959v-187.2272c-.01334-.5523.43442-.9999.99998-1.1769z" fill="none" stroke="#ccc" stroke-linecap="round" stroke-linejoin="round" stroke-miterlimit="10" transform="matrix(.3569983 0 0 -.3571649 296.1771 715.3932)"/><path d="m351.2314 571.8594h23.6957v-5.8709h-23.6957z" fill="#fafafa"/><path d="m154.3571 402.1979h66v16.0001h-66z" style="fill:none;stroke:#eee;stroke-width:.5;stroke-linecap:round;stroke-linejoin:round;stroke-miterlimit:10" transform="matrix(.3569983 0 0 -.3571649 296.1771 715.3932)"/><text fill="#888" font-family="Inconsolata" font-size="16" transform="matrix(.3569983 0 0 -.3571649 353.01641 567.316758)"><tspan x="0 8 16 24 32 40 48" y="0">'black'</tspan></text><path d="m319.2704 571.8594h31.961v-5.8709h-31.961z" fill="#fafafa"/><path d="m65.35709 402.1979h89.00001v16.0001h-89.00001z" style="fill:none;stroke:#eee;stroke-width:.5;stroke-linecap:round;stroke-linejoin:round;stroke-miterlimit:10" transform="matrix(.3569983 0 0 -.3571649 296.1771 715.3932)"/><text fill="#222" font-family="Inconsolata" font-size="16" transform="matrix(.3569983 0 0 -.3571649 320.698432 567.316758)"><tspan x="0 8 16 24" y="0">fill</tspan></text><path d="m374.9271 571.8594h180.8993v-5.8709h-180.8993z" fill="#fafafa"/><path d="m220.3571 402.1979h507v16.0001h-507z" style="fill:none;stroke:#eee;stroke-width:.5;stroke-linecap:round;stroke-linejoin:round;stroke-miterlimit:10" transform="matrix(.3569983 0 0 -.3571649 296.1771 715.3932)"/><path d="m374.9271 583.6011h180.8993v-5.8708h-180.8993z" fill="#fafafa"/><path d="m220.3571 369.1979h507v16.0001h-507z" style="fill:none;stroke:#eee;stroke-width:.5;stroke-linecap:round;stroke-linejoin:round;stroke-miterlimit:10" transform="matrix(.3569983 0 0 -.3571649 296.1771 715.3932)"/><path d="m374.9271 589.472h180.8993v-5.8709h-180.8993z" fill="#fff"/><path d="m220.3571 353.198h507v15.9999h-507z" style="fill:none;stroke:#eee;stroke-width:.5;stroke-linecap:round;stroke-linejoin:round;stroke-miterlimit:10" transform="matrix(.3569983 0 0 -.3571649 296.1771 715.3932)"/><path d="m374.9271 577.7303h180.8993v-5.8709h-180.8993z" fill="#fff"/><path d="m220.3571 385.198h507v16.9999h-507z" style="fill:none;stroke:#eee;stroke-width:.5;stroke-linecap:round;stroke-linejoin:round;stroke-miterlimit:10" transform="matrix(.3569983 0 0 -.3571649 296.1771 715.3932)"/><path d="m351.2314 589.472h23.6957v-5.8709h-23.6957z" fill="#fff"/><path d="m154.3571 353.198h66v15.9999h-66z" style="fill:none;stroke:#eee;stroke-width:.5;stroke-linecap:round;stroke-linejoin:round;stroke-miterlimit:10" transform="matrix(.3569983 0 0 -.3571649 296.1771 715.3932)"/><text fill="#0096ff" font-family="Inconsolata" font-size="16" transform="matrix(.3569983 0 0 -.3571649 353.01641 584.929358)"><tspan x="0 8 16 24 32" y="0">(div)</tspan></text><path d="m351.2314 583.6011h23.6957v-5.8708h-23.6957z" fill="#fafafa"/><path d="m154.3571 369.1979h66v16.0001h-66z" style="fill:none;stroke:#eee;stroke-width:.5;stroke-linecap:round;stroke-linejoin:round;stroke-miterlimit:10" transform="matrix(.3569983 0 0 -.3571649 296.1771 715.3932)"/><text fill="#888" font-family="Inconsolata" font-size="16" transform="matrix(.3569983 0 0 -.3571649 353.01641 579.058458)"><tspan x="0 8 16" y="0">313</tspan></text><path d="m351.2314 577.7303h23.6957v-5.8709h-23.6957z" fill="#fff"/><path d="m154.3571 385.198h66v16.9999h-66z" style="fill:none;stroke:#eee;stroke-width:.5;stroke-linecap:round;stroke-linejoin:round;stroke-miterlimit:10" transform="matrix(.3569983 0 0 -.3571649 296.1771 715.3932)"/><text fill="#888" font-family="Inconsolata" font-size="16" transform="matrix(.3569983 0 0 -.3571649 353.01641 573.187558)"><tspan x="0 8 16" y="0">763</tspan></text><path d="m319.2704 577.7303h31.961v-5.8709h-31.961z" fill="#fff"/><path d="m65.35709 385.198h89.00001v16.9999h-89.00001z" style="fill:none;stroke:#eee;stroke-width:.5;stroke-linecap:round;stroke-linejoin:round;stroke-miterlimit:10" transform="matrix(.3569983 0 0 -.3571649 296.1771 715.3932)"/><text fill="#222" font-family="Inconsolata" font-size="16" transform="matrix(.3569983 0 0 -.3571649 320.698432 573.187558)"><tspan x="0" y="0">y</tspan></text><path d="m319.2704 583.6011h31.961v-5.8708h-31.961z" fill="#fafafa"/><path d="m65.35709 369.1979h89.00001v16.0001h-89.00001z" style="fill:none;stroke:#eee;stroke-width:.5;stroke-linecap:round;stroke-linejoin:round;stroke-miterlimit:10" transform="matrix(.3569983 0 0 -.3571649 296.1771 715.3932)"/><text fill="#222" font-family="Inconsolata" font-size="16" transform="matrix(.3569983 0 0 -.3571649 320.698432 579.058458)"><tspan x="0" y="0">x</tspan></text><path d="m319.2704 589.472h31.961v-5.8709h-31.961z" fill="#fff"/><path d="m65.35709 353.198h89.00001v15.9999h-89.00001z" style="fill:none;stroke:#eee;stroke-width:.5;stroke-linecap:round;stroke-linejoin:round;stroke-miterlimit:10" transform="matrix(.3569983 0 0 -.3571649 296.1771 715.3932)"/><text fill="#222" font-family="Inconsolata" font-size="16" transform="matrix(.3569983 0 0 -.3571649 320.698432 584.929358)"><tspan x="0 8 16 24 32 40 48 56 64 72" y="0">prototypes</tspan></text><path d="m393.4 626.6666v-18.5726l12.8519-12.858h25.7039l24.2759 24.2873v7.1433z" fill="#fff"/><path d="m272.3571 248.198v52.2209l35.9771 35.779h72l68.0229-67.7789v-20.221z" fill="none" stroke="#017000" stroke-miterlimit="10" transform="matrix(.3569983 0 0 -.3571649 296.1771 715.3932)"/><path d="m412.1408 598.5134h18.564v-6.0718h-18.564z" fill="#fff"/><text fill="#018000" font-family="Helvetica" font-size="14" transform="matrix(.3569983 0 0 -.3571649 412.140844 593.513093)"><tspan x="0 7.7868 15.5736 23.360399 31.1472 35.8092 43.596001" y="0">no_drag</tspan></text><path d="m456.9747 626.9949v-12.8579l18.5639-18.5727h25.7039l1.428 1.4287v30.0019z" fill="#ebebeb"/><path d="m450.3571 248.198v35.3018l52.0585 52.6981h72l3.9415-4.698v-83.3019z" fill="none" stroke="#999" stroke-miterlimit="10" transform="matrix(.3569983 0 0 -.3571649 296.1771 715.3932)"/><path d="m503.7534 626.6301v-7.1433l24.2758-24.2872h25.7039l1.428 1.4286v30.0019z" fill="#ebebeb"/><path d="m581.3571 249.1979v19.3233l68.0918 68.6768h71.9999l3.9083-4.6767v-83.3234z" fill="none" stroke="#999" stroke-miterlimit="10" transform="matrix(.3569983 0 0 -.3571649 296.1771 715.3932)"/><path d="m532.2669 597.8862h18.5639v-5.0003h-18.5639z" fill="#fff" fill-opacity=".75"/><text font-family="Helvetica" font-size="12" transform="matrix(.3569983 0 0 -.3571649 532.266844 593.95734)"><tspan x="0 6.624 10.572 17.195999 23.82 30.444 33.060001 39.683998 45.636002" y="0">drag_lock</tspan></text><g style="fill:none;stroke-linecap:round;stroke-linejoin:round;stroke-miterlimit:10;stroke-width:.5;stroke:#aaa;stroke-dasharray:1 3"><path d="m261.3571 411.6793v-79.0107" transform="matrix(.3569983 0 0 -.3571649 296.1771 715.3932)"/><path d="m350.3571 417.8919v-74.1841" transform="matrix(.3569983 0 0 -.3571649 296.1771 715.3932)"/><path d="m420.3571 410.0625v-113.0625" transform="matrix(.3569983 0 0 -.3571649 296.1771 715.3932)"/><path d="m495.3571 410.0625v-82.5838" transform="matrix(.3569983 0 0 -.3571649 296.1771 715.3932)"/><path d="m441.3571 410.0625v-134.4375" transform="matrix(.3569983 0 0 -.3571649 296.1771 715.3932)"/><path d="m623.3572 411.1875v-99.5626" transform="matrix(.3569983 0 0 -.3571649 296.1771 715.3932)"/><path d="m687.357 418.0483v-76.187" transform="matrix(.3569983 0 0 -.3571649 296.1771 715.3932)"/></g><path d="m376.6668 583.6826h25.7039v-5.8263h-25.7039z" fill="#eee"/><text fill="#222" font-family="Inconsolata" font-size="16" transform="matrix(.3569983 0 0 -.3571649 388.090707 579.162158)"><tspan x="0" y="0">0</tspan></text><path d="m376.6668 577.8563h25.7039v-5.8727h-25.7039z" fill="#eee"/><text fill="#222" font-family="Inconsolata" font-size="16" transform="matrix(.3569983 0 0 -.3571649 388.090707 573.312658)"><tspan x="0" y="0">0</tspan></text><path d="m408.1795 572.0251h25.7039v-6.0366h-25.7039z" fill="#eee"/><text fill="#019500" font-family="Inconsolata" font-size="16" transform="matrix(.3569983 0 0 -.3571649 411.035448 567.399558)"><tspan x="0 8 16 24 32 40 48" y="0">'black'</tspan></text><path d="m408.1795 577.8563h25.7039v-5.8263h-25.7039z" fill="#eee"/><text fill="#019500" font-family="Inconsolata" font-size="16" transform="matrix(.3569983 0 0 -.3571649 419.603407 573.335958)"><tspan x="0" y="0">y</tspan></text><path d="m408.1795 583.6826h25.7039v-5.8263h-25.7039z" fill="#eee"/><text fill="#019500" font-family="Inconsolata" font-size="16" transform="matrix(.3569983 0 0 -.3571649 419.603407 579.162158)"><tspan x="0" y="0">x</tspan></text><path d="m391.3037 568.9763c0-.9468-.7672-1.7144-1.7136-1.7144s-1.7136.7676-1.7136 1.7144c0 .9469.7672 1.7144 1.7136 1.7144s1.7136-.7675 1.7136-1.7144z" fill="#eee"/><path d="m266.3571 410.198c.1052 2.3948-2.0438 4.5438-4.6948 4.5438s-4.8-2.149-4.8-4.7999c0-2.651 2.149-4.8001 4.8-4.8001s4.8 2.1491 4.6948 5.0562z" fill="none" stroke="#c5c5c5" stroke-linecap="round" stroke-linejoin="round" stroke-miterlimit="10" transform="matrix(.3569983 0 0 -.3571649 296.1771 715.3932)"/><path d="m528.4607 583.6253h25.7039v-5.769h-25.7039z" fill="#eee"/><text fill="#222" font-family="Inconsolata" font-size="16" transform="matrix(.3569983 0 0 -.3571649 531.316648 579.133558)"><tspan x="0 8 16 24 32 40 48" y="0">mouse.x</tspan></text><path d="m528.4607 572.0251h25.7039v-6.0366h-25.7039z" fill="#eee"/><text fill="#222" font-family="Inconsolata" font-size="16" transform="matrix(.3569983 0 0 -.3571649 532.744641 567.399558)"><tspan x="0 8 16 24 32 40" y="0">'navy'</tspan></text><path d="m528.4607 577.7942h25.7039v-5.7691h-25.7039z" fill="#eee"/><text fill="#222" font-family="Inconsolata" font-size="16" transform="matrix(.3569983 0 0 -.3571649 531.316648 573.302458)"><tspan x="0 8 16 24 32 40 48" y="0">mouse.y</tspan></text><path d="m459.3258 622.7551h43.2026v-5.769h-43.2026z" fill="#fff" fill-opacity=".7"/></g><g clip-path="url(#b)"><g clip-path="url(#c)"><text font-family="Helvetica" font-size="14" transform="matrix(.3569983 0 0 -.3571649 462.057787 617.754821)"><tspan x="0 7.7868 15.5736 20.2356 22.908199 30.695 38.4818 41.592602 48.592602 51.7034 54.814201 61.814201 68.814201 71.486801 75.375999 79.265198 83.154404 90.9412 94.052002 101.052" y="0">on('dblclick', this)</tspan></text></g></g><g clip-path="url(#d)"><path d="m438.3389 604.704h32.2585v-6.655h-32.2585z" fill="#fff" fill-opacity=".7"/></g><g clip-path="url(#e)"><g clip-path="url(#f)"><text font-family="Helvetica" font-size="14" transform="matrix(.3569983 0 0 -.3571649 439.082377 599.703675)"><tspan x="0 7.7868 15.5736 20.2356 22.908199 34.570202 42.356998 50.143799 57.143799 64.930603 72.7174 80.504204 83.176804" y="0">on('mouseup')</tspan></text></g></g><g clip-path="url(#g)"><path d="m481.912 610.8315h25.7039v-5.769h-25.7039z" fill="#fff" fill-opacity=".7"/></g><g clip-path="url(#h)"><g clip-path="url(#i)"><text font-family="Helvetica" font-size="14" transform="matrix(.3569983 0 0 -.3571649 484.506821 605.831221)"><tspan x="0 7.7868 15.5736 20.2356 22.908199 29.908199 33.019001 36.129799 43.129799 50.129799 52.802399" y="0">on('click')</tspan></text></g></g><g clip-path="url(#j)"><path d="m429.2539 615.512h49.9286v-5.7691h-49.9286z" fill="#fff" fill-opacity=".7"/></g><g clip-path="url(#k)"><g clip-path="url(#l)"><text font-family="Helvetica" font-size="14" transform="matrix(.3569983 0 0 -.3571649 430.067822 610.511621)"><tspan x="0 7.7868 15.5736 20.2356 22.908199 34.570202 42.356998 50.143799 57.143799 64.930603 72.7174 80.504204 90.614998 98.401802 101.0744 104.9636 108.8528 112.742 120.5288 123.6396 130.6396" y="0">on('mousedown', this)</tspan></text></g></g><g clip-path="url(#m)"><path d="m540.3571 417.7056v-76.1645" style="fill:none;stroke:#aaa;stroke-width:.5;stroke-linecap:round;stroke-linejoin:round;stroke-miterlimit:10;stroke-dasharray:1 3" transform="matrix(.3569983 0 0 -.3571649 296.1771 715.3932)"/><path d="m483.7241 598.8781h9.9959v-6.0718h-9.9959z" fill="#fff" fill-opacity=".75"/><text font-family="Helvetica" font-size="14" transform="matrix(.3569983 0 0 -.3571649 483.724024 593.877793)"><tspan x="0 7.7364 12.3508 20.0872" y="0">drag</tspan></text><g fill="none" stroke-linecap="round" stroke-linejoin="round" stroke-miterlimit="10"><path d="m386.3571 418.1512v-49.1927" stroke="#018000" transform="matrix(.3569983 0 0 -.3571649 296.1771 715.3932)"/><path d="m313.3571 417.9637v-49.1927" stroke="#018000" transform="matrix(.3569983 0 0 -.3571649 296.1771 715.3932)"/><g stroke="#ccc"><path d="m723.3572 417.1255v-47.8568" transform="matrix(.3569983 0 0 -.3571649 296.1771 715.3932)"/><path d="m650.3571 417.4787v-48.3924" transform="matrix(.3569983 0 0 -.3571649 296.1771 715.3932)"/><path d="m298.3571 401.4057v-32.9799" transform="matrix(.3569983 0 0 -.3571649 296.1771 715.3932)"/><path d="m225.3571 401.2799v-32.9797" transform="matrix(.3569983 0 0 -.3571649 296.1771 715.3932)"/></g></g><path d="m476.8484 583.5883h25.7038v-5.7691h-25.7038z" fill="#eee"/><text fill="#222" font-family="Inconsolata" font-size="16" transform="matrix(.3569983 0 0 -.3571649 479.704348 579.096458)"><tspan x="0 8 16 24 32 40 48" y="0">mouse.x</tspan></text><path d="m476.8484 572.0681h25.7038v-6.0367h-25.7038z" fill="#eee"/><text fill="#222" font-family="Inconsolata" font-size="16" transform="matrix(.3569983 0 0 -.3571649 481.132341 567.442458)"><tspan x="0 8 16 24 32 40" y="0">'blue'</tspan></text><path d="m476.8679 577.816h25.7039v-5.7691h-25.7039z" fill="#eee"/><text fill="#222" font-family="Inconsolata" font-size="16" transform="matrix(.3569983 0 0 -.3571649 479.723848 573.324258)"><tspan x="0 8 16 24 32 40 48" y="0">mouse.y</tspan></text><path d="m442.1308 275.198h137.1996" fill="none" stroke="#000" stroke-miterlimit="10" transform="matrix(.3569983 0 0 -.3571649 296.1771 715.3932)"/><path d="m505.5674 617.0449-2.5704.9643v-1.9287z"/><path d="m586.5304 275.3582-7.2-2.7v5.4001z" fill="none" stroke="#000" stroke-miterlimit="10" transform="matrix(.3569983 0 0 -.3571649 296.1771 715.3932)"/><path d="m453.9543 617.1964c.0836-.0837.0836-.2194 0-.3031s-.2193-.0837-.3029 0c-.0837.0837-.0837.2194 0 .3031.0836.0837.2193.0837.3029 0"/><path d="m441.955 274.9339c.2344.2343.2344.6142 0 .8485-.2343.2344-.6142.2344-.8485 0-.2343-.2343-.2343-.6142 0-.8485s.6142-.2343.8485 0" fill="none" stroke="#000" stroke-miterlimit="10" transform="matrix(.3569983 0 0 -.3571649 296.1771 715.3932)"/><path d="m494.4868 328.198h-96.5962" fill="none" stroke="#000" stroke-miterlimit="10" transform="matrix(.3569983 0 0 -.3571649 296.1771 715.3932)"/><path d="m435.653 598.1588 2.5704-.9644v1.9286z"/><path d="m390.6905 328.2361 7.2001 2.7v-5.4z" fill="none" stroke="#000" stroke-miterlimit="10" transform="matrix(.3569983 0 0 -.3571649 296.1771 715.3932)"/><path d="m472.7708 598.0072c-.0837.0837-.0837.2194 0 .3031s.2193.0837.3029 0c.0837-.0837.0837-.2194 0-.3031-.0836-.0837-.2192-.0837-.3029 0"/><path d="m494.6626 328.6604c-.2343-.2343-.2343-.6142 0-.8486.2343-.2343.6142-.2343.8485 0 .2344.2344.2344.6143 0 .8486-.2343.2343-.6142.2343-.8485 0" fill="none" stroke="#000" stroke-miterlimit="10" transform="matrix(.3569983 0 0 -.3571649 296.1771 715.3932)"/><path d="m622.8261 310.198h-207.1002" fill="none" stroke="#000" stroke-miterlimit="10" transform="matrix(.3569983 0 0 -.3571649 296.1771 715.3932)"/><path d="m442.0201 604.5223 2.5704-.9643v1.9287z"/><path d="m408.5258 310.419 7.2001 2.7v-5.4001z" fill="none" stroke="#000" stroke-miterlimit="10" transform="matrix(.3569983 0 0 -.3571649 296.1771 715.3932)"/><path d="m518.5877 604.3708c-.0837.0837-.0837.2194 0 .3031.0836.0837.2193.0837.3029 0 .0837-.0837.0837-.2194 0-.3031-.0836-.0837-.2193-.0837-.3029 0"/><path d="m623.0019 310.8433c-.2343-.2343-.2343-.6142 0-.8485.2344-.2342.6142-.2342.8485 0 .2342.2343.2342.6142 0 .8485-.2343.2343-.6141.2343-.8485 0" fill="none" stroke="#000" stroke-miterlimit="10" transform="matrix(.3569983 0 0 -.3571649 296.1771 715.3932)"/><path d="m420.2893 297.1979h34.5293" fill="none" stroke="#000" stroke-miterlimit="10" transform="matrix(.3569983 0 0 -.3571649 296.1771 715.3932)"/><path d="m461.1169 609.2529-2.5704.9643v-1.9287z"/><path d="m462.0186 297.1745-7.2-2.7v5.4z" fill="none" stroke="#000" stroke-miterlimit="10" transform="matrix(.3569983 0 0 -.3571649 296.1771 715.3932)"/><path d="m446.1569 609.4044c.0837-.0837.0837-.2194 0-.3031-.0836-.0837-.2192-.0837-.3029 0-.0836.0837-.0836.2194 0 .3031.0837.0837.2193.0837.3029 0"/><path d="m420.1136 296.7502c.2343.2343.2343.6143 0 .8486s-.6142.2343-.8485 0c-.2344-.2343-.2344-.6143 0-.8486.2343-.2341.6142-.2341.8485 0" fill="none" stroke="#000" stroke-miterlimit="10" transform="matrix(.3569983 0 0 -.3571649 296.1771 715.3932)"/><path d="m319.4713 596.07h55.4558v-6.5192h-55.4558z" fill="#fff"/><text font-family="Helvetica" font-size="12" transform="matrix(.3569983 0 0 -.3571649 338.230453 591.38174)"><tspan x="0 7.9536 14.5752 21.1968 24.482401 31.764 34.377602 40.999199 43.612801" y="0">Add Field</tspan></text><g fill="none" stroke="#ccc" stroke-miterlimit="10"><path d="m724.8124 239.198h-489.3849" transform="matrix(.3569983 0 0 -.3571649 296.1771 715.3932)"/><path d="m235.4275 242.4999v-7.9999" transform="matrix(.3569983 0 0 -.3571649 296.1771 715.3932)"/><path d="m724.8124 234.5v7.9999" transform="matrix(.3569983 0 0 -.3571649 296.1771 715.3932)"/></g><path d="m474.4339 628.3591h-10.5349v4.8394h10.5349z" fill="#fff" fill-opacity=".7"/></g><g clip-path="url(#n)"><g clip-path="url(#o)"><text fill="#aaa" font-family="Helvetica" font-size="14" transform="matrix(.3569983 0 0 -.3571649 464.669632 628.814493)"><tspan x="0 7.7868 17.8976" y="0">own</tspan></text></g></g><g clip-path="url(#p)"><path d="m422.7696 586.5461c0-.9468-.7672-1.7143-1.7136-1.7143s-1.7136.7675-1.7136 1.7143c0 .9469.7672 1.7145 1.7136 1.7145s1.7136-.7676 1.7136-1.7145z" fill="#eee"/><path d="m354.3571 361.198c.2453 2.2022-1.9037 4.3513-4.5547 4.3513s-4.8-2.1491-4.8-4.8001 2.149-4.8 4.8-4.8 4.8 2.149 4.5547 5.2488z" fill="none" stroke="#c5c5c5" stroke-linecap="round" stroke-linejoin="round" stroke-miterlimit="10" transform="matrix(.3569983 0 0 -.3571649 296.1771 715.3932)"/><path d="m447.935 580.8029c0-.9469-.7672-1.7144-1.7136-1.7144s-1.7136.7675-1.7136 1.7144c0 .9468.7672 1.7144 1.7136 1.7144s1.7136-.7676 1.7136-1.7144z" fill="#eee"/><path d="m425.3571 377.198c-.263 2.2826-2.4121 4.4315-5.0631 4.4315-2.6509 0-4.7999-2.1489-4.7999-4.7999s2.149-4.8001 4.7999-4.8001c2.651 0 4.8001 2.1491 5.0631 5.1685z" fill="none" stroke="#c5c5c5" stroke-linecap="round" stroke-linejoin="round" stroke-miterlimit="10" transform="matrix(.3569983 0 0 -.3571649 296.1771 715.3932)"/><path d="m447.935 574.9766c0-.9468-.7672-1.7144-1.7136-1.7144s-1.7136.7676-1.7136 1.7144c0 .9469.7672 1.7144 1.7136 1.7144s1.7136-.7675 1.7136-1.7144z" fill="#eee"/><path d="m425.3571 393.1979c-.263 2.5951-2.4121 4.744-5.0631 4.744-2.6509 0-4.7999-2.1489-4.7999-4.7999 0-2.6509 2.149-4.8 4.7999-4.8 2.651 0 4.8001 2.1491 5.0631 4.8559z" fill="none" stroke="#c5c5c5" stroke-linecap="round" stroke-linejoin="round" stroke-miterlimit="10" transform="matrix(.3569983 0 0 -.3571649 296.1771 715.3932)"/><path d="m447.935 569.0834c0-.9468-.7672-1.7144-1.7136-1.7144s-1.7136.7676-1.7136 1.7144c0 .9469.7672 1.7144 1.7136 1.7144s1.7136-.7675 1.7136-1.7144z" fill="#eee"/><path d="m425.3571 410.198c-.263 2.0949-2.4121 4.244-5.0631 4.244-2.6509 0-4.7999-2.1491-4.7999-4.8001 0-2.6509 2.149-4.8 4.7999-4.8 2.651 0 4.8001 2.1491 5.0631 5.3561z" fill="none" stroke="#c5c5c5" stroke-linecap="round" stroke-linejoin="round" stroke-miterlimit="10" transform="matrix(.3569983 0 0 -.3571649 296.1771 715.3932)"/><path d="m447.78 586.5461c0-.9468-.7672-1.7143-1.7136-1.7143s-1.7136.7675-1.7136 1.7143c0 .9469.7672 1.7145 1.7136 1.7145s1.7136-.7676 1.7136-1.7145z" fill="#eee"/><path d="m425.3571 361.198c-.697 2.2022-2.846 4.3513-5.497 4.3513-2.6511 0-4.8-2.1491-4.8-4.8001s2.1489-4.8 4.8-4.8c2.651 0 4.8 2.149 5.497 5.2488z" fill="none" stroke="#c5c5c5" stroke-linecap="round" stroke-linejoin="round" stroke-miterlimit="10" transform="matrix(.3569983 0 0 -.3571649 296.1771 715.3932)"/><path d="m455.4391 580.8029c0-.9469-.7672-1.7144-1.7136-1.7144s-1.7136.7675-1.7136 1.7144c0 .9468.7672 1.7144 1.7136 1.7144s1.7136-.7676 1.7136-1.7144z" fill="#eee"/><path d="m446.3571 377.198c-.243 2.2826-2.392 4.4315-5.043 4.4315s-4.8-2.1489-4.8-4.7999 2.149-4.8001 4.8-4.8001 4.8 2.1491 5.043 5.1685z" fill="none" stroke="#c5c5c5" stroke-linecap="round" stroke-linejoin="round" stroke-miterlimit="10" transform="matrix(.3569983 0 0 -.3571649 296.1771 715.3932)"/><path d="m455.4391 574.9766c0-.9468-.7672-1.7144-1.7136-1.7144s-1.7136.7676-1.7136 1.7144c0 .9469.7672 1.7144 1.7136 1.7144s1.7136-.7675 1.7136-1.7144z" fill="#eee"/><path d="m446.3571 393.1979c-.243 2.5951-2.392 4.744-5.043 4.744s-4.8-2.1489-4.8-4.7999c0-2.6509 2.149-4.8 4.8-4.8s4.8 2.1491 5.043 4.8559z" fill="none" stroke="#c5c5c5" stroke-linecap="round" stroke-linejoin="round" stroke-miterlimit="10" transform="matrix(.3569983 0 0 -.3571649 296.1771 715.3932)"/><path d="m455.4391 569.0834c0-.9468-.7672-1.7144-1.7136-1.7144s-1.7136.7676-1.7136 1.7144c0 .9469.7672 1.7144 1.7136 1.7144s1.7136-.7675 1.7136-1.7144z" fill="#eee"/><path d="m446.3571 410.198c-.243 2.0949-2.392 4.244-5.043 4.244s-4.8-2.1491-4.8-4.8001c0-2.6509 2.149-4.8 4.8-4.8s4.8 2.1491 5.043 5.3561z" fill="none" stroke="#c5c5c5" stroke-linecap="round" stroke-linejoin="round" stroke-miterlimit="10" transform="matrix(.3569983 0 0 -.3571649 296.1771 715.3932)"/><path d="m455.4391 586.5461c0-.9468-.7672-1.7143-1.7136-1.7143s-1.7136.7675-1.7136 1.7143c0 .9469.7672 1.7145 1.7136 1.7145s1.7136-.7676 1.7136-1.7145z" fill="#eee"/><path d="m446.3571 361.198c-.243 2.2022-2.392 4.3513-5.043 4.3513s-4.8-2.1491-4.8-4.8001 2.149-4.8 4.8-4.8 4.8 2.149 5.043 5.2488z" fill="none" stroke="#c5c5c5" stroke-linecap="round" stroke-linejoin="round" stroke-miterlimit="10" transform="matrix(.3569983 0 0 -.3571649 296.1771 715.3932)"/><path d="m474.6137 580.7658c0-.9468-.7672-1.7143-1.7136-1.7143s-1.7136.7675-1.7136 1.7143.7672 1.7144 1.7136 1.7144 1.7136-.7676 1.7136-1.7144z" fill="#eee"/><path d="m500.3571 377.198c-.5323 2.3863-2.6813 4.5352-5.3323 4.5352s-4.8-2.1489-4.8-4.8c0-2.651 2.149-4.7999 4.8-4.7999s4.8 2.1489 5.3323 5.0647z" fill="none" stroke="#c5c5c5" stroke-linecap="round" stroke-linejoin="round" stroke-miterlimit="10" transform="matrix(.3569983 0 0 -.3571649 296.1771 715.3932)"/><path d="m474.6137 574.9396c0-.9469-.7672-1.7144-1.7136-1.7144s-1.7136.7675-1.7136 1.7144c0 .9468.7672 1.7144 1.7136 1.7144s1.7136-.7676 1.7136-1.7144z" fill="#eee"/><path d="m500.3571 393.1979c-.5323 2.6989-2.6813 4.8478-5.3323 4.8478s-4.8-2.1489-4.8-4.7999 2.149-4.8001 4.8-4.8001 4.8 2.1491 5.3323 4.7522z" fill="none" stroke="#c5c5c5" stroke-linecap="round" stroke-linejoin="round" stroke-miterlimit="10" transform="matrix(.3569983 0 0 -.3571649 296.1771 715.3932)"/><path d="m474.6137 569.0464c0-.9469-.7672-1.7144-1.7136-1.7144s-1.7136.7675-1.7136 1.7144c0 .9468.7672 1.7143 1.7136 1.7143s1.7136-.7675 1.7136-1.7143z" fill="#eee"/><path d="m500.3571 410.198c-.5323 2.1987-2.6813 4.3476-5.3323 4.3476s-4.8-2.1489-4.8-4.7999 2.149-4.8001 4.8-4.8001 4.8 2.1491 5.3323 5.2524z" fill="none" stroke="#c5c5c5" stroke-linecap="round" stroke-linejoin="round" stroke-miterlimit="10" transform="matrix(.3569983 0 0 -.3571649 296.1771 715.3932)"/><path d="m474.6137 586.5091c0-.9468-.7672-1.7144-1.7136-1.7144s-1.7136.7676-1.7136 1.7144c0 .9469.7672 1.7144 1.7136 1.7144s1.7136-.7675 1.7136-1.7144z" fill="#eee"/><path d="m500.3571 361.198c-.5323 2.3061-2.6813 4.455-5.3323 4.455s-4.8-2.1489-4.8-4.7999c0-2.6511 2.149-4.8001 4.8-4.8001s4.8 2.149 5.3323 5.145z" fill="none" stroke="#c5c5c5" stroke-linecap="round" stroke-linejoin="round" stroke-miterlimit="10" transform="matrix(.3569983 0 0 -.3571649 296.1771 715.3932)"/><path d="m490.7947 586.5091c0-.9468-.7672-1.7144-1.7136-1.7144s-1.7136.7676-1.7136 1.7144c0 .9469.7672 1.7144 1.7136 1.7144s1.7136-.7675 1.7136-1.7144z" fill="#eee"/><path d="m545.3572 361.198c-.2072 2.3061-2.3561 4.455-5.0072 4.455-2.651 0-4.8-2.1489-4.8-4.7999 0-2.6511 2.149-4.8001 4.8-4.8001 2.6511 0 4.8 2.149 5.0072 5.145z" fill="none" stroke="#c5c5c5" stroke-linecap="round" stroke-linejoin="round" stroke-miterlimit="10" transform="matrix(.3569983 0 0 -.3571649 296.1771 715.3932)"/><path d="m543.0262 586.5461c0-.9468-.7672-1.7143-1.7136-1.7143s-1.7135.7675-1.7135 1.7143c0 .9469.7671 1.7145 1.7135 1.7145s1.7136-.7676 1.7136-1.7145z" fill="#eee"/><path d="m691.3571 361.198c.1004 2.2022-2.0487 4.3513-4.6997 4.3513s-4.8001-2.1491-4.8001-4.8001 2.1491-4.8 4.8001-4.8 4.8001 2.149 4.6997 5.2488z" fill="none" stroke="#c5c5c5" stroke-linecap="round" stroke-linejoin="round" stroke-miterlimit="10" transform="matrix(.3569983 0 0 -.3571649 296.1771 715.3932)"/><path d="m376.6668 589.5088h25.9091v-5.8262h-25.9091z" fill="#eee"/><text fill="#019500" font-family="Inconsolata" font-size="16" transform="matrix(.3569983 0 0 -.3571649 379.625448 584.988358)"><tspan x="0 8 16 24 32 40 48" y="0">dom.div</tspan></text><g fill="none" stroke-linecap="round" stroke-linejoin="round" stroke-miterlimit="10"><path d="m298.3571 368.9081v-16.2207" stroke="#018000" transform="matrix(.3569983 0 0 -.3571649 296.1771 715.3932)"/><path d="m225.3571 368.9081v-16.2207" stroke="#018000" transform="matrix(.3569983 0 0 -.3571649 296.1771 715.3932)"/><path d="m65.35709 229.198h155.00001v123h-155.00001z" stroke="#ddd" stroke-width=".5" transform="matrix(.3569983 0 0 -.3571649 296.1771 715.3932)"/></g><text fill="#aaa" font-family="Helvetica Neue" font-size="26" font-weight="300" transform="matrix(.3569983 0 0 -.3571649 327.063698 622.909795)"><tspan x="0 14.924 23.114 36.608002 51.063999 65.519997 79.014 93.938004 98.748001" y="0">draggable</tspan></text><path d="m343.2827 605.9635h25.8446v-6.5192h-25.8446z" fill="#eee"/><path d="m132.3571 306.1981h72v18.9999h-72z" fill="none" stroke="#aaa" stroke-linecap="round" stroke-linejoin="round" stroke-miterlimit="10" transform="matrix(.3569983 0 0 -.3571649 296.1771 715.3932)"/><text fill="#777" font-family="Helvetica" font-size="14" transform="matrix(.3569983 0 0 -.3571649 324.837544 601.264293)"><tspan x="0 10.1108 17.8976 25.684401 28.7952 36.582001 43.582001 47.471199" y="0">Copies: </tspan></text><path d="m351.3021 565.9377h23.625v-2.4788c-7.0875.6211-16.6083-2.9909-23.6957-1.7487z" fill="#fff"/><path d="m154.4126 419.198h65.9445v6.1918c-19.6208-1.7391-46.2898 8.374-66.1428 4.8958z" style="fill:none;stroke:#eee;stroke-width:.5;stroke-linecap:round;stroke-linejoin:round;stroke-miterlimit:10" transform="matrix(.3569983 0 0 -.3571649 296.1771 715.3932)"/><path d="m374.9271 565.9377h181.1065.0893c-54.332.6212-169.0274-4.7091-181.1958-2.4788z" fill="#fff"/><path d="m220.3571 419.198h507.5357.2501c-152.191-2.4879-473.4685 12.4362-507.7858 6.1918z" style="fill:none;stroke:#eee;stroke-width:.5;stroke-linecap:round;stroke-linejoin:round;stroke-miterlimit:10" transform="matrix(.3569983 0 0 -.3571649 296.1771 715.3932)"/><path d="m318.974 565.9606h32.3223v-4.2887c-9.6967.615-22.6256-2.4753-32.3223-1.2455z" fill="#fff"/><path d="m64.35711 418.198h89.99999v12.1949c-27.1226-1.7217-63.33827 6.9305-89.99999 3.4873z" style="fill:none;stroke:#eee;stroke-width:.5;stroke-linecap:round;stroke-linejoin:round;stroke-miterlimit:10" transform="matrix(.3569983 0 0 -.3571649 296.1771 715.3932)"/><text fill="#222" font-family="Inconsolata" font-size="14" transform="matrix(.3569983 0 0 -.3571649 320.758925 561.440158)"><tspan x="0 7 14" y="0">...</tspan></text><path d="m391.2062 598.1212c0-.9468-.7671-1.7143-1.7136-1.7143-.9463 0-1.7135.7675-1.7135 1.7143 0 .9469.7672 1.7144 1.7135 1.7144.9465 0 1.7136-.7675 1.7136-1.7144z"/><path d="m261.9674 329.198h29.15" fill="none" stroke="#000" stroke-miterlimit="10" transform="matrix(.3569983 0 0 -.3571649 296.1771 715.3932)"/><path d="m402.6759 598.0554-2.5704.9643v-1.9287z"/><g fill="none" stroke-miterlimit="10"><path d="m298.3174 328.5256-7.2-2.7001v5.4001z" stroke="#000" transform="matrix(.3569983 0 0 -.3571649 296.1771 715.3932)"/><path d="m579.3571 418.1915v-49.1928" stroke="#ccc" stroke-linecap="round" stroke-linejoin="round" transform="matrix(.3569983 0 0 -.3571649 296.1771 715.3932)"/><path d="m505.3571 418.2234v-49.1926" stroke="#ccc" stroke-linecap="round" stroke-linejoin="round" transform="matrix(.3569983 0 0 -.3571649 296.1771 715.3932)"/></g><path d="m520.4182 580.6957c0-.9468-.7672-1.7143-1.7136-1.7143s-1.7136.7675-1.7136 1.7143c0 .9469.7672 1.7145 1.7136 1.7145s1.7136-.7676 1.7136-1.7145z" fill="#eee"/><path d="m628.3571 377.198c-.2277 2.5825-2.3766 4.7314-5.0276 4.7314-2.6511 0-4.8001-2.1489-4.8001-4.7999 0-2.6511 2.149-4.8001 4.8001-4.8001 2.651 0 4.7999 2.149 5.0276 4.8686z" fill="none" stroke="#c5c5c5" stroke-linecap="round" stroke-linejoin="round" stroke-miterlimit="10" transform="matrix(.3569983 0 0 -.3571649 296.1771 715.3932)"/><path d="m520.4182 574.8695c0-.9468-.7672-1.7144-1.7136-1.7144s-1.7136.7676-1.7136 1.7144.7672 1.7144 1.7136 1.7144 1.7136-.7676 1.7136-1.7144z" fill="#eee"/><path d="m628.3571 393.1979c-.2277 2.895-2.3766 5.0441-5.0276 5.0441-2.6511 0-4.8001-2.1491-4.8001-4.8 0-2.651 2.149-4.7999 4.8001-4.7999 2.651 0 4.7999 2.1489 5.0276 4.5558z" fill="none" stroke="#c5c5c5" stroke-linecap="round" stroke-linejoin="round" stroke-miterlimit="10" transform="matrix(.3569983 0 0 -.3571649 296.1771 715.3932)"/><path d="m520.4182 568.9763c0-.9468-.7672-1.7144-1.7136-1.7144s-1.7136.7676-1.7136 1.7144c0 .9469.7672 1.7144 1.7136 1.7144s1.7136-.7675 1.7136-1.7144z" fill="#eee"/><path d="m628.3571 410.198c-.2277 2.3948-2.3766 4.5438-5.0276 4.5438-2.6511 0-4.8001-2.149-4.8001-4.7999 0-2.651 2.149-4.8001 4.8001-4.8001 2.651 0 4.7999 2.1491 5.0276 5.0562z" fill="none" stroke="#c5c5c5" stroke-linecap="round" stroke-linejoin="round" stroke-miterlimit="10" transform="matrix(.3569983 0 0 -.3571649 296.1771 715.3932)"/><path d="m520.4182 586.439c0-.9468-.7672-1.7143-1.7136-1.7143s-1.7136.7675-1.7136 1.7143c0 .9469.7672 1.7144 1.7136 1.7144s1.7136-.7675 1.7136-1.7144z" fill="#eee"/><path d="m628.3571 361.198c-.2277 2.5023-2.3766 4.6512-5.0276 4.6512-2.6511 0-4.8001-2.1489-4.8001-4.7999s2.149-4.8001 4.8001-4.8001c2.651 0 4.7999 2.1491 5.0276 4.9488z" fill="none" stroke="#c5c5c5" stroke-linecap="round" stroke-linejoin="round" stroke-miterlimit="10" transform="matrix(.3569983 0 0 -.3571649 296.1771 715.3932)"/></g><g clip-path="url(#q)"><path d="m54.5 191.74h239.76v-136.55998h-239.76z" fill="#fff"/></g></g></svg>