<svg height="909.93231" viewBox="0 0 638.27759 909.93231" width="638.27759" xml:space="preserve" xmlns="http://www.w3.org/2000/svg"><g transform="matrix(1.3333333 0 0 1.3333333 -75.985462 -109.00768)"><g font-family="Arial" stroke-width=".75063"><text font-size="20.011787" x="56.731186" y="96.080605"><tspan stroke-width=".75063" x="56.731186 62.290321 73.418358 78.977493 85.64064 96.768677 107.89671 119.02475 129.02924 134.58836 139.03372 150.16176" y="96.080605">Introduction</tspan></text><g font-size="11.004231"><text x="56.731186" y="120.85138"><tspan stroke-width=".75063" x="56.731186 63.45129 69.569756 72.013916 77.514626 80.571175 83.015335 89.133797 92.190346 98.308807 101.97237 107.47308 109.91724 116.0357 123.98057 127.03712 129.48128 134.98199 138.03853 144.157 150.27547 153.93903 156.99556 160.05211 166.17058 169.22713 172.28366 181.44794 186.94864 190.00519 197.34305 203.46152 211.40639 214.46294 217.51947 225.46436 231.58281 237.70126 241.36484 247.48329 250.53986 253.59639 256.65292 259.09711 265.21558 271.33405 276.83475 279.8913 286.00977 289.06628 292.12283 295.17935 301.29785 307.41632 310.47284 312.91702 315.36121 324.52545 326.9696 330.02615 335.52686 338.5834 344.70187 347.75839 350.81494 359.37219 367.31705 370.3736 373.43015 375.8743 378.31848 384.43695 388.10049 394.21896 397.88251 400.32666 406.44516 411.94586 415.00238 421.12088 427.23935 433.35782 436.41434 439.47089 443.13443 449.2529 458.41714 464.53561 472.4805 478.59897 482.26254 487.76328 493.26398 496.3205 499.37704 505.49551" y="120.85138">This interview is part of my PhD, where I look at the limits of GUI libraries and frameworks for</tspan></text><text x="56.731186" y="135.86398"><tspan stroke-width=".75063" x="56.731186 62.849651 66.513206 72.631676 75.688217 81.806679 84.863228 90.363937 96.482399 98.926559 105.04503 111.16349 114.22004 120.3385 126.45696 132.57542 135.63197 141.75044 147.8689 150.31306 152.75723 158.87569 161.31985 167.43831 173.55678 176.61333 179.0575 185.17595 188.2325 194.35097 198.01451 204.13298 209.6337 212.69023 215.1344 220.6351 226.75359 229.81012 235.92859 242.04704 248.1655 250.60966 253.05385 258.55457 264.67303 267.72955 270.17374 276.29221 282.41068 287.91141 290.96793 294.02448 300.14294 303.80649 306.86307 312.98154 319.10001 324.60071 330.71918 336.83768 342.33838 348.45685 354.57532 357.63187 360.07602 366.19452 369.25104 375.36951 379.03308 385.15152 390.65222 393.70877 396.15295 402.27142 408.38989 411.44644 414.50296 420.62143 426.12216 432.24063 438.3591 440.80328 446.92175 453.04022 459.15869 464.65939 467.71594 471.37952 479.93677 482.99329 486.04984 489.10635 497.05124 503.16974 508.67044 514.78888 520.90741" y="135.86398">prototyping and building interactive applications, or advanced interaction techniques (Qt, Cocoa,</tspan></text><text x="56.731186" y="150.87657"><tspan stroke-width=".75063" x="56.731186 64.069046 72.013916 74.458076 80.576546 86.695007 89.751556 92.808098 100.14596 108.09083 114.20929 117.26584 120.32239 131.32381 134.98737 138.0439 141.10045 147.21892 153.33737 159.45584 162.51239 164.95656 171.07501 174.13156 180.25003 186.36848 190.03204 193.08859 195.53276 201.03348 207.15193 209.59608 215.71455 219.37811 222.43466 228.55312 234.67157 242.61646 245.67299 248.72955 254.84799 260.96646 266.46719 269.52371 275.64218 279.30576 285.42419 288.48074 294.59921 300.71768 306.21838 311.71912 317.83759 323.95605 327.0126 333.13107 336.79462 342.91309 349.03156 355.15002 361.26849 364.32504 366.7692 372.8877 375.94421 382.06268 387.56342 390.61993 396.7384 402.85687 405.30106 408.3576 414.47607 418.13962 424.25809 426.70224 432.82074 438.32144 441.37796 446.87869 449.93521 452.99176 456.04828 462.16675 465.2233 471.34177 477.46024 480.51678 483.5733 486.62985 492.74832 495.1925 501.31097 507.42944" y="150.87657">Swing, SDL, …), and in particular how they are hacked around in actual projects, to get things</tspan></text><text x="56.731186" y="165.88918"><tspan stroke-width=".75063" x="56.731186 62.849651 68.968117 75.086578 81.20504 84.261589 87.31813 90.37468 93.431229 101.3761 107.49456 113.61302 116.05719 122.17565 125.23219 127.67636 130.12051 135.62123 141.7397 144.79623 147.85278 153.97125 157.0278 163.14626 169.26472 174.76543 180.26614 183.32269 186.98624 193.10472 198.60542 204.10614 207.16267 215.10756 217.5517 220.60826 226.72672 229.78326 235.28398 241.40244 247.52089 250.57744 256.69589 259.75244 262.80896 268.92743 276.87231 279.92886 286.04733 289.10385 292.1604 297.6611 303.77957 309.89807 313.56161 316.61816 322.73663 328.85513 334.35583 337.41235 340.4689 348.41379 354.53226 358.1958 363.69653 369.19724 372.25378 375.31033 383.25522 389.37369 395.49216 399.1557 405.27417 408.33069 411.38724 417.50571 423.62418 426.68073 429.12491 431.56906 437.68753 441.35114 447.4696 451.13315 456.63385 459.69037 465.1911 471.30957 477.42804 479.87222 485.99069 489.04721 495.16571 501.28418 504.3407 507.39725 513.51569" y="165.88918">done. I would like to backtrack with you a few of your past works, where the library could not do</tspan></text><text x="56.731186" y="180.90176"><tspan stroke-width=".75063" x="56.731186 62.849651 68.350357 74.468826 78.132378 83.633087 86.689636 92.808098 95.252258 101.37073 107.48919 110.54574 116.04644 122.16491 128.28337 131.33992 133.78407 139.90254 142.95908 149.07755 155.19601 161.31448 167.43294 173.55141 176.60796 179.66451 185.16521 191.28368 194.34021 199.84091 205.9594 212.07787 215.1344 221.25287 227.37132 233.48978 236.54634 239.60289 245.72134 248.77791 254.89636 261.0148 266.5155 272.01624 275.07275 280.57346 286.69196 292.81042 296.47397 299.53055 307.4754 313.5939 319.0946 322.15112 324.59531 330.71378 333.77032 336.82684 339.88339 342.93991 348.44064 354.55911 357.00327 363.12177 368.62247 371.67899 377.79749 383.91595 386.97247 392.47321 398.59167 407.75595 413.87439 416.93091 423.04941 429.16788 432.2244 435.28094 441.39941 447.51788 450.57443 453.63095 459.74942 462.80597 468.92444 472.58801 478.70651 484.82498 487.8815 490.93805 497.05652 499.5007 503.16428 509.28275 515.40125 521.51971 527.02039" y="180.90176">everything you intended, so you had to hack your way in. I selected some on the Internet already,</tspan></text><text x="56.731186" y="195.91435"><tspan stroke-width=".75063" x="56.731186 62.849651 68.968117 72.024658 75.081207 83.026077 89.144539 92.201088 97.701797 103.82026 109.93872 112.99527 116.65883 122.77729 128.278 130.72217 136.84062 144.78549 147.84204 153.96051 160.07896 166.19743 169.25398 175.37244 181.49091 185.15446 188.21101 194.32948 200.44794 206.56639 209.62296 212.06709 215.12366 218.18021 220.62436 223.68092 226.73746 229.18163 234.68234 237.73888 246.90314 253.02159 256.68515 262.80359 265.86014 269.52368 275.64215 278.08633 284.2048 289.70551 295.82397 301.94244 304.99899 308.05551 311.11206 317.23053 320.28708 325.78778 331.90625 338.02472" y="195.91435">but we can review another one if it is more relevant to you.</tspan></text></g><text font-size="20.011787" x="56.731186" y="239.45088"><tspan stroke-width=".75063" x="56.731186 72.294807 83.422844 94.55088 104.55537 110.1145 114.55985 125.6879 136.81593" y="239.45088">Questions</tspan></text></g><g font-size="11.004231"><g stroke-width=".75063"><g font-family="Arial"><text x="74.7463" y="264.22165"><tspan stroke-width=".75063" x="74.7463 80.864761" y="264.22165">1.</tspan></text><text x="92.761414" y="264.22165"><tspan stroke-width=".75063" x="92.761414 100.09927 106.21774 112.3362 118.45467 121.51122 128.84908 134.96753 141.086 144.74956 150.25026 153.30681 159.42528 162.48183 165.53836 171.65683 177.15755 183.276 189.39447 193.05803 195.50218 201.62064 207.73912 213.23982 219.35829 225.47675 228.53331 231.58984 237.70831 240.76485 249.92912 256.04758 258.49176 264.61023 267.66675 270.11093 276.22937 282.34784 288.46631 294.58478 300.70325 306.82175 312.94022 319.05869 322.11523 328.83533 332.4989 338.61734 344.73581 350.85431 356.97278 363.09125 368.59195 374.09265 377.1492 383.26767 386.32422 389.38074 395.49921 399.16275 405.28122 411.39969 415.06323 421.1817 430.34595 439.51025 441.95441 448.07291 454.19138" y="264.22165">Age? Years of experience? In main language? Frequency of programming?</tspan></text><text x="92.761414" y="282.23676"><tspan stroke-width=".75063" x="92.761414 98.879883 104.99834 111.11681 117.23528 123.35374 129.4722 135.59067 141.70912 147.20984 150.26639 153.32292 161.26779 168.60565 174.10637 177.16292 180.21945 183.88301 190.00148 199.16574 205.28423 213.22908 219.34753 223.01111 228.51183 234.01253 237.06906 243.18755 246.24408 249.30061 254.80132 260.9198 267.03827 269.48242 274.98312 281.10159" y="282.23676">Languages/IDEs/frameworks of choice?</tspan></text><text x="74.7463" y="300.25189"><tspan stroke-width=".75063" x="74.7463 80.864761" y="300.25189">2.</tspan></text><text x="92.761414" y="300.25189"><tspan stroke-width=".75063" x="92.761414 103.14508 109.26354 111.7077 117.20841 123.32687 126.38342 132.50189 134.94604 141.06451 144.12106 147.17761 153.29607 156.95963 166.12389 169.18044 171.6246 177.74307 183.86153 189.98 196.09845 202.21692 208.33539 214.45384 217.51041 220.56694 228.51183 235.84966 238.90622 241.96277 245.62631 251.74478 260.90906 267.0275 274.97238 281.09085 284.75439 290.2551 293.91867 299.41937 303.08292 306.13947 312.25793 314.70212 320.82059 323.87711 329.37784 335.49631 341.61478 344.67133 350.78979 356.2905 362.40897 365.46552 368.52203 374.6405 380.759 386.87747 389.93399 397.87888 403.99734 409.49808 412.5546 415.61115 421.72961 427.84808 433.34879 439.46725 442.5238 448.02451 454.14297 460.26147 462.70563 468.20636 474.32483 479.82553" y="300.25189">Which platform/language/IDE/framework(s) did you use, and why these choices?</tspan></text><text x="92.761414" y="318.267"><tspan stroke-width=".75063" x="92.761414 100.09927 106.21774 112.3362 115.99976 122.11823 127.61893 130.0631 139.22736 145.34583 148.40237 154.52083 156.965 162.46571 165.52225 171.64072 177.75919 185.70406 188.7606 197.92485 204.04332 210.1618 215.66251 218.71904 221.16322 223.60738 229.72581 235.8443 241.345 244.40154 250.52002 253.57655 256.63312 262.13382 268.25226 274.37076 280.48923 283.54575 285.98993 291.49063 294.54718 297.6037 303.72217 309.84067 312.89719 319.01566 322.67923 328.79767 331.24185 337.36032 342.86102 345.91757 352.03604 355.09259 363.03745 369.15594 377.10083 380.15735 382.60153 388.72 394.83847 400.95694 404.01349 410.13196 412.57614 418.69461 421.75113 424.19531 427.25186 430.30838 433.36493 439.4834 444.9841 451.10257 454.15912 457.21564 463.33414 466.39066 471.89136 478.00986 484.12833 490.2468 493.30331 495.7475 498.80405 504.92252 507.97903 515.92395 522.04242" y="318.267">Approximately how many lines of code is the project? How long did it take to code it? How</tspan></text><text x="92.761414" y="336.2821"><tspan stroke-width=".75063" x="92.761414 101.92568 108.04414 114.16261 119.66332 122.71986 128.22058 134.33904 138.00259 143.5033 145.94746 152.06593 158.18439 163.6851 166.74165 172.86011 175.30428 181.42274 184.47928 189.98 196.09845 202.21692 205.27345 211.39192 217.51041 220.56694 223.62347 231.56836 234.62489 238.28847 241.345 244.40154 247.4581 250.51465 254.17819 260.29666 263.35321 269.47168 274.97238 278.02893 284.1474 287.81094 290.2551 296.37357 302.49207" y="336.2821">many versions did you do, w.r.t. refactoring?</tspan></text><text x="74.7463" y="354.29724"><tspan stroke-width=".75063" x="74.7463 80.864761" y="354.29724">3.</tspan></text><text x="92.761414" y="354.29724"><tspan stroke-width=".75063" x="92.761414 100.09927 103.15582 106.21237 114.15724 120.2757 122.71986 128.22058 134.33904 137.39558 143.51405 149.63251 152.07668 158.19513 161.25168 164.30823 166.7524 172.87085 175.9274 178.98395 185.10242 191.22087 194.27742 200.39587 206.51434 212.01506 214.45923 220.57768 226.69614 229.75269 235.87114 239.53473 245.65318 248.70973 254.82819 257.88474 263.38547 269.50391 271.94806 278.06653 284.185 287.24155 293.36002 297.02356 303.14203 308.64273 314.7612 320.26193 325.76263 328.81915 334.93762 337.38181 343.50027 346.55682 352.05753 358.17599 364.29449 367.35101 373.46948 379.58795 382.6445 385.70102 391.81952 394.87604 402.82092 408.93939 412.60297 418.1037 420.54782 426.66629 432.78476 435.84131 441.34201 447.46048 450.51703 453.57355 461.51843 467.6369 471.30045 477.41891 480.47546 486.59393 490.25751 496.37598 499.43253 505.55099 508.60754 514.10822 520.22675 526.34521" y="354.29724">At which point in the design/prototyping process did you get a working software prototype?</tspan></text><text x="92.761414" y="372.31235"><tspan stroke-width=".75063" x="92.761414 103.14508 109.26354 115.382 118.43855 121.49509 127.61356 130.05772 136.17619 139.23273 141.6769 144.73344 147.78999 150.23415 159.39842 165.51688 167.96104 174.07951 183.24377 189.36224 195.4807 198.53726 201.5938 207.71227 210.15642 213.81998 219.93845 226.0569 232.17535 237.67607 243.79454 246.85107 257.23474 263.35321 269.47168 272.5282 275.58478 283.52963 289.6481 295.1488 298.20535 300.64951 306.76801 309.82452 312.88107 315.93759 318.99414 325.11261 328.16913 330.61331 339.77759 345.89603 348.34021 354.45868 363.62296 369.74139 375.85986 378.91641" y="372.31235">What did it implement already? What was left to implement?</tspan></text><text x="74.7463" y="390.32745"><tspan stroke-width=".75063" x="74.7463 80.864761" y="390.32745">4.</tspan></text><text x="92.761414" y="390.32745"><tspan stroke-width=".75063" x="92.761414 103.14508 109.26354 115.382 118.43855 121.49509 129.43997 135.55843 139.22198 145.34045 148.397 153.89771 160.01617 166.13464 169.79819 172.85474 178.97321 188.13748 194.25594 196.70009 199.75664 202.20079 208.31927 214.43774 219.93845 222.99498 229.11346 232.17 235.22653 238.28308 244.40154 250.52002 253.57655 259.07727 262.13382 268.25226 271.91586 274.97238 278.02893 284.1474 287.20392 290.26047 293.31699 299.43549 305.55396 308.61047 314.72894 318.39252 324.51096 326.95514 333.07361 338.57431 341.63086 347.74933 350.80588 353.8624 359.3631 362.41965 365.47617 371.59467 377.71313 381.37668 387.49515 390.55167 396.0524 402.17087 411.33511 417.45358 420.5101 426.6286 429.68512 432.74167 438.24237 444.36084 450.47931 454.14288 457.19943 459.64362 465.76208 471.88055 477.99902 483.49973 486.55627 489.61279 495.73129 501.84976 504.90628 507.96283 513.46356 519.58203" y="390.32745">What were your ambitions at the start of the project? Is there some of your ideas that you</tspan></text><text x="92.761414" y="408.34256"><tspan stroke-width=".75063" x="92.761414 98.262123 104.38059 110.49905 112.94321 119.06168 122.11823 128.23669 134.35515 137.4117 140.46825 142.91241 152.07668 158.19513 160.6393 166.75777 175.92203 182.0405 188.15895 191.2155 194.27203 200.39052 206.50899 212.62744 215.68399 218.74054 224.85901 230.35971 233.41624 236.47278 242.59126 248.70973 254.21045 260.32889 266.44736 271.94806 278.06653 281.12308 287.24155 290.29807 293.35461 296.41113 302.52963 308.03033 314.1488 320.26727 326.38574 328.82993 334.94839 341.06686 343.51105 349.01175 355.13025 357.5744 360.63095 363.0751 368.57584 374.07654 380.19501 386.31348 391.81421 394.87073 397.31491 399.75906 408.92331 411.36749 414.42404 420.54251 423.59903 426.04321 432.16168 438.28015 443.78088" y="408.34256">could not implement and test because of technological issues/limitations?</tspan></text><text x="74.7463" y="426.35767"><tspan stroke-width=".75063" x="74.7463 80.864761" y="426.35767">5.</tspan></text><text x="92.761414" y="426.35767"><tspan stroke-width=".75063" x="92.761414 103.14508 109.26354 115.382 118.43855 121.49509 129.43997 135.55843 141.05914 144.11569 147.17223 153.2907 159.40916 162.46571 171.62997 177.74844 183.24915 186.30569 189.36224 195.4807 197.92485 200.98141 204.03796 206.48212 211.98282 218.10127 220.54546 223.60199 226.65854 229.7151 235.83356 238.27771 244.39618 250.51465 253.57118 259.0719 265.19037 271.30884 274.36539 280.48383 286.60229 292.72076 295.77728 298.83383 304.9523 308.00885 310.453 319.61728 325.73575 328.1799 334.29837 343.46265 349.58112 355.69958 358.7561 364.87457 367.93112 378.31476 384.43326 390.55173 392.99588 399.11438 402.1709 407.6716 413.7901 419.90857 422.96509 428.46582 434.58429 440.70276 446.20346 448.64764 454.76611 460.88458 464.54816 467.60471 470.04889 473.10541" y="426.35767">What was the most difficult thing you had to implement? Would you consider it </tspan></text></g><text font-family="Gautami" x="476.16196" y="426.35767"><tspan stroke-width=".75063" x="476.16196" y="426.35767">​</tspan></text><text font-family="Arial" font-style="italic" x="476.16196" y="426.35767"><tspan stroke-width=".75063" x="476.16196 482.28043 488.3989 493.8996 499.40033 501.84445 507.96292" y="426.35767">hacking</tspan></text></g><text font-family="Gautami" stroke-width=".728218" transform="matrix(1 0 -.25000001 1 0 0)" x="620.67084" y="426.35767"><tspan stroke-width=".728218" x="620.67084" y="426.35767">​</tspan></text><g stroke-width=".75063"><text font-family="Arial" x="514.08136" y="426.35767"><tspan stroke-width=".75063" x="514.08136" y="426.35767">?</tspan></text><text font-family="Arial" x="92.761414" y="444.3728"><tspan stroke-width=".75063" x="92.761414 103.14508 109.26354 115.382 118.43855 121.49509 129.43997 135.55843 141.6769 144.12106 150.23952 153.29607 158.79678 164.91524 171.03371 174.09026 179.59096 185.70943 191.82788 197.3286 199.77275 205.89122 212.00969 215.67323" y="444.3728">What would you consider </tspan></text><text font-family="Gautami" x="218.72978" y="444.3728"><tspan stroke-width=".75063" x="218.72978" y="444.3728">​</tspan></text><text font-family="Arial" font-style="italic" x="218.72978" y="444.3728"><tspan stroke-width=".75063" x="218.72978 221.17393 227.2924 235.23729 238.90082 241.345 247.46347 252.96419 259.08264" y="444.3728">low-level</tspan></text></g><text font-family="Gautami" stroke-width=".728218" transform="matrix(1 0 -.25000001 1 0 0)" x="372.62" y="444.3728"><tspan stroke-width=".728218" x="372.62" y="444.3728">​</tspan></text><g font-family="Arial" stroke-width=".75063"><text x="264.58331" y="444.3728"><tspan stroke-width=".75063" x="264.58331 267.63989 273.75833 279.8768 283.54037 289.65881" y="444.3728">there?</tspan></text><text x="74.7463" y="462.38791"><tspan stroke-width=".75063" x="74.7463 80.864761" y="462.38791">6.</tspan></text><text x="92.761414" y="462.38791"><tspan stroke-width=".75063" x="92.761414 101.31867 107.43713 110.49368 116.61214 119.66869 125.78716 128.23132 133.73203 139.85049 143.51405 146.57059 149.62714 155.12785 160.62856 166.74702 169.19118 175.30965 178.3662 182.02975 185.08629 188.74985 194.86832 204.03258 207.08914 213.2076 216.26414 221.76486 227.88332 231.54688 237.04758 240.10411 246.22258 248.66676 252.33029 255.38686 260.88757 263.94412 267.00064 273.11914 276.17566 282.29413 285.35068 290.85138 296.96985 300.63342 306.13412 309.19067 314.69138 317.13556 323.25403 329.37253 335.491 339.15454 342.21109 345.26764 351.38611 357.50458 365.44946 368.50601 372.16956 378.28802 380.73218 384.39572 387.4523 392.953 396.61655 399.67313 402.11731 407.61801 410.67453 413.11871 416.17526 419.23178 425.35025 431.46875 439.41364 445.5321 448.58862 451.64517 454.70169 457.75824 463.25894 469.37741 475.49588 478.55243 484.6709 490.78937 496.90787 499.96439 503.02094 509.1394" y="462.38791">On a Likert scale (from 1 very dirty to 5 very clean), how “dirty” is it now? If you had the</tspan></text><text x="92.761414" y="480.40302"><tspan stroke-width=".75063" x="92.761414 98.879883 104.99834 111.11681 117.23528 120.89883 123.95538 130.07384 136.19231 138.63646 141.69301 147.19373 150.25026 153.30681 159.42528 162.48183 166.14539 172.26384 177.76456 183.88301 190.00148 196.11993 199.17648 201.62064 204.6772 207.73375 210.79028 216.90877 223.02722 230.97208 234.02864 240.14708 242.59126 245.6478 248.70435 254.8228 258.48639 264.60483 270.7233 273.77985 276.8364 284.78125 290.89972 297.01819 299.46237 305.58084 308.63739 311.08154 314.13809 317.19461 323.31308 329.43158" y="480.40302">opportunity to recode it, how different would it be?</tspan></text><text x="74.7463" y="498.41812"><tspan stroke-width=".75063" x="74.7463 80.864761" y="498.41812">7.</tspan></text><text x="92.761414" y="498.41812"><tspan stroke-width=".75063" x="92.761414 100.70629 106.82475 114.76962 117.82617 123.94463 126.38879 132.50726 135.5638 141.06451 147.18298 153.30144 156.35799 158.80215 164.92061 171.03908 174.70264 180.82109 183.87764 186.93419 193.05266 199.17111 202.22766 205.28423 208.94775 215.06622 224.2305 230.34895 238.29384 244.41231 248.07584 253.57655 257.24014 262.74084 266.40439 272.52286 275.57938 279.24295 285.36142 288.41797 291.47452 293.91867 299.4194 301.86356 307.98203 310.42621 313.48276 319.60123 325.7197 331.2204 334.27695 337.33347 343.45197 349.57043 355.6889 361.18961 364.24615 367.30267 370.35922 376.47769 379.53421 385.65271 389.31622 391.76041 397.87888 400.32306 405.82376 408.88031 411.93683 417.43753 423.55603 429.6745 435.1752 438.23175 444.35022 450.46869 455.96939 459.02594 465.14441 468.20093 474.31943 479.82013 485.9386 495.10287 501.22137 503.66553 509.784 515.28473" y="498.41812">How did you learn the framework(s)? (official doc, book, tutorials, copy/paste examples)</tspan></text><text x="92.761414" y="516.43323"><tspan stroke-width=".75063" x="92.761414 100.70629 106.82475 114.76962 117.82617 126.99043 133.1089 138.6096 144.72807 147.78462 150.84116 153.28532 162.44958 168.56805 171.6246 177.74307 180.18723 186.30569 189.36224 194.86296 200.98141 207.09987 210.15642 216.27487 222.39334 228.51183 230.95598 236.45668 242.57513 245.63168 251.75014 254.8067 257.86325 263.98172 267.03827 269.48242 272.53897 278.65744 281.71399 289.65884 292.103 298.22147 301.27802 306.77872 312.89719 319.01566 322.0722 328.19067 334.30914 339.80984 345.92834 348.98486 352.04141 358.15988 361.2164 363.66058 369.77905 375.89752 379.5611 385.67953 388.73608 394.23679 400.35526 409.51956 415.63797 418.69452 424.81299 430.93146 437.04996 439.49411 442.55066 444.99481 451.11331 457.23178 463.35025 465.79443 468.85095 476.18878 483.52667 486.58322 489.63974 495.75821 501.25894 507.37741 511.04095 514.09747 517.15399 523.27246" y="516.43323">How much time did you dedicate to it? Did you have to learn some additional API over the</tspan></text><text x="92.761414" y="534.44836"><tspan stroke-width=".75063" x="92.761414 98.262123 104.38059 110.49905 114.16261 119.66332 125.78178 128.83833 134.95679 138.01334 141.06989 144.12643 150.24489 156.36336 159.41991 165.53836 169.20192 175.32039 177.76456 183.88301 189.38373 192.44028" y="534.44836">course of the project?</tspan></text><text x="74.7463" y="552.46344"><tspan stroke-width=".75063" x="74.7463 80.864761" y="552.46344">8.</tspan></text><text x="92.761414" y="552.46344"><tspan stroke-width=".75063" x="92.761414 103.14508 105.58924 108.64579 114.76425 117.82079 123.93926 126.38342 132.50189 138.62035 144.12106 146.56522 152.68369 158.80215 161.85869 164.91524 167.97179 175.91666 182.03513 188.15359 191.21013 194.26668 202.21156 208.33002 214.44847 216.89264 223.01111 226.06764 232.18613 238.30458 243.80528 249.92374 252.98029 259.09875 265.21722 267.66141 273.77985 279.89828 286.01678 289.0733 294.57401 300.6925 306.81097 309.86749 315.98599 322.10446 327.60516 330.66168 333.71823 336.77475 342.89325 345.94977 351.45047 357.56897 366.73322 372.85168 375.29584 381.41434 384.47086 390.58932 393.64587 396.70239 402.82089 408.93936 411.99588 418.11438 421.77795 427.89636 430.34055 436.45901 441.95975 445.01627 451.13474 454.19128 457.8548 463.9733 469.474 474.9747 477.41888 483.53735 489.65582 492.10001 498.21848 504.33694 507.39349 513.51196 519.63043" y="552.46344">With hindsight, what would have helped you best to complete the project? (excluding any</tspan></text><text x="92.761414" y="570.47858"><tspan stroke-width=".75063" x="92.761414 95.205582 97.649742 103.7682 107.43176 113.55022 117.21378 122.71449 125.77104 131.8895 138.00797 144.12643 150.24489 153.30144 159.41991 162.47646 165.53299 171.65146 175.31502 178.97858 182.03513 189.37299 192.42952 198.54797 204.66646 207.72299 210.77954 216.89799 220.56158 223.61812 226.67465 230.33823 236.45668 245.62094 251.73943 259.6843 265.80273 269.46631 274.96701 281.08548 284.14203 291.47986 294.53641 300.65488 306.77335 309.8299 312.88641 319.00491 322.66846 325.72501 328.78156 334.90002 337.95654 344.07504 347.73859 350.18274 356.30121 358.74539" y="570.47858">library done after) A better framework? A better tutorial?</tspan></text><text x="74.7463" y="588.49371"><tspan stroke-width=".75063" x="74.7463 80.864761" y="588.49371">9.</tspan></text><text x="92.761414" y="588.49371"><tspan stroke-width=".75063" x="92.761414 100.70629 106.82475 114.76962 117.82617 120.27033 123.32687 126.38342 131.88412 138.00259 144.12106 147.17761 155.12248 161.24094 164.9045 171.02295 174.07951 177.13606 183.25452 186.31107 192.42952 198.54797 204.66646 207.72299 210.77954 216.89799 219.34218 224.84288 227.89941 233.40012 239.5186 245.63707 251.75552 254.81209 257.86862 263.98709 267.04364 273.16211 279.28055 285.39902 288.45554 294.57401 297.63055 300.68707 303.74362 309.86209 315.98056 319.03711 321.48129 323.92545 330.04391 333.70749 339.82593 343.4895 345.93365 352.05212 357.55283 360.60938 366.11008 372.22855 378.34702 381.40356 387.52203 393.02274 399.1412 405.2597 408.31622 411.37277 419.31766 425.43613 427.88028 433.38101 439.49948 442.556 448.6745 454.79297 460.91144 463.96799 471.91284 478.03134 484.14981 486.59396 492.71246 495.76898 498.21317 501.26968 504.32623 510.4447 516.56317" y="588.49371">Now if you were to add this code to one of the libraries you used, which one would it be?</tspan></text><text x="92.761414" y="606.50879"><tspan stroke-width=".75063" x="92.761414 96.424973 102.54344 104.9876 111.10606 117.22453 123.34299 127.00655 130.0631 132.50726 138.62572 146.57059 152.68906 156.35262 159.40916 161.85332 167.97179 173.47249 179.59096 182.03513 185.09167 188.14821 194.26668 200.38515 208.33002 211.38657 213.83072 216.27487 222.39334 226.0569 232.17535 235.83894 241.33965 245.00317 248.05974 258.44342 264.56186 270.06256" y="606.50879">(higher/lower level, new library) Why?</tspan></text><text x="74.7463" y="624.52393"><tspan stroke-width=".75063" x="74.7463 80.864761 86.983231" y="624.52393">10.</tspan></text><text x="92.761414" y="624.52393"><tspan stroke-width=".75063" x="92.761414 100.70629 106.82475 114.76962 117.82617 123.94463 130.0631 133.11964 138.62035 144.73882 150.85728 153.91382 156.97037 163.08884 165.53299 171.65146 177.15218 180.20871 183.26526 189.38373 195.50218 198.55875 201.61528 205.27884 211.39729 220.56158 226.68004 234.62489 240.74336 244.40692 249.90764 253.57118 259.0719 262.73544 265.79202 271.29272 277.41116 283.52963 289.6481 292.09229 298.21075 301.26727 307.38577 313.50424 319.00494 325.12341 328.17996 334.29843 340.4169 346.53537 352.65387 355.71039 361.82886 367.94733 373.44806 375.89221 382.01071 388.12918 394.24765 400.36612 403.42267 406.47919 412.59766 415.65421 421.77267 427.89114 433.39185 436.44839 439.50494 445.00565 451.12411 453.5683 456.62482 459.68137 465.18207 471.30054 477.41901 481.08255 484.1391 490.25757 496.37604 502.49451 508.61298" y="624.52393">How do you think the framework(s) should have been designed to best suit your need?</tspan></text><text x="92.761414" y="642.53906"><tspan stroke-width=".75063" x="92.761414 96.424973 105.58924 111.7077 117.20841 120.26496 126.38342 132.50189 138.00259 145.94746 152.06593 155.72949 158.78603 166.73091 172.84937 178.96783 184.46854 189.96925 193.02579 195.46996 201.58842 204.64497 210.76344 214.42697" y="642.53906">(may answer weeks later)</tspan></text><text x="74.7463" y="660.55414"><tspan stroke-width=".75063" x="74.7463 80.864761 86.983231" y="660.55414">11.</tspan></text><text x="92.761414" y="660.55414"><tspan stroke-width=".75063" x="92.761414 95.817963 103.76283 109.88129 112.93784 118.43855 124.55701 130.67548 133.73203 139.85049 145.96895 151.46967 157.58812 160.64467 166.76314 172.88159 178.38231 181.43886 187.55731 193.05803 199.17648 205.29494 210.79565 213.8522 219.97066 223.02722 225.47137 231.58984 237.70831 243.20903 246.26556 252.38403 258.5025 264.62094 270.73941 273.79596 276.85251 286.01678 291.51749 294.57401 302.51889 308.63739 312.30093 317.80164 323.9201 326.97662 330.03317" y="660.55414">[Do you have any expectations about my work? :]</tspan></text></g></g><g font-family="Arial" stroke-width=".75063"><text font-size="20.011787" x="56.731186" y="707.0932"><tspan stroke-width=".75063" x="56.731186 68.953468 73.398819 84.526855 95.654892 100.10024 105.65938 120.10922 131.23726 137.90041 149.02844" y="707.0932">Final words</tspan></text><g font-size="11.004231"><text x="56.731186" y="731.86395"><tspan stroke-width=".75063" x="56.731186 63.45129 69.569756 75.688217 81.806679 87.307388 90.363937 95.864647 101.98311 108.10157 111.15812 114.21466 120.33313 123.99669 127.05323 132.55394 138.67241 144.79086 148.45442 151.51097 154.56752 157.01167 166.17595 172.2944" y="731.86395">Thank you for your time!</tspan></text><text x="56.731186" y="746.87659"><tspan stroke-width=".75063" x="56.731186 59.787731 62.84428 68.344986 74.463448 80.581917 83.638458 89.139168 95.257629 101.3761 107.49456 110.55111 116.05181 122.17028 128.28874 131.34529 134.40184 140.52029 146.63876 149.69531 153.35887 159.47733 164.97804 171.0965 173.54066 176.59721 182.09792 185.15446 191.27293 194.32948 197.38602 200.44255 206.56104 209.0052 214.50591 217.56245 223.06316 226.11969 232.23816 238.35664 243.85735 246.91388 249.35806 255.47653 258.53308 264.65155 268.31509 271.37164 273.81583 276.87238 279.92889 285.4296 291.5481 297.66656 300.72308 308.66797 314.78644 320.90494 323.96146 327.01801 330.07452 337.41238 339.85654 345.35724 351.47574 354.53226 357.58881 360.03296 363.08951 366.14603 374.09091 380.20938 386.32788 388.77203 394.8905 397.94705 404.06552 410.18399 413.24054 419.35901 421.80319 427.30389 433.42236 436.47891 438.92307 441.97961 445.03613 452.98102 459.09952 462.15604 467.65674 473.77521 479.89371 482.95023 488.45093 493.95166 500.07013 506.1886 512.30707 518.42554 520.86975 526.98822 530.04474" y="746.87659">I can send you the results of this study later if you want. Also, it would be nice if we can schedule a</tspan></text><text x="56.731186" y="761.88916"><tspan stroke-width=".75063" x="56.731186 62.231895 68.350357 74.468826 78.132378 81.188927 84.245476 93.409737 99.528206 105.64667 108.70321 111.14738 117.26584 123.3843 126.44085 128.88501 135.00348 138.06001 144.17848 150.29695 156.41541 162.53387 165.59042 168.64697 171.70351 179.64839 185.76685 188.82339 196.76825 202.88673 209.0052 214.50591 220.00662 223.06316 226.11969 228.56386 234.68234 237.73888 243.23958 249.35806 254.85876 260.97723 264.03378 269.53448 275.65295 281.77142 284.82797 290.94644 297.06491 302.56561 308.68411 311.74063 317.24133 323.35983 332.52408 338.64255 341.69907 350.86334 356.98178 360.64536 366.76379 369.82034 372.87686 378.99536 385.11383 391.2323 397.35077 403.46924 408.96997 414.47067 417.52719 420.58374 426.70221 430.36575 433.42233 436.47885 442.59732 445.0415 450.54221 453.59875 459.09946 462.15601 468.27448 474.39294 479.89365" y="761.88916">short meeting in about two weeks, in case you have some more feedback for this study.</tspan></text></g></g></g></svg>