<?xml version="1.0" standalone="no"?>
<svg width="640" height="280" xmlns="http://www.w3.org/2000/svg"><g><g fill="#f7fbff"><rect x="325" y="21.984732824427482" width="NaN" height="17.862595419847327"></rect><rect x="325" y="41.83206106870229" width="NaN" height="17.862595419847327"></rect><rect x="325" y="61.6793893129771" width="NaN" height="17.862595419847327"></rect><rect x="325" y="81.52671755725191" width="NaN" height="17.862595419847327"></rect><rect x="325" y="101.37404580152672" width="NaN" height="17.862595419847327"></rect><rect x="325" y="121.22137404580153" width="NaN" height="17.862595419847327"></rect><rect x="325" y="141.06870229007635" width="NaN" height="17.862595419847327"></rect><rect x="325" y="160.91603053435114" width="NaN" height="17.862595419847327"></rect><rect x="325" y="180.76335877862596" width="NaN" height="17.862595419847327"></rect><rect x="325" y="200.61068702290078" width="NaN" height="17.862595419847327"></rect><rect x="325" y="220.45801526717557" width="NaN" height="17.862595419847327"></rect><rect x="325" y="240.3053435114504" width="NaN" height="17.862595419847327"></rect><rect x="325" y="260.15267175572524" width="NaN" height="17.862595419847327"></rect></g><g fill="#deebf7"><rect x="325" y="21.984732824427482" width="14.736842105263179" height="17.862595419847327"></rect><rect x="325" y="41.83206106870229" width="24.347826086956502" height="17.862595419847327"></rect><rect x="325" y="61.6793893129771" width="10.769230769230774" height="17.862595419847327"></rect><rect x="325" y="81.52671755725191" width="70" height="17.862595419847327"></rect><rect x="325" y="101.37404580152672" width="10.370370370370381" height="17.862595419847327"></rect><rect x="325" y="121.22137404580153" width="26.666666666666686" height="17.862595419847327"></rect><rect x="325" y="141.06870229007635" width="49.411764705882376" height="17.862595419847327"></rect><rect x="325" y="160.91603053435114" width="14.736842105263179" height="17.862595419847327"></rect><rect x="325" y="180.76335877862596" width="36.52173913043475" height="17.862595419847327"></rect><rect x="325" y="200.61068702290078" width="18.666666666666686" height="17.862595419847327"></rect><rect x="325" y="220.45801526717557" width="41.48148148148147" height="17.862595419847327"></rect><rect x="325" y="240.3053435114504" width="64.61538461538464" height="17.862595419847327"></rect><rect x="325" y="260.15267175572524" width="80" height="17.862595419847327"></rect></g><g fill="#c6dbef"><rect x="339.7368421052632" y="21.984732824427482" width="58.9473684210526" height="17.862595419847327"></rect><rect x="349.3478260869565" y="41.83206106870229" width="60.86956521739131" height="17.862595419847327"></rect><rect x="335.7692307692308" y="61.6793893129771" width="75.38461538461542" height="17.862595419847327"></rect><rect x="395" y="81.52671755725191" width="17.5" height="17.862595419847327"></rect><rect x="335.3703703703704" y="101.37404580152672" width="82.96296296296293" height="17.862595419847327"></rect><rect x="351.6666666666667" y="121.22137404580153" width="66.66666666666663" height="17.862595419847327"></rect><rect x="374.4117647058824" y="141.06870229007635" width="49.41176470588232" height="17.862595419847327"></rect><rect x="339.7368421052632" y="160.91603053435114" width="88.4210526315789" height="17.862595419847327"></rect><rect x="361.52173913043475" y="180.76335877862596" width="85.21739130434787" height="17.862595419847327"></rect><rect x="343.6666666666667" y="200.61068702290078" width="111.99999999999994" height="17.862595419847327"></rect><rect x="366.48148148148147" y="220.45801526717557" width="93.33333333333331" height="17.862595419847327"></rect><rect x="389.61538461538464" y="240.3053435114504" width="86.15384615384619" height="17.862595419847327"></rect><rect x="405" y="260.15267175572524" width="80" height="17.862595419847327"></rect></g><g fill="#9ecae1"><rect x="398.6842105263158" y="21.984732824427482" width="103.15789473684214" height="17.862595419847327"></rect><rect x="410.2173913043478" y="41.83206106870229" width="97.39130434782606" height="17.862595419847327"></rect><rect x="411.1538461538462" y="61.6793893129771" width="107.69230769230762" height="17.862595419847327"></rect><rect x="412.5" y="81.52671755725191" width="105" height="17.862595419847327"></rect><rect x="418.3333333333333" y="101.37404580152672" width="93.33333333333331" height="17.862595419847327"></rect><rect x="418.3333333333333" y="121.22137404580153" width="146.66666666666669" height="17.862595419847327"></rect><rect x="423.8235294117647" y="141.06870229007635" width="82.35294117647061" height="17.862595419847327"></rect><rect x="428.1578947368421" y="160.91603053435114" width="88.42105263157896" height="17.862595419847327"></rect><rect x="446.7391304347826" y="180.76335877862596" width="73.0434782608695" height="17.862595419847327"></rect><rect x="455.66666666666663" y="200.61068702290078" width="56.00000000000006" height="17.862595419847327"></rect><rect x="459.8148148148148" y="220.45801526717557" width="93.33333333333337" height="17.862595419847327"></rect><rect x="475.76923076923083" y="240.3053435114504" width="64.61538461538464" height="17.862595419847327"></rect><rect x="485" y="260.15267175572524" width="80" height="17.862595419847327"></rect></g><g fill="#6baed6"><rect x="501.8421052631579" y="21.984732824427482" width="73.68421052631572" height="17.862595419847327"></rect><rect x="507.6086956521739" y="41.83206106870229" width="85.21739130434787" height="17.862595419847327"></rect><rect x="518.8461538461538" y="61.6793893129771" width="53.84615384615381" height="17.862595419847327"></rect><rect x="517.5" y="81.52671755725191" width="52.5" height="17.862595419847327"></rect><rect x="511.66666666666663" y="101.37404580152672" width="72.59259259259261" height="17.862595419847327"></rect><rect x="565" y="121.22137404580153" width="40" height="17.862595419847327"></rect><rect x="506.1764705882353" y="141.06870229007635" width="65.8823529411764" height="17.862595419847327"></rect><rect x="516.578947368421" y="160.91603053435114" width="73.68421052631584" height="17.862595419847327"></rect><rect x="519.7826086956521" y="180.76335877862596" width="48.69565217391312" height="17.862595419847327"></rect><rect x="511.6666666666667" y="200.61068702290078" width="56.00000000000006" height="17.862595419847327"></rect><rect x="553.1481481481482" y="220.45801526717557" width="41.48148148148141" height="17.862595419847327"></rect><rect x="540.3846153846155" y="240.3053435114504" width="43.076923076923094" height="17.862595419847327"></rect><rect x="565" y="260.15267175572524" width="40" height="17.862595419847327"></rect></g><g fill="#4292c6"><rect x="575.5263157894736" y="21.984732824427482" width="29.473684210526358" height="17.862595419847327"></rect><rect x="592.8260869565217" y="41.83206106870229" width="12.173913043478251" height="17.862595419847327"></rect><rect x="572.6923076923076" y="61.6793893129771" width="32.30769230769238" height="17.862595419847327"></rect><rect x="570" y="81.52671755725191" width="35" height="17.862595419847327"></rect><rect x="584.2592592592592" y="101.37404580152672" width="20.740740740740762" height="17.862595419847327"></rect><rect x="605" y="121.22137404580153" width="0" height="17.862595419847327"></rect><rect x="572.0588235294117" y="141.06870229007635" width="32.94117647058829" height="17.862595419847327"></rect><rect x="590.2631578947369" y="160.91603053435114" width="14.736842105263122" height="17.862595419847327"></rect><rect x="568.4782608695652" y="180.76335877862596" width="36.52173913043475" height="17.862595419847327"></rect><rect x="567.6666666666667" y="200.61068702290078" width="37.33333333333326" height="17.862595419847327"></rect><rect x="594.6296296296296" y="220.45801526717557" width="10.370370370370438" height="17.862595419847327"></rect><rect x="583.4615384615386" y="240.3053435114504" width="21.538461538461434" height="17.862595419847327"></rect><rect x="605" y="260.15267175572524" width="0" height="17.862595419847327"></rect></g></g><g stroke="salmon"><line x1="398.6842105263158" y1="21.984732824427482" x2="398.6842105263158" y2="39.847328244274806"></line><line x1="410.2173913043478" y1="41.83206106870229" x2="410.2173913043478" y2="59.69465648854961"></line><line x1="411.1538461538462" y1="61.6793893129771" x2="411.1538461538462" y2="79.54198473282443"></line><line x1="412.5" y1="81.52671755725191" x2="412.5" y2="99.38931297709924"></line><line x1="418.3333333333333" y1="101.37404580152672" x2="418.3333333333333" y2="119.23664122137404"></line><line x1="418.3333333333333" y1="121.22137404580153" x2="418.3333333333333" y2="139.08396946564886"></line><line x1="423.8235294117647" y1="141.06870229007635" x2="423.8235294117647" y2="158.93129770992368"></line><line x1="428.1578947368421" y1="160.91603053435114" x2="428.1578947368421" y2="178.77862595419847"></line><line x1="446.7391304347826" y1="180.76335877862596" x2="446.7391304347826" y2="198.6259541984733"></line><line x1="455.66666666666663" y1="200.61068702290078" x2="455.66666666666663" y2="218.47328244274811"></line><line x1="459.8148148148148" y1="220.45801526717557" x2="459.8148148148148" y2="238.3206106870229"></line><line x1="475.76923076923083" y1="240.3053435114504" x2="475.76923076923083" y2="258.1679389312977"></line><line x1="485" y1="260.15267175572524" x2="485" y2="278.01526717557255"></line></g><g stroke="black"><line x1="354.4736842105263" y1="26.450381679389313" x2="354.4736842105263" y2="35.38167938931298"></line><line x1="361.52173913043475" y1="46.29770992366412" x2="361.52173913043475" y2="55.229007633587784"></line><line x1="368.0769230769231" y1="66.14503816793894" x2="368.0769230769231" y2="75.07633587786259"></line><line x1="360" y1="85.99236641221374" x2="360" y2="94.92366412213741"></line><line x1="366.48148148148147" y1="105.83969465648855" x2="366.48148148148147" y2="114.77099236641222"></line><line x1="365" y1="125.68702290076335" x2="365" y2="134.61832061068702"></line><line x1="357.94117647058823" y1="145.5343511450382" x2="357.94117647058823" y2="154.46564885496184"></line><line x1="369.2105263157895" y1="165.38167938931298" x2="369.2105263157895" y2="174.31297709923663"></line><line x1="398.04347826086956" y1="185.2290076335878" x2="398.04347826086956" y2="194.16030534351145"></line><line x1="399.6666666666667" y1="205.07633587786262" x2="399.6666666666667" y2="214.00763358778627"></line><line x1="407.96296296296293" y1="224.9236641221374" x2="407.96296296296293" y2="233.85496183206106"></line><line x1="421.9230769230769" y1="244.77099236641223" x2="421.9230769230769" y2="253.70229007633588"></line><line x1="418.3333333333333" y1="264.6183206106871" x2="418.3333333333333" y2="273.54961832061076"></line></g><g stroke="black"><line x1="354.4736842105263" y1="30.916030534351144" x2="457.63157894736844" y2="30.916030534351144"></line><line x1="361.52173913043475" y1="50.76335877862595" x2="458.9130434782609" y2="50.76335877862595"></line><line x1="368.0769230769231" y1="70.61068702290076" x2="465" y2="70.61068702290076"></line><line x1="360" y1="90.45801526717558" x2="482.5" y2="90.45801526717558"></line><line x1="366.48148148148147" y1="110.30534351145039" x2="470.1851851851852" y2="110.30534351145039"></line><line x1="365" y1="130.15267175572518" x2="471.6666666666667" y2="130.15267175572518"></line><line x1="357.94117647058823" y1="150" x2="489.7058823529412" y2="150"></line><line x1="369.2105263157895" y1="169.8473282442748" x2="487.10526315789474" y2="169.8473282442748"></line><line x1="398.04347826086956" y1="189.6946564885496" x2="495.4347826086956" y2="189.6946564885496"></line><line x1="399.6666666666667" y1="209.54198473282443" x2="511.66666666666663" y2="209.54198473282443"></line><line x1="407.96296296296293" y1="229.38931297709922" x2="511.66666666666663" y2="229.38931297709922"></line><line x1="421.9230769230769" y1="249.23664122137404" x2="529.6153846153846" y2="249.23664122137404"></line><line x1="418.3333333333333" y1="269.0839694656489" x2="538.3333333333333" y2="269.0839694656489"></line></g><g stroke="black"><line x1="457.63157894736844" y1="26.450381679389313" x2="457.63157894736844" y2="35.38167938931298"></line><line x1="458.9130434782609" y1="46.29770992366412" x2="458.9130434782609" y2="55.229007633587784"></line><line x1="465" y1="66.14503816793894" x2="465" y2="75.07633587786259"></line><line x1="482.5" y1="85.99236641221374" x2="482.5" y2="94.92366412213741"></line><line x1="470.1851851851852" y1="105.83969465648855" x2="470.1851851851852" y2="114.77099236641222"></line><line x1="471.6666666666667" y1="125.68702290076335" x2="471.6666666666667" y2="134.61832061068702"></line><line x1="489.7058823529412" y1="145.5343511450382" x2="489.7058823529412" y2="154.46564885496184"></line><line x1="487.10526315789474" y1="165.38167938931298" x2="487.10526315789474" y2="174.31297709923663"></line><line x1="495.4347826086956" y1="185.2290076335878" x2="495.4347826086956" y2="194.16030534351145"></line><line x1="511.66666666666663" y1="205.07633587786262" x2="511.66666666666663" y2="214.00763358778627"></line><line x1="511.66666666666663" y1="224.9236641221374" x2="511.66666666666663" y2="233.85496183206106"></line><line x1="529.6153846153846" y1="244.77099236641223" x2="529.6153846153846" y2="253.70229007633588"></line><line x1="538.3333333333333" y1="264.6183206106871" x2="538.3333333333333" y2="273.54961832061076"></line></g><g transform="translate(0,20)" fill="none" font-size="10" font-family="sans-serif" text-anchor="middle"><g class="tick" opacity="1" transform="translate(325.5,0)"><line stroke="currentColor" y2="-6"></line><text fill="currentColor" y="-9" dy="0em">0%</text></g><g class="tick" opacity="1" transform="translate(395.5,0)"><line stroke="currentColor" y2="-6"></line><text fill="currentColor" y="-9" dy="0em">25%</text></g><g class="tick" opacity="1" transform="translate(465.5,0)"><line stroke="currentColor" y2="-6"></line><text fill="currentColor" y="-9" dy="0em">50%</text></g><g class="tick" opacity="1" transform="translate(535.5,0)"><line stroke="currentColor" y2="-6"></line><text fill="currentColor" y="-9" dy="0em">75%</text></g><g class="tick" opacity="1" transform="translate(605.5,0)"><line stroke="currentColor" y2="-6"></line><text fill="currentColor" y="-9" dy="0em">100%</text></g></g><g transform="translate(325,0)" fill="none" font-size="10" font-family="sans-serif" text-anchor="end"><g class="tick" opacity="1" transform="translate(0,30.916030534351144)"><line stroke="currentColor" x2="-6"></line><text fill="currentColor" x="-9" dy="0.32em">Buggy implementation</text></g><g class="tick" opacity="1" transform="translate(0,50.76335877862595)"><line stroke="currentColor" x2="-6"></line><text fill="currentColor" x="-9" dy="0.32em">Inconsistent behavior across versions/systems</text></g><g class="tick" opacity="1" transform="translate(0,70.61068702290076)"><line stroke="currentColor" x2="-6"></line><text fill="currentColor" x="-9" dy="0.32em">Significant effect/behavior being undocumented</text></g><g class="tick" opacity="1" transform="translate(0,90.45801526717558)"><line stroke="currentColor" x2="-6"></line><text fill="currentColor" x="-9" dy="0.32em">Non-deterministic behavior</text></g><g class="tick" opacity="1" transform="translate(0,110.30534351145039)"><line stroke="currentColor" x2="-6"></line><text fill="currentColor" x="-9" dy="0.32em">Documentation lacking context and examples</text></g><g class="tick" opacity="1" transform="translate(0,130.15267175572518)"><line stroke="currentColor" x2="-6"></line><text fill="currentColor" x="-9" dy="0.32em">Problems scaling up (in speed/precision/frequency)</text></g><g class="tick" opacity="1" transform="translate(0,150)"><line stroke="currentColor" x2="-6"></line><text fill="currentColor" x="-9" dy="0.32em">Forbidden access to functions and data</text></g><g class="tick" opacity="1" transform="translate(0,169.8473282442748)"><line stroke="currentColor" x2="-6"></line><text fill="currentColor" x="-9" dy="0.32em">Bad compatibility between two libraries</text></g><g class="tick" opacity="1" transform="translate(0,189.6946564885496)"><line stroke="currentColor" x2="-6"></line><text fill="currentColor" x="-9" dy="0.32em">API too complex to use/understand</text></g><g class="tick" opacity="1" transform="translate(0,209.54198473282443)"><line stroke="currentColor" x2="-6"></line><text fill="currentColor" x="-9" dy="0.32em">Inadequate paradigm for this particular context</text></g><g class="tick" opacity="1" transform="translate(0,229.38931297709922)"><line stroke="currentColor" x2="-6"></line><text fill="currentColor" x="-9" dy="0.32em">Documentation requiring too much investment</text></g><g class="tick" opacity="1" transform="translate(0,249.23664122137404)"><line stroke="currentColor" x2="-6"></line><text fill="currentColor" x="-9" dy="0.32em">Lack of a functionality that would require pulling another library</text></g><g class="tick" opacity="1" transform="translate(0,269.0839694656489)"><line stroke="currentColor" x2="-6"></line><text fill="currentColor" x="-9" dy="0.32em">Lack of configurability in API</text></g></g></svg>