<?xml version="1.0" standalone="no"?>
<svg width="640" height="366" xmlns="http://www.w3.org/2000/svg"><g><g fill="#f7fbff"><rect x="325" y="22.183206106870216" width="43.75" height="13.754198473282441"></rect><rect x="325" y="44.015267175572504" width="52.5" height="13.754198473282441"></rect><rect x="325" y="65.84732824427479" width="78.75" height="13.754198473282441"></rect><rect x="325" y="87.6793893129771" width="113.75" height="13.754198473282441"></rect><rect x="325" y="109.51145038167938" width="43.75" height="13.754198473282441"></rect><rect x="325" y="131.34351145038167" width="96.25" height="13.754198473282441"></rect><rect x="325" y="153.17557251908397" width="78.75" height="13.754198473282441"></rect><rect x="325" y="175.00763358778624" width="52.5" height="13.754198473282441"></rect><rect x="325" y="196.83969465648855" width="113.75" height="13.754198473282441"></rect><rect x="325" y="218.67175572519085" width="131.25" height="13.754198473282441"></rect><rect x="325" y="240.50381679389312" width="140" height="13.754198473282441"></rect><rect x="325" y="262.33587786259545" width="96.25" height="13.754198473282441"></rect><rect x="325" y="284.1679389312977" width="148.75" height="13.754198473282441"></rect></g><g fill="#deebf7"><rect x="368.75" y="22.183206106870216" width="8.75" height="13.754198473282441"></rect><rect x="377.5" y="44.015267175572504" width="8.75" height="13.754198473282441"></rect><rect x="403.75" y="65.84732824427479" width="17.5" height="13.754198473282441"></rect><rect x="438.75" y="87.6793893129771" width="8.75" height="13.754198473282441"></rect><rect x="368.75" y="109.51145038167938" width="35" height="13.754198473282441"></rect><rect x="421.25" y="131.34351145038167" width="17.5" height="13.754198473282441"></rect><rect x="403.75" y="153.17557251908397" width="26.25" height="13.754198473282441"></rect><rect x="377.5" y="175.00763358778624" width="52.5" height="13.754198473282441"></rect><rect x="438.75" y="196.83969465648855" width="8.75" height="13.754198473282441"></rect><rect x="456.25" y="218.67175572519085" width="26.25" height="13.754198473282441"></rect><rect x="465" y="240.50381679389312" width="35" height="13.754198473282441"></rect><rect x="421.25" y="262.33587786259545" width="52.5" height="13.754198473282441"></rect><rect x="473.75" y="284.1679389312977" width="8.75" height="13.754198473282441"></rect></g><g fill="#c6dbef"><rect x="377.5" y="22.183206106870216" width="70" height="13.754198473282441"></rect><rect x="386.25" y="44.015267175572504" width="61.25" height="13.754198473282441"></rect><rect x="421.25" y="65.84732824427479" width="43.75" height="13.754198473282441"></rect><rect x="447.5" y="87.6793893129771" width="35" height="13.754198473282441"></rect><rect x="403.75" y="109.51145038167938" width="78.75" height="13.754198473282441"></rect><rect x="438.75" y="131.34351145038167" width="43.75" height="13.754198473282441"></rect><rect x="430" y="153.17557251908397" width="61.25" height="13.754198473282441"></rect><rect x="430" y="175.00763358778624" width="70" height="13.754198473282441"></rect><rect x="447.5" y="196.83969465648855" width="52.5" height="13.754198473282441"></rect><rect x="482.5" y="218.67175572519085" width="26.25" height="13.754198473282441"></rect><rect x="500" y="240.50381679389312" width="8.75" height="13.754198473282441"></rect><rect x="473.75" y="262.33587786259545" width="52.5" height="13.754198473282441"></rect><rect x="482.5" y="284.1679389312977" width="52.5" height="13.754198473282441"></rect></g><g fill="#9ecae1"><rect x="447.5" y="22.183206106870216" width="78.75" height="13.754198473282441"></rect><rect x="447.5" y="44.015267175572504" width="87.5" height="13.754198473282441"></rect><rect x="465" y="65.84732824427479" width="70" height="13.754198473282441"></rect><rect x="482.5" y="87.6793893129771" width="61.25" height="13.754198473282441"></rect><rect x="482.5" y="109.51145038167938" width="78.75" height="13.754198473282441"></rect><rect x="482.5" y="131.34351145038167" width="96.25" height="13.754198473282441"></rect><rect x="491.25" y="153.17557251908397" width="52.5" height="13.754198473282441"></rect><rect x="500" y="175.00763358778624" width="52.5" height="13.754198473282441"></rect><rect x="500" y="196.83969465648855" width="52.5" height="13.754198473282441"></rect><rect x="508.75" y="218.67175572519085" width="43.75" height="13.754198473282441"></rect><rect x="508.75" y="240.50381679389312" width="52.5" height="13.754198473282441"></rect><rect x="526.25" y="262.33587786259545" width="52.5" height="13.754198473282441"></rect><rect x="535" y="284.1679389312977" width="26.25" height="13.754198473282441"></rect></g><g fill="#6baed6"><rect x="526.25" y="22.183206106870216" width="61.25" height="13.754198473282441"></rect><rect x="535" y="44.015267175572504" width="43.75" height="13.754198473282441"></rect><rect x="535" y="65.84732824427479" width="61.25" height="13.754198473282441"></rect><rect x="543.75" y="87.6793893129771" width="43.75" height="13.754198473282441"></rect><rect x="561.25" y="109.51145038167938" width="35" height="13.754198473282441"></rect><rect x="578.75" y="131.34351145038167" width="26.25" height="13.754198473282441"></rect><rect x="543.75" y="153.17557251908397" width="35" height="13.754198473282441"></rect><rect x="552.5" y="175.00763358778624" width="35" height="13.754198473282441"></rect><rect x="552.5" y="196.83969465648855" width="43.75" height="13.754198473282441"></rect><rect x="552.5" y="218.67175572519085" width="35" height="13.754198473282441"></rect><rect x="561.25" y="240.50381679389312" width="26.25" height="13.754198473282441"></rect><rect x="578.75" y="262.33587786259545" width="26.25" height="13.754198473282441"></rect><rect x="561.25" y="284.1679389312977" width="26.25" height="13.754198473282441"></rect></g><g fill="#4292c6"><rect x="587.5" y="22.183206106870216" width="17.5" height="13.754198473282441"></rect><rect x="578.75" y="44.015267175572504" width="26.25" height="13.754198473282441"></rect><rect x="596.25" y="65.84732824427479" width="8.75" height="13.754198473282441"></rect><rect x="587.5" y="87.6793893129771" width="17.5" height="13.754198473282441"></rect><rect x="596.25" y="109.51145038167938" width="8.75" height="13.754198473282441"></rect><rect x="605" y="131.34351145038167" width="0" height="13.754198473282441"></rect><rect x="578.75" y="153.17557251908397" width="26.25" height="13.754198473282441"></rect><rect x="587.5" y="175.00763358778624" width="17.5" height="13.754198473282441"></rect><rect x="596.25" y="196.83969465648855" width="8.75" height="13.754198473282441"></rect><rect x="587.5" y="218.67175572519085" width="17.5" height="13.754198473282441"></rect><rect x="587.5" y="240.50381679389312" width="17.5" height="13.754198473282441"></rect><rect x="605" y="262.33587786259545" width="0" height="13.754198473282441"></rect><rect x="587.5" y="284.1679389312977" width="17.5" height="13.754198473282441"></rect></g></g><g><g fill="#f7fbff"><rect x="325" y="37.902290076335866" width="28" height="3.9297709923664126"></rect><rect x="325" y="59.734351145038154" width="28" height="3.9297709923664126"></rect><rect x="325" y="81.56641221374045" width="56" height="3.9297709923664126"></rect><rect x="325" y="103.39847328244275" width="112" height="3.9297709923664126"></rect><rect x="325" y="125.23053435114502" width="56" height="3.9297709923664126"></rect><rect x="325" y="147.06259541984733" width="98" height="3.9297709923664126"></rect><rect x="325" y="168.89465648854963" width="98" height="3.9297709923664126"></rect><rect x="325" y="190.7267175572519" width="42" height="3.9297709923664126"></rect><rect x="325" y="212.5587786259542" width="98" height="3.9297709923664126"></rect><rect x="325" y="234.3908396946565" width="140" height="3.9297709923664126"></rect><rect x="325" y="256.2229007633588" width="168" height="3.9297709923664126"></rect><rect x="325" y="278.0549618320611" width="70" height="3.9297709923664126"></rect><rect x="325" y="299.8870229007634" width="154" height="3.9297709923664126"></rect></g><g fill="#deebf7"><rect x="353" y="37.902290076335866" width="14" height="3.9297709923664126"></rect><rect x="353" y="59.734351145038154" width="14" height="3.9297709923664126"></rect><rect x="381" y="81.56641221374045" width="0" height="3.9297709923664126"></rect><rect x="437" y="103.39847328244275" width="0" height="3.9297709923664126"></rect><rect x="381" y="125.23053435114502" width="42" height="3.9297709923664126"></rect><rect x="423" y="147.06259541984733" width="14" height="3.9297709923664126"></rect><rect x="423" y="168.89465648854963" width="28" height="3.9297709923664126"></rect><rect x="367" y="190.7267175572519" width="70" height="3.9297709923664126"></rect><rect x="423" y="212.5587786259542" width="0" height="3.9297709923664126"></rect><rect x="465" y="234.3908396946565" width="28" height="3.9297709923664126"></rect><rect x="493" y="256.2229007633588" width="0" height="3.9297709923664126"></rect><rect x="395" y="278.0549618320611" width="70" height="3.9297709923664126"></rect><rect x="479" y="299.8870229007634" width="14" height="3.9297709923664126"></rect></g><g fill="#c6dbef"><rect x="367" y="37.902290076335866" width="112" height="3.9297709923664126"></rect><rect x="367" y="59.734351145038154" width="56" height="3.9297709923664126"></rect><rect x="381" y="81.56641221374045" width="56" height="3.9297709923664126"></rect><rect x="437" y="103.39847328244275" width="42" height="3.9297709923664126"></rect><rect x="423" y="125.23053435114502" width="70" height="3.9297709923664126"></rect><rect x="437" y="147.06259541984733" width="56" height="3.9297709923664126"></rect><rect x="451" y="168.89465648854963" width="70" height="3.9297709923664126"></rect><rect x="437" y="190.7267175572519" width="84" height="3.9297709923664126"></rect><rect x="423" y="212.5587786259542" width="84" height="3.9297709923664126"></rect><rect x="493" y="234.3908396946565" width="42" height="3.9297709923664126"></rect><rect x="493" y="256.2229007633588" width="14" height="3.9297709923664126"></rect><rect x="465" y="278.0549618320611" width="70" height="3.9297709923664126"></rect><rect x="493" y="299.8870229007634" width="56" height="3.9297709923664126"></rect></g><g fill="#9ecae1"><rect x="479" y="37.902290076335866" width="70" height="3.9297709923664126"></rect><rect x="423" y="59.734351145038154" width="126" height="3.9297709923664126"></rect><rect x="437" y="81.56641221374045" width="112" height="3.9297709923664126"></rect><rect x="479" y="103.39847328244275" width="70" height="3.9297709923664126"></rect><rect x="493" y="125.23053435114502" width="70" height="3.9297709923664126"></rect><rect x="493" y="147.06259541984733" width="98" height="3.9297709923664126"></rect><rect x="521" y="168.89465648854963" width="56" height="3.9297709923664126"></rect><rect x="521" y="190.7267175572519" width="56" height="3.9297709923664126"></rect><rect x="507" y="212.5587786259542" width="56" height="3.9297709923664126"></rect><rect x="535" y="234.3908396946565" width="28" height="3.9297709923664126"></rect><rect x="507" y="256.2229007633588" width="70" height="3.9297709923664126"></rect><rect x="535" y="278.0549618320611" width="56" height="3.9297709923664126"></rect><rect x="549" y="299.8870229007634" width="14" height="3.9297709923664126"></rect></g><g fill="#6baed6"><rect x="549" y="37.902290076335866" width="42" height="3.9297709923664126"></rect><rect x="549" y="59.734351145038154" width="28" height="3.9297709923664126"></rect><rect x="549" y="81.56641221374045" width="42" height="3.9297709923664126"></rect><rect x="549" y="103.39847328244275" width="42" height="3.9297709923664126"></rect><rect x="563" y="125.23053435114502" width="28" height="3.9297709923664126"></rect><rect x="591" y="147.06259541984733" width="14" height="3.9297709923664126"></rect><rect x="577" y="168.89465648854963" width="14" height="3.9297709923664126"></rect><rect x="577" y="190.7267175572519" width="14" height="3.9297709923664126"></rect><rect x="563" y="212.5587786259542" width="28" height="3.9297709923664126"></rect><rect x="563" y="234.3908396946565" width="28" height="3.9297709923664126"></rect><rect x="577" y="256.2229007633588" width="28" height="3.9297709923664126"></rect><rect x="591" y="278.0549618320611" width="14" height="3.9297709923664126"></rect><rect x="563" y="299.8870229007634" width="28" height="3.9297709923664126"></rect></g><g fill="#4292c6"><rect x="591" y="37.902290076335866" width="14" height="3.9297709923664126"></rect><rect x="577" y="59.734351145038154" width="28" height="3.9297709923664126"></rect><rect x="591" y="81.56641221374045" width="14" height="3.9297709923664126"></rect><rect x="591" y="103.39847328244275" width="14" height="3.9297709923664126"></rect><rect x="591" y="125.23053435114502" width="14" height="3.9297709923664126"></rect><rect x="605" y="147.06259541984733" width="0" height="3.9297709923664126"></rect><rect x="591" y="168.89465648854963" width="14" height="3.9297709923664126"></rect><rect x="591" y="190.7267175572519" width="14" height="3.9297709923664126"></rect><rect x="591" y="212.5587786259542" width="14" height="3.9297709923664126"></rect><rect x="591" y="234.3908396946565" width="14" height="3.9297709923664126"></rect><rect x="605" y="256.2229007633588" width="0" height="3.9297709923664126"></rect><rect x="605" y="278.0549618320611" width="0" height="3.9297709923664126"></rect><rect x="591" y="299.8870229007634" width="14" height="3.9297709923664126"></rect></g></g><g stroke="salmon"><line x1="447.5" y1="22.183206106870216" x2="447.5" y2="35.93740458015266"></line><line x1="447.5" y1="44.015267175572504" x2="447.5" y2="57.76946564885495"></line><line x1="465" y1="65.84732824427479" x2="465" y2="79.60152671755723"></line><line x1="482.5" y1="87.6793893129771" x2="482.5" y2="101.43358778625954"></line><line x1="482.5" y1="109.51145038167938" x2="482.5" y2="123.26564885496182"></line><line x1="482.5" y1="131.34351145038167" x2="482.5" y2="145.0977099236641"></line><line x1="491.25" y1="153.17557251908397" x2="491.25" y2="166.9297709923664"></line><line x1="500" y1="175.00763358778624" x2="500" y2="188.76183206106867"></line><line x1="500" y1="196.83969465648855" x2="500" y2="210.59389312977098"></line><line x1="508.75" y1="218.67175572519085" x2="508.75" y2="232.42595419847328"></line><line x1="508.75" y1="240.50381679389312" x2="508.75" y2="254.25801526717555"></line><line x1="526.25" y1="262.33587786259545" x2="526.25" y2="276.0900763358779"></line><line x1="535" y1="284.1679389312977" x2="535" y2="297.92213740458016"></line></g><g stroke="black"><line x1="403.75" y1="24.148091603053423" x2="403.75" y2="33.97251908396945"></line><line x1="403.75" y1="45.98015267175571" x2="403.75" y2="55.80458015267174"></line><line x1="412.5" y1="67.81221374045799" x2="412.5" y2="77.63664122137402"></line><line x1="438.75" y1="89.6442748091603" x2="438.75" y2="99.46870229007632"></line><line x1="438.75" y1="111.47633587786258" x2="438.75" y2="121.30076335877862"></line><line x1="430" y1="133.30839694656487" x2="430" y2="143.1328244274809"></line><line x1="447.5" y1="155.14045801526717" x2="447.5" y2="164.9648854961832"></line><line x1="456.25" y1="176.97251908396944" x2="456.25" y2="186.79694656488547"></line><line x1="456.25" y1="198.80458015267175" x2="456.25" y2="208.62900763358778"></line><line x1="465" y1="220.63664122137405" x2="465" y2="230.46106870229008"></line><line x1="465" y1="242.46870229007632" x2="465" y2="252.29312977099235"></line><line x1="482.5" y1="264.3007633587787" x2="482.5" y2="274.1251908396947"></line><line x1="491.25" y1="286.13282442748095" x2="491.25" y2="295.957251908397"></line></g><g stroke="black"><line x1="403.75" y1="29.060305343511438" x2="491.25" y2="29.060305343511438"></line><line x1="403.75" y1="50.892366412213725" x2="491.25" y2="50.892366412213725"></line><line x1="412.5" y1="72.724427480916" x2="517.5" y2="72.724427480916"></line><line x1="438.75" y1="94.55648854961831" x2="526.25" y2="94.55648854961831"></line><line x1="438.75" y1="116.3885496183206" x2="526.25" y2="116.3885496183206"></line><line x1="430" y1="138.22061068702288" x2="526.25" y2="138.22061068702288"></line><line x1="447.5" y1="160.05267175572519" x2="535" y2="160.05267175572519"></line><line x1="456.25" y1="181.88473282442746" x2="543.75" y2="181.88473282442746"></line><line x1="456.25" y1="203.71679389312976" x2="543.75" y2="203.71679389312976"></line><line x1="465" y1="225.54885496183206" x2="552.5" y2="225.54885496183206"></line><line x1="465" y1="247.38091603053434" x2="552.5" y2="247.38091603053434"></line><line x1="482.5" y1="269.2129770992367" x2="570" y2="269.2129770992367"></line><line x1="491.25" y1="291.04503816793897" x2="570" y2="291.04503816793897"></line></g><g stroke="black"><line x1="491.25" y1="25.130534351145023" x2="491.25" y2="32.99007633587785"></line><line x1="491.25" y1="46.96259541984731" x2="491.25" y2="54.82213740458014"></line><line x1="517.5" y1="68.7946564885496" x2="517.5" y2="76.65419847328242"></line><line x1="526.25" y1="90.62671755725191" x2="526.25" y2="98.48625954198472"></line><line x1="526.25" y1="112.4587786259542" x2="526.25" y2="120.31832061068701"></line><line x1="526.25" y1="134.29083969465648" x2="526.25" y2="142.1503816793893"></line><line x1="535" y1="156.12290076335879" x2="535" y2="163.98244274809161"></line><line x1="543.75" y1="177.95496183206106" x2="543.75" y2="185.8145038167939"></line><line x1="543.75" y1="199.78702290076336" x2="543.75" y2="207.6465648854962"></line><line x1="552.5" y1="221.61908396946566" x2="552.5" y2="229.4786259541985"></line><line x1="552.5" y1="243.45114503816794" x2="552.5" y2="251.31068702290077"></line><line x1="570" y1="265.28320610687024" x2="570" y2="273.1427480916031"></line><line x1="570" y1="287.1152671755725" x2="570" y2="294.97480916030537"></line></g><g transform="translate(0,20)" fill="none" font-size="10" font-family="sans-serif" text-anchor="middle"><g class="tick" opacity="1" transform="translate(325.5,0)"><line stroke="currentColor" y2="-6"></line><text fill="currentColor" y="-9" dy="0em">0%</text></g><g class="tick" opacity="1" transform="translate(395.5,0)"><line stroke="currentColor" y2="-6"></line><text fill="currentColor" y="-9" dy="0em">25%</text></g><g class="tick" opacity="1" transform="translate(465.5,0)"><line stroke="currentColor" y2="-6"></line><text fill="currentColor" y="-9" dy="0em">50%</text></g><g class="tick" opacity="1" transform="translate(535.5,0)"><line stroke="currentColor" y2="-6"></line><text fill="currentColor" y="-9" dy="0em">75%</text></g><g class="tick" opacity="1" transform="translate(605.5,0)"><line stroke="currentColor" y2="-6"></line><text fill="currentColor" y="-9" dy="0em">100%</text></g></g><g transform="translate(325,0)" fill="none" font-size="10" font-family="sans-serif" text-anchor="end"><g class="tick" opacity="1" transform="translate(0,32.007633587786245)"><line stroke="currentColor" x2="-6"></line><text fill="currentColor" x="-9" dy="0.32em">Documentation lacking context and examples</text></g><g class="tick" opacity="1" transform="translate(0,53.83969465648853)"><line stroke="currentColor" x2="-6"></line><text fill="currentColor" x="-9" dy="0.32em">Significant effect/behavior being undocumented</text></g><g class="tick" opacity="1" transform="translate(0,75.67175572519082)"><line stroke="currentColor" x2="-6"></line><text fill="currentColor" x="-9" dy="0.32em">Inconsistent behavior across versions/systems</text></g><g class="tick" opacity="1" transform="translate(0,97.50381679389312)"><line stroke="currentColor" x2="-6"></line><text fill="currentColor" x="-9" dy="0.32em">Buggy implementation</text></g><g class="tick" opacity="1" transform="translate(0,119.33587786259541)"><line stroke="currentColor" x2="-6"></line><text fill="currentColor" x="-9" dy="0.32em">Documentation requiring too much investment</text></g><g class="tick" opacity="1" transform="translate(0,141.1679389312977)"><line stroke="currentColor" x2="-6"></line><text fill="currentColor" x="-9" dy="0.32em">Problems scaling up (in speed/precision/frequency)</text></g><g class="tick" opacity="1" transform="translate(0,163)"><line stroke="currentColor" x2="-6"></line><text fill="currentColor" x="-9" dy="0.32em">API too complex to use/understand</text></g><g class="tick" opacity="1" transform="translate(0,184.83206106870227)"><line stroke="currentColor" x2="-6"></line><text fill="currentColor" x="-9" dy="0.32em">Lack of a functionality that would require pulling another library</text></g><g class="tick" opacity="1" transform="translate(0,206.66412213740458)"><line stroke="currentColor" x2="-6"></line><text fill="currentColor" x="-9" dy="0.32em">Bad compatibility between two libraries</text></g><g class="tick" opacity="1" transform="translate(0,228.49618320610688)"><line stroke="currentColor" x2="-6"></line><text fill="currentColor" x="-9" dy="0.32em">Forbidden access to functions and data</text></g><g class="tick" opacity="1" transform="translate(0,250.32824427480915)"><line stroke="currentColor" x2="-6"></line><text fill="currentColor" x="-9" dy="0.32em">Non-deterministic behavior</text></g><g class="tick" opacity="1" transform="translate(0,272.1603053435115)"><line stroke="currentColor" x2="-6"></line><text fill="currentColor" x="-9" dy="0.32em">Lack of configurability in API</text></g><g class="tick" opacity="1" transform="translate(0,293.99236641221376)"><line stroke="currentColor" x2="-6"></line><text fill="currentColor" x="-9" dy="0.32em">Inadequate paradigm for this particular context</text></g></g><g><circle cx="50" cy="331" r="7" fill="#f7fbff"></circle><circle cx="50" cy="351" r="7" fill="#deebf7"></circle><circle cx="240" cy="331" r="7" fill="#c6dbef"></circle><circle cx="240" cy="351" r="7" fill="#9ecae1"></circle><circle cx="430" cy="331" r="7" fill="#6baed6"></circle><circle cx="430" cy="351" r="7" fill="#4292c6"></circle></g><g font-family="sans-serif" font-size="12"><text x="65" y="331" dominant-baseline="middle">Not met</text><text x="65" y="351" dominant-baseline="middle">Met, no trouble</text><text x="255" y="331" dominant-baseline="middle">Met, minor trouble</text><text x="255" y="351" dominant-baseline="middle">Met, medium trouble</text><text x="445" y="331" dominant-baseline="middle">Met, major trouble</text><text x="445" y="351" dominant-baseline="middle">Met, insurmountable trouble</text></g></svg>