<?xml version="1.0" standalone="no"?>
<svg width="640" height="346" xmlns="http://www.w3.org/2000/svg"><g><g fill="#f7fbff"><rect x="325" y="22.57657657657657" width="70" height="16.232432432432432"></rect><rect x="325" y="48.342342342342334" width="105" height="16.232432432432432"></rect><rect x="325" y="74.1081081081081" width="78.75" height="16.232432432432432"></rect><rect x="325" y="99.87387387387388" width="78.75" height="16.232432432432432"></rect><rect x="325" y="125.63963963963964" width="113.75" height="16.232432432432432"></rect><rect x="325" y="151.40540540540542" width="113.75" height="16.232432432432432"></rect><rect x="325" y="177.17117117117118" width="131.25" height="16.232432432432432"></rect><rect x="325" y="202.93693693693695" width="148.75" height="16.232432432432432"></rect><rect x="325" y="228.7027027027027" width="175" height="16.232432432432432"></rect><rect x="325" y="254.46846846846847" width="131.25" height="16.232432432432432"></rect><rect x="325" y="280.23423423423424" width="175" height="16.232432432432432"></rect></g><g fill="#deebf7"><rect x="395" y="22.57657657657657" width="43.75" height="16.232432432432432"></rect><rect x="430" y="48.342342342342334" width="43.75" height="16.232432432432432"></rect><rect x="403.75" y="74.1081081081081" width="87.5" height="16.232432432432432"></rect><rect x="403.75" y="99.87387387387388" width="96.25" height="16.232432432432432"></rect><rect x="438.75" y="125.63963963963964" width="61.25" height="16.232432432432432"></rect><rect x="438.75" y="151.40540540540542" width="61.25" height="16.232432432432432"></rect><rect x="456.25" y="177.17117117117118" width="52.5" height="16.232432432432432"></rect><rect x="473.75" y="202.93693693693695" width="61.25" height="16.232432432432432"></rect><rect x="500" y="228.7027027027027" width="43.75" height="16.232432432432432"></rect><rect x="456.25" y="254.46846846846847" width="87.5" height="16.232432432432432"></rect><rect x="500" y="280.23423423423424" width="70" height="16.232432432432432"></rect></g><g fill="#c6dbef"><rect x="438.75" y="22.57657657657657" width="96.25" height="16.232432432432432"></rect><rect x="473.75" y="48.342342342342334" width="87.5" height="16.232432432432432"></rect><rect x="491.25" y="74.1081081081081" width="61.25" height="16.232432432432432"></rect><rect x="500" y="99.87387387387388" width="61.25" height="16.232432432432432"></rect><rect x="500" y="125.63963963963964" width="70" height="16.232432432432432"></rect><rect x="500" y="151.40540540540542" width="78.75" height="16.232432432432432"></rect><rect x="508.75" y="177.17117117117118" width="87.5" height="16.232432432432432"></rect><rect x="535" y="202.93693693693695" width="35" height="16.232432432432432"></rect><rect x="543.75" y="228.7027027027027" width="17.5" height="16.232432432432432"></rect><rect x="543.75" y="254.46846846846847" width="52.5" height="16.232432432432432"></rect><rect x="570" y="280.23423423423424" width="35" height="16.232432432432432"></rect></g><g fill="#9ecae1"><rect x="535" y="22.57657657657657" width="61.25" height="16.232432432432432"></rect><rect x="561.25" y="48.342342342342334" width="43.75" height="16.232432432432432"></rect><rect x="552.5" y="74.1081081081081" width="43.75" height="16.232432432432432"></rect><rect x="561.25" y="99.87387387387388" width="35" height="16.232432432432432"></rect><rect x="570" y="125.63963963963964" width="17.5" height="16.232432432432432"></rect><rect x="578.75" y="151.40540540540542" width="26.25" height="16.232432432432432"></rect><rect x="596.25" y="177.17117117117118" width="8.75" height="16.232432432432432"></rect><rect x="570" y="202.93693693693695" width="35" height="16.232432432432432"></rect><rect x="561.25" y="228.7027027027027" width="35" height="16.232432432432432"></rect><rect x="596.25" y="254.46846846846847" width="8.75" height="16.232432432432432"></rect><rect x="605" y="280.23423423423424" width="0" height="16.232432432432432"></rect></g><g fill="#6baed6"><rect x="596.25" y="22.57657657657657" width="8.75" height="16.232432432432432"></rect><rect x="605" y="48.342342342342334" width="0" height="16.232432432432432"></rect><rect x="596.25" y="74.1081081081081" width="8.75" height="16.232432432432432"></rect><rect x="596.25" y="99.87387387387388" width="8.75" height="16.232432432432432"></rect><rect x="587.5" y="125.63963963963964" width="17.5" height="16.232432432432432"></rect><rect x="605" y="151.40540540540542" width="0" height="16.232432432432432"></rect><rect x="605" y="177.17117117117118" width="0" height="16.232432432432432"></rect><rect x="605" y="202.93693693693695" width="0" height="16.232432432432432"></rect><rect x="596.25" y="228.7027027027027" width="8.75" height="16.232432432432432"></rect><rect x="605" y="254.46846846846847" width="0" height="16.232432432432432"></rect><rect x="605" y="280.23423423423424" width="0" height="16.232432432432432"></rect></g></g><g><g fill="#f7fbff"><rect x="325" y="41.12792792792793" width="70" height="4.637837837837838"></rect><rect x="325" y="66.89369369369369" width="126" height="4.637837837837838"></rect><rect x="325" y="92.65945945945946" width="98" height="4.637837837837838"></rect><rect x="325" y="118.42522522522523" width="98" height="4.637837837837838"></rect><rect x="325" y="144.190990990991" width="98" height="4.637837837837838"></rect><rect x="325" y="169.95675675675676" width="112" height="4.637837837837838"></rect><rect x="325" y="195.72252252252252" width="126" height="4.637837837837838"></rect><rect x="325" y="221.4882882882883" width="168" height="4.637837837837838"></rect><rect x="325" y="247.25405405405405" width="196" height="4.637837837837838"></rect><rect x="325" y="273.0198198198198" width="154" height="4.637837837837838"></rect><rect x="325" y="298.7855855855856" width="154" height="4.637837837837838"></rect></g><g fill="#deebf7"><rect x="395" y="41.12792792792793" width="28" height="4.637837837837838"></rect><rect x="451" y="66.89369369369369" width="42" height="4.637837837837838"></rect><rect x="423" y="92.65945945945946" width="56" height="4.637837837837838"></rect><rect x="423" y="118.42522522522523" width="56" height="4.637837837837838"></rect><rect x="423" y="144.190990990991" width="56" height="4.637837837837838"></rect><rect x="437" y="169.95675675675676" width="84" height="4.637837837837838"></rect><rect x="451" y="195.72252252252252" width="28" height="4.637837837837838"></rect><rect x="493" y="221.4882882882883" width="56" height="4.637837837837838"></rect><rect x="521" y="247.25405405405405" width="56" height="4.637837837837838"></rect><rect x="479" y="273.0198198198198" width="70" height="4.637837837837838"></rect><rect x="479" y="298.7855855855856" width="70" height="4.637837837837838"></rect></g><g fill="#c6dbef"><rect x="423" y="41.12792792792793" width="112" height="4.637837837837838"></rect><rect x="493" y="66.89369369369369" width="70" height="4.637837837837838"></rect><rect x="479" y="92.65945945945946" width="70" height="4.637837837837838"></rect><rect x="479" y="118.42522522522523" width="70" height="4.637837837837838"></rect><rect x="479" y="144.190990990991" width="98" height="4.637837837837838"></rect><rect x="521" y="169.95675675675676" width="56" height="4.637837837837838"></rect><rect x="479" y="195.72252252252252" width="112" height="4.637837837837838"></rect><rect x="549" y="221.4882882882883" width="28" height="4.637837837837838"></rect><rect x="577" y="247.25405405405405" width="14" height="4.637837837837838"></rect><rect x="549" y="273.0198198198198" width="56" height="4.637837837837838"></rect><rect x="549" y="298.7855855855856" width="56" height="4.637837837837838"></rect></g><g fill="#9ecae1"><rect x="535" y="41.12792792792793" width="56" height="4.637837837837838"></rect><rect x="563" y="66.89369369369369" width="42" height="4.637837837837838"></rect><rect x="549" y="92.65945945945946" width="42" height="4.637837837837838"></rect><rect x="549" y="118.42522522522523" width="42" height="4.637837837837838"></rect><rect x="577" y="144.190990990991" width="0" height="4.637837837837838"></rect><rect x="577" y="169.95675675675676" width="28" height="4.637837837837838"></rect><rect x="591" y="195.72252252252252" width="14" height="4.637837837837838"></rect><rect x="577" y="221.4882882882883" width="28" height="4.637837837837838"></rect><rect x="591" y="247.25405405405405" width="0" height="4.637837837837838"></rect><rect x="605" y="273.0198198198198" width="0" height="4.637837837837838"></rect><rect x="605" y="298.7855855855856" width="0" height="4.637837837837838"></rect></g><g fill="#6baed6"><rect x="591" y="41.12792792792793" width="14" height="4.637837837837838"></rect><rect x="605" y="66.89369369369369" width="0" height="4.637837837837838"></rect><rect x="591" y="92.65945945945946" width="14" height="4.637837837837838"></rect><rect x="591" y="118.42522522522523" width="14" height="4.637837837837838"></rect><rect x="577" y="144.190990990991" width="28" height="4.637837837837838"></rect><rect x="605" y="169.95675675675676" width="0" height="4.637837837837838"></rect><rect x="605" y="195.72252252252252" width="0" height="4.637837837837838"></rect><rect x="605" y="221.4882882882883" width="0" height="4.637837837837838"></rect><rect x="591" y="247.25405405405405" width="14" height="4.637837837837838"></rect><rect x="605" y="273.0198198198198" width="0" height="4.637837837837838"></rect><rect x="605" y="298.7855855855856" width="0" height="4.637837837837838"></rect></g></g><g stroke="salmon"><line x1="438.75" y1="22.57657657657657" x2="438.75" y2="38.809009009009"></line><line x1="473.75" y1="48.342342342342334" x2="473.75" y2="64.57477477477477"></line><line x1="491.25" y1="74.1081081081081" x2="491.25" y2="90.34054054054053"></line><line x1="500" y1="99.87387387387388" x2="500" y2="116.10630630630631"></line><line x1="500" y1="125.63963963963964" x2="500" y2="141.87207207207206"></line><line x1="500" y1="151.40540540540542" x2="500" y2="167.63783783783785"></line><line x1="508.75" y1="177.17117117117118" x2="508.75" y2="193.4036036036036"></line><line x1="535" y1="202.93693693693695" x2="535" y2="219.16936936936938"></line><line x1="543.75" y1="228.7027027027027" x2="543.75" y2="244.93513513513514"></line><line x1="543.75" y1="254.46846846846847" x2="543.75" y2="270.70090090090093"></line><line x1="570" y1="280.23423423423424" x2="570" y2="296.4666666666667"></line></g><g stroke="black"><line x1="395" y1="26.054954954954948" x2="395" y2="35.33063063063062"></line><line x1="421.25" y1="51.820720720720715" x2="421.25" y2="61.096396396396386"></line><line x1="447.5" y1="77.58648648648648" x2="447.5" y2="86.86216216216215"></line><line x1="447.5" y1="103.35225225225226" x2="447.5" y2="112.62792792792793"></line><line x1="456.25" y1="129.118018018018" x2="456.25" y2="138.3936936936937"></line><line x1="456.25" y1="154.8837837837838" x2="456.25" y2="164.15945945945947"></line><line x1="465" y1="180.64954954954956" x2="465" y2="189.92522522522523"></line><line x1="491.25" y1="206.41531531531533" x2="491.25" y2="215.690990990991"></line><line x1="500" y1="232.1810810810811" x2="500" y2="241.45675675675676"></line><line x1="500" y1="257.9468468468468" x2="500" y2="267.2225225225225"></line><line x1="535" y1="283.7126126126126" x2="535" y2="292.9882882882883"></line></g><g stroke="black"><line x1="395" y1="30.692792792792787" x2="491.25" y2="30.692792792792787"></line><line x1="421.25" y1="56.45855855855855" x2="526.25" y2="56.45855855855855"></line><line x1="447.5" y1="82.22432432432431" x2="535" y2="82.22432432432431"></line><line x1="447.5" y1="107.99009009009009" x2="543.75" y2="107.99009009009009"></line><line x1="456.25" y1="133.75585585585586" x2="543.75" y2="133.75585585585586"></line><line x1="456.25" y1="159.52162162162165" x2="543.75" y2="159.52162162162165"></line><line x1="465" y1="185.2873873873874" x2="552.5" y2="185.2873873873874"></line><line x1="491.25" y1="211.05315315315318" x2="578.75" y2="211.05315315315318"></line><line x1="500" y1="236.81891891891894" x2="578.75" y2="236.81891891891894"></line><line x1="500" y1="262.5846846846847" x2="578.75" y2="262.5846846846847"></line><line x1="535" y1="288.35045045045047" x2="596.25" y2="288.35045045045047"></line></g><g stroke="black"><line x1="491.25" y1="26.054954954954948" x2="491.25" y2="35.33063063063062"></line><line x1="526.25" y1="51.820720720720715" x2="526.25" y2="61.096396396396386"></line><line x1="535" y1="77.58648648648648" x2="535" y2="86.86216216216215"></line><line x1="543.75" y1="103.35225225225226" x2="543.75" y2="112.62792792792793"></line><line x1="543.75" y1="129.118018018018" x2="543.75" y2="138.3936936936937"></line><line x1="543.75" y1="154.8837837837838" x2="543.75" y2="164.15945945945947"></line><line x1="552.5" y1="180.64954954954956" x2="552.5" y2="189.92522522522523"></line><line x1="578.75" y1="206.41531531531533" x2="578.75" y2="215.690990990991"></line><line x1="578.75" y1="232.1810810810811" x2="578.75" y2="241.45675675675676"></line><line x1="578.75" y1="257.9468468468468" x2="578.75" y2="267.2225225225225"></line><line x1="596.25" y1="283.7126126126126" x2="596.25" y2="292.9882882882883"></line></g><g transform="translate(0,20)" fill="none" font-size="10" font-family="sans-serif" text-anchor="middle"><g class="tick" opacity="1" transform="translate(325.5,0)"><line stroke="currentColor" y2="-6"></line><text fill="currentColor" y="-9" dy="0em">0%</text></g><g class="tick" opacity="1" transform="translate(395.5,0)"><line stroke="currentColor" y2="-6"></line><text fill="currentColor" y="-9" dy="0em">25%</text></g><g class="tick" opacity="1" transform="translate(465.5,0)"><line stroke="currentColor" y2="-6"></line><text fill="currentColor" y="-9" dy="0em">50%</text></g><g class="tick" opacity="1" transform="translate(535.5,0)"><line stroke="currentColor" y2="-6"></line><text fill="currentColor" y="-9" dy="0em">75%</text></g><g class="tick" opacity="1" transform="translate(605.5,0)"><line stroke="currentColor" y2="-6"></line><text fill="currentColor" y="-9" dy="0em">100%</text></g></g><g transform="translate(325,0)" fill="none" font-size="10" font-family="sans-serif" text-anchor="end"><g class="tick" opacity="1" transform="translate(0,34.17117117117117)"><line stroke="currentColor" x2="-6"></line><text fill="currentColor" x="-9" y="-0.18em"><tspan x="-9">Reimplementing an existing widget/mechanism to gain more control</tspan><tspan x="-9" dy="1em">over its appearance/behavior</tspan></text></g><g class="tick" opacity="1" transform="translate(0,59.93693693693693)"><line stroke="currentColor" x2="-6"></line><text fill="currentColor" x="-9" y="-0.18em"><tspan x="-9">Using accessible raw data to reconstruct/reinterpret a state that you do</tspan><tspan x="-9" dy="1em">not have access to</tspan></text></g><g class="tick" opacity="1" transform="translate(0,85.7027027027027)"><line stroke="currentColor" x2="-6"></line><text fill="currentColor" x="-9" y="-0.18em"><tspan x="-9">Using an external mechanism to obtain and process data that is not</tspan><tspan x="-9" dy="1em">exposed by an application</tspan></text></g><g class="tick" opacity="1" transform="translate(0,111.46846846846847)"><line stroke="currentColor" x2="-6"></line><text fill="currentColor" x="-9" y="-0.18em"><tspan x="-9">Aggregating multiple sources of interaction data (input, sensors,</tspan><tspan x="-9" dy="1em">events), and fusing them into a single source</tspan></text></g><g class="tick" opacity="1" transform="translate(0,137.23423423423424)"><line stroke="currentColor" x2="-6"></line><text fill="currentColor" x="-9" y="0.32em"><tspan x="-9">Using a visual overlay to add custom functionality</tspan></text></g><g class="tick" opacity="1" transform="translate(0,163)"><line stroke="currentColor" x2="-6"></line><text fill="currentColor" x="-9" y="-0.18em"><tspan x="-9">Reverse-engineering a closed tool or library to acquire understanding</tspan><tspan x="-9" dy="1em">of its inner working</tspan></text></g><g class="tick" opacity="1" transform="translate(0,188.76576576576576)"><line stroke="currentColor" x2="-6"></line><text fill="currentColor" x="-9" y="-0.18em"><tspan x="-9">Introducing a different programming model, pattern or paradigm on top</tspan><tspan x="-9" dy="1em">of the existing framework or toolkit</tspan></text></g><g class="tick" opacity="1" transform="translate(0,214.53153153153153)"><line stroke="currentColor" x2="-6"></line><text fill="currentColor" x="-9" y="-0.18em"><tspan x="-9">Purposely setting a parameter outside of its intended/expected range</tspan><tspan x="-9" dy="1em">of values</tspan></text></g><g class="tick" opacity="1" transform="translate(0,240.2972972972973)"><line stroke="currentColor" x2="-6"></line><text fill="currentColor" x="-9" y="0.32em"><tspan x="-9">Reproducing a fake application to control a specific aspect</tspan></text></g><g class="tick" opacity="1" transform="translate(0,266.06306306306305)"><line stroke="currentColor" x2="-6"></line><text fill="currentColor" x="-9" y="-0.18em"><tspan x="-9">Modifying the environment of a tool rather than the tool itself to change</tspan><tspan x="-9" dy="1em">its behavior</tspan></text></g><g class="tick" opacity="1" transform="translate(0,291.8288288288288)"><line stroke="currentColor" x2="-6"></line><text fill="currentColor" x="-9" y="-0.18em"><tspan x="-9">Reimplementing low-level system components (e.g. driver) to improve</tspan><tspan x="-9" dy="1em">their functionalities or better support specific hardware devices</tspan></text></g></g><g><circle cx="50" cy="331" r="7" fill="#f7fbff"></circle><circle cx="170" cy="331" r="7" fill="#deebf7"></circle><circle cx="290" cy="331" r="7" fill="#c6dbef"></circle><circle cx="410" cy="331" r="7" fill="#9ecae1"></circle><circle cx="530" cy="331" r="7" fill="#6baed6"></circle></g><g font-family="sans-serif" font-size="12"><text x="65" y="331" dominant-baseline="middle">Never</text><text x="185" y="331" dominant-baseline="middle">Rarely</text><text x="305" y="331" dominant-baseline="middle">Sometimes</text><text x="425" y="331" dominant-baseline="middle">Very often</text><text x="545" y="331" dominant-baseline="middle">Always</text></g></svg>