<svg height="304.83994" viewBox="0 0 323.73462 304.83994" width="323.73462" xmlns="http://www.w3.org/2000/svg"><g transform="matrix(1.3333333 0 0 -1.3333333 -79.639999 980.03992)"><path d="m109.5 587.34v-3.6h33.66v100.86h-33.66z" fill="#e6e6e6" fill-rule="evenodd"/><path d="m109.5 587.34v-3.6h33.66v100.86h-33.66z" style="fill:none;stroke:#333;stroke-width:.36;stroke-linecap:round;stroke-linejoin:round;stroke-miterlimit:10"/><path d="m138.3 689.28h-33.66l4.86-4.68h33.66z" fill="#c0c0c0" fill-rule="evenodd"/><path d="m138.3 689.28h-33.66l4.86-4.68h33.66z" style="fill:none;stroke:#000;stroke-width:.18;stroke-linecap:round;stroke-linejoin:round;stroke-miterlimit:10"/><path d="m143.16 684.6-4.86 4.68v28.92l4.86-4.86z" fill="#c0c0c0" fill-rule="evenodd"/><path d="m143.16 684.6-4.86 4.68v28.92l4.86-4.86z" style="fill:none;stroke:#000;stroke-width:.18;stroke-linecap:round;stroke-linejoin:round;stroke-miterlimit:10"/><path d="m104.64 689.28h33.66v28.92h-33.66z" fill="#fff"/><path d="m138.3 689.28h-33.66v28.92h33.66z" style="fill:none;stroke:#000;stroke-width:.18;stroke-linecap:round;stroke-linejoin:round;stroke-miterlimit:10"/><text font-family="Arial" font-size="6.4732" transform="scale(1 -1)" x="110.76" y="-709.56"><tspan x="110.76 116.15476 119.75645 123.35814 124.79778 126.59992 130.01971" y="-709.56">Monitor</tspan><tspan x="112.74015 116.69852 120.30085 123.54069 126.95983" y="-701.88019">Focus</tspan><tspan x="112.9201 117.23967 120.84071 122.27971 123.53874 126.77728" y="-694.1402">Policy</tspan></text><path d="m146.94 703.86h-5.94" style="fill:none;stroke:#333;stroke-width:2.157;stroke-linecap:round;stroke-linejoin:round;stroke-miterlimit:10"/><path d="m146.04 707.22 10.62-3.36-10.62-3.6z" fill="#333" fill-rule="evenodd"/><path d="m111.3 679.92v5.76" style="fill:none;stroke:#333;stroke-width:2.157;stroke-linecap:round;stroke-linejoin:round;stroke-miterlimit:10"/><path d="m114.9 680.64-3.6-10.44-3.6 10.44z" fill="#333" fill-rule="evenodd"/><path d="m167.64 703.86h-5.94" style="fill:none;stroke:#333;stroke-width:2.157;stroke-linecap:round;stroke-linejoin:round;stroke-miterlimit:10"/><path d="m166.74 707.22 10.62-3.36-10.62-3.6z" fill="#333" fill-rule="evenodd"/><g transform="scale(1 -1)"><text font-family="Symbol" font-size="25.713301" x="150" y="-710.46002"><tspan x="150 156.47975 162.77951" y="-710.46002">...</tspan></text><g font-family="Times New Roman"><text font-size="32.006901" x="264.95999" y="-694.68011"><tspan x="264.95999" y="-694.68011">}</tspan></text><text font-size="7.552" x="275.94" y="-703.68011"><tspan x="275.94 281.33893 283.32056 286.37912 289.97916 293.40024 295.38187 298.80292" y="-703.68011">Dispatch</tspan><tspan x="277.38016 281.51868 285.29843 287.28387 289.44525 292.6843 294.84567 298.08472" y="-694.68036">Policies</tspan></text></g></g><path d="m208.26 689.28h-33.6l4.86-4.68h33.6z" fill="#c0c0c0" fill-rule="evenodd"/><path d="m208.26 689.28h-33.6l4.86-4.68h33.6z" style="fill:none;stroke:#000;stroke-width:.18;stroke-linecap:round;stroke-linejoin:round;stroke-miterlimit:10"/><path d="m213.12 684.6-4.86 4.68v28.92l4.86-4.86z" fill="#c0c0c0" fill-rule="evenodd"/><path d="m213.12 684.6-4.86 4.68v28.92l4.86-4.86z" style="fill:none;stroke:#000;stroke-width:.18;stroke-linecap:round;stroke-linejoin:round;stroke-miterlimit:10"/><path d="m174.66 689.28h33.6v28.92h-33.6z" fill="#fff"/><path d="m208.26 689.28h-33.6v28.92h33.6z" style="fill:none;stroke:#000;stroke-width:.18;stroke-linecap:round;stroke-linejoin:round;stroke-miterlimit:10"/><text font-family="Arial" font-size="6.4732" transform="scale(1 -1)" x="182.75999" y="-705.65997"><tspan x="182.75999 186.71837 190.32069 193.50098 197.10008" y="-705.65997">Focus</tspan><tspan x="183.1199 187.26016 190.79907 192.23871 193.67834 196.91754" y="-698.09998">Policy</tspan></text><path d="m217.98 703.86h-5.94" style="fill:none;stroke:#333;stroke-width:2.157;stroke-linecap:round;stroke-linejoin:round;stroke-miterlimit:10"/><path d="m217.08 707.22 10.62-3.36-10.62-3.6z" fill="#333" fill-rule="evenodd"/><path d="m258.12 689.28h-33.66l4.68-4.68h33.66z" fill="#c0c0c0" fill-rule="evenodd"/><path d="m258.12 689.28h-33.66l4.68-4.68h33.66z" style="fill:none;stroke:#000;stroke-width:.18;stroke-linecap:round;stroke-linejoin:round;stroke-miterlimit:10"/><path d="m262.8 684.6-4.68 4.68v28.92l4.68-4.86z" fill="#c0c0c0" fill-rule="evenodd"/><path d="m262.8 684.6-4.68 4.68v28.92l4.68-4.86z" style="fill:none;stroke:#000;stroke-width:.18;stroke-linecap:round;stroke-linejoin:round;stroke-miterlimit:10"/><path d="m224.46 689.28h33.66v28.92h-33.66z" fill="#fff"/><path d="m258.12 689.28h-33.66v28.92h33.66z" style="fill:none;stroke:#000;stroke-width:.18;stroke-linecap:round;stroke-linejoin:round;stroke-miterlimit:10"/><text font-family="Arial" font-size="6.4732" transform="scale(1 -1)" x="227.34" y="-705.65997"><tspan x="227.34 231.65892 235.07806 238.31596 239.7543 241.55515 242.99348 246.59389 250.01303 253.61342" y="-705.65997">Positional</tspan><tspan x="232.73994 236.8802 240.47929 241.91895 243.35858 246.59776" y="-698.09998">Policy</tspan></text><path d="m179.7 513.06v-6.3h33.6v177.84h-33.6z" fill="#e6e6e6" fill-rule="evenodd"/><path d="m179.7 513.06v-6.3h33.6v177.84h-33.6z" style="fill:none;stroke:#333;stroke-width:.36;stroke-linecap:round;stroke-linejoin:round;stroke-miterlimit:10"/><path d="m181.5 679.92v5.76" style="fill:none;stroke:#333;stroke-width:2.157;stroke-linecap:round;stroke-linejoin:round;stroke-miterlimit:10"/><path d="m185.1 680.64-3.6-10.44-3.6 10.44z" fill="#333" fill-rule="evenodd"/><path d="m205.38 648.48h-28.74l4.86-4.68h28.74z" fill="#c0c0c0" fill-rule="evenodd"/><path d="m205.38 648.48h-28.74l4.86-4.68h28.74z" style="fill:none;stroke:#000;stroke-width:.18;stroke-linecap:round;stroke-linejoin:round;stroke-miterlimit:10"/><path d="m210.24 643.8-4.86 4.68v24.06l4.86-4.86z" fill="#c0c0c0" fill-rule="evenodd"/><path d="m210.24 643.8-4.86 4.68v24.06l4.86-4.86z" style="fill:none;stroke:#000;stroke-width:.18;stroke-linecap:round;stroke-linejoin:round;stroke-miterlimit:10"/><path d="m176.64 648.48h28.74v24.06h-28.74z" fill="#fff"/><path d="m205.38 648.48h-28.74v24.06h28.74z" style="fill:none;stroke:#000;stroke-width:.18;stroke-linecap:round;stroke-linejoin:round;stroke-miterlimit:10"/><text font-family="Arial" font-size="6.4732" transform="scale(1 -1)" x="184.92" y="-662.46008"><tspan x="184.92 188.88095 192.30009 195.48038" y="-662.46008">Text</tspan><tspan x="183.66031 187.80057 191.33948 193.14032 195.30043" y="-654.72009">Entry</tspan></text><path d="m181.5 639.84v5.94" style="fill:none;stroke:#333;stroke-width:2.157;stroke-linecap:round;stroke-linejoin:round;stroke-miterlimit:10"/><path d="m185.1 640.74-3.6-10.62-3.6 10.62z" fill="#333" fill-rule="evenodd"/><path d="m205.38 609.24h-28.74l4.86-4.86h28.74z" fill="#c0c0c0" fill-rule="evenodd"/><path d="m205.38 609.24h-28.74l4.86-4.86h28.74z" style="fill:none;stroke:#000;stroke-width:.18;stroke-linecap:round;stroke-linejoin:round;stroke-miterlimit:10"/><path d="m210.24 604.38-4.86 4.86v24.12l4.86-4.86z" fill="#c0c0c0" fill-rule="evenodd"/><path d="m210.24 604.38-4.86 4.86v24.12l4.86-4.86z" style="fill:none;stroke:#000;stroke-width:.18;stroke-linecap:round;stroke-linejoin:round;stroke-miterlimit:10"/><path d="m176.64 609.24h28.74v24.12h-28.74z" fill="#fff"/><path d="m205.38 609.24h-28.74v24.12h28.74z" style="fill:none;stroke:#000;stroke-width:.18;stroke-linecap:round;stroke-linejoin:round;stroke-miterlimit:10"/><text font-family="Arial" font-size="6.4732" transform="scale(1 -1)" x="183.3" y="-623.28003"><tspan x="183.3 188.698 192.05695 195.29938" y="-623.28003">Move</tspan><tspan x="184.19977 188.8786 190.85875 194.39766" y="-615.53998">Drag</tspan></text><path d="m182.04 599.7v5.94" style="fill:none;stroke:#333;stroke-width:2.157;stroke-linecap:round;stroke-linejoin:round;stroke-miterlimit:10"/><path d="m185.64 600.6-3.6-10.56-3.42 10.56z" fill="#333" fill-rule="evenodd"/><path d="m206.1 569.16h-28.74l4.68-4.68h28.92z" fill="#c0c0c0" fill-rule="evenodd"/><path d="m206.1 569.16h-28.74l4.68-4.68h28.92z" style="fill:none;stroke:#000;stroke-width:.18;stroke-linecap:round;stroke-linejoin:round;stroke-miterlimit:10"/><path d="m210.96 564.48-4.86 4.68v24.06l4.86-4.8z" fill="#c0c0c0" fill-rule="evenodd"/><path d="m210.96 564.48-4.86 4.68v24.06l4.86-4.8z" style="fill:none;stroke:#000;stroke-width:.18;stroke-linecap:round;stroke-linejoin:round;stroke-miterlimit:10"/><path d="m177.36 569.16h28.74v24.06h-28.74z" fill="#fff"/><path d="m206.1 569.16h-28.74v24.06h28.74z" style="fill:none;stroke:#000;stroke-width:.18;stroke-linecap:round;stroke-linejoin:round;stroke-miterlimit:10"/><text font-family="Arial" font-size="6.4732" transform="scale(1 -1)" x="183.84" y="-583.20001"><tspan x="183.84 185.6402 189.23994 194.22107 197.64021" y="-583.20001">InOut</tspan><tspan x="184.73978 189.41861 191.57936 194.93829" y="-575.46002">Drag</tspan></text><path d="m135.42 648.48h-28.98l4.86-4.68h28.8z" fill="#c0c0c0" fill-rule="evenodd"/><path d="m135.42 648.48h-28.98l4.86-4.68h28.8z" style="fill:none;stroke:#000;stroke-width:.18;stroke-linecap:round;stroke-linejoin:round;stroke-miterlimit:10"/><path d="m140.1 643.8-4.68 4.68v24.06l4.68-4.86z" fill="#c0c0c0" fill-rule="evenodd"/><path d="m140.1 643.8-4.68 4.68v24.06l4.68-4.86z" style="fill:none;stroke:#000;stroke-width:.18;stroke-linecap:round;stroke-linejoin:round;stroke-miterlimit:10"/><path d="m106.44 648.48h28.98v24.06h-28.98z" fill="#fff"/><path d="m135.42 648.48h-28.98v24.06h28.98z" style="fill:none;stroke:#000;stroke-width:.18;stroke-linecap:round;stroke-linejoin:round;stroke-miterlimit:10"/><text fill="#656565" font-family="Symbol" font-size="25.713301" transform="matrix(0 -1 -1 0 0 0)" x="-670.20001" y="-120.48"><tspan x="-670.20001 -663.72028 -657.24048" y="-120.48">...</tspan></text><path d="m111.3 639.84v5.94" style="fill:none;stroke:#333;stroke-width:2.157;stroke-linecap:round;stroke-linejoin:round;stroke-miterlimit:10"/><path d="m114.9 640.74-3.6-10.62-3.6 10.62z" fill="#333" fill-rule="evenodd"/><path d="m135.42 609.24h-28.98l4.86-4.86h28.8z" fill="#c0c0c0" fill-rule="evenodd"/><path d="m135.42 609.24h-28.98l4.86-4.86h28.8z" style="fill:none;stroke:#000;stroke-width:.18;stroke-linecap:round;stroke-linejoin:round;stroke-miterlimit:10"/><path d="m140.1 604.38-4.68 4.86v24.12l4.68-4.86z" fill="#c0c0c0" fill-rule="evenodd"/><path d="m140.1 604.38-4.68 4.86v24.12l4.68-4.86z" style="fill:none;stroke:#000;stroke-width:.18;stroke-linecap:round;stroke-linejoin:round;stroke-miterlimit:10"/><path d="m106.44 609.24h28.98v24.12h-28.98z" fill="#fff"/><path d="m135.42 609.24h-28.98v24.12h28.98z" style="fill:none;stroke:#000;stroke-width:.18;stroke-linecap:round;stroke-linejoin:round;stroke-miterlimit:10"/><text font-family="Arial" font-size="6.4732" transform="scale(1 -1)" x="114.54" y="-623.28003"><tspan x="114.54 119.03887 122.63797" y="-623.28003">Raw</tspan><tspan x="111.12021 115.43977 118.67831 122.09746 125.69656 127.49805" y="-615.53998">Events</tspan></text><path d="m112.56 602.76-.18-.72v-1.26l.18-.72v-.72l.18-.72.18-.54.18-.72.18-.54.18-.72 2.16-3.24 1.44-1.44.54-.36.54-.3 1.08-.72.54-.18.72-.36.54-.18.72-.36h.54l1.44-.36h.72l.72-.18m12.6 14.34v-2.7l-.18-.72v-.72l-.18-.54-.18-.72-.18-.54-.36-.72-.18-.54-1.44-2.16-.54-.54-.36-.54-.54-.36-.36-.54-.54-.36-.54-.3-1.08-.72-.54-.18-.72-.36-.72-.18-.54-.36h-.72l-.72-.18-.54-.18h-.72l-.72-.18m-12.6 14.34v3.78m25.2-3.78v73.92" style="fill:none;stroke:#333;stroke-width:2.157;stroke-linecap:round;stroke-linejoin:round;stroke-miterlimit:10"/><path d="m134.16 675.78 3.6 10.62 3.6-10.62z" fill="#333" fill-rule="evenodd"/><path d="m182.04 560.52v5.94" style="fill:none;stroke:#333;stroke-width:2.157;stroke-linecap:round;stroke-linejoin:round;stroke-miterlimit:10"/><path d="m185.64 561.42-3.6-10.62-3.42 10.62z" fill="#333" fill-rule="evenodd"/><path d="m206.1 529.62h-28.74l4.68-4.86h28.92z" fill="#c0c0c0" fill-rule="evenodd"/><path d="m206.1 529.62h-28.74l4.68-4.86h28.92z" style="fill:none;stroke:#000;stroke-width:.18;stroke-linecap:round;stroke-linejoin:round;stroke-miterlimit:10"/><path d="m210.96 524.76-4.86 4.86v24.06l4.86-4.86z" fill="#c0c0c0" fill-rule="evenodd"/><path d="m210.96 524.76-4.86 4.86v24.06l4.86-4.86z" style="fill:none;stroke:#000;stroke-width:.18;stroke-linecap:round;stroke-linejoin:round;stroke-miterlimit:10"/><path d="m177.36 529.62h28.74v24.06h-28.74z" fill="#fff"/><path d="m206.1 529.62h-28.74v24.06h28.74z" style="fill:none;stroke:#000;stroke-width:.18;stroke-linecap:round;stroke-linejoin:round;stroke-miterlimit:10"/><text fill="#656565" font-family="Symbol" font-size="25.713301" transform="matrix(0 -1 -1 0 0 0)" x="-551.15997" y="-191.16"><tspan x="-551.15997 -544.86023 -538.38049" y="-191.16">...</tspan></text><path d="m182.94 524.58-.18-.72v-1.44l.18-.54v-.72l.36-1.44.18-.54.18-.72.36-.54.18-.54.36-.72.72-1.08.36-.36.72-1.08.54-.54 1.62-1.08.48-.36 1.08-.72.72-.18.54-.36.72-.18.54-.18.72-.18h.72l.72-.18h.72m12.6 14.4v-2.7l-.18-.72v-.72l-.18-.72-.18-.54-.18-.72-.36-.54-.18-.54-.36-.72-.72-1.08-.36-.36-.36-.54-.54-.54-.36-.54-3.24-2.16-.72-.18-.54-.36-1.44-.36-.54-.18h-.72l-.72-.18h-.72m-12.54 14.4v3.6m25.14-3.6v153" style="fill:none;stroke:#333;stroke-width:2.157;stroke-linecap:round;stroke-linejoin:round;stroke-miterlimit:10"/><path d="m204.48 676.68 3.6 10.62 3.6-10.62z" fill="#333" fill-rule="evenodd"/><path d="m229.14 513.06v-6.48h33.66v177.84h-33.66z" fill="#e6e6e6" fill-rule="evenodd"/><path d="m229.14 513.06v-6.48h33.66v177.84h-33.66z" style="fill:none;stroke:#333;stroke-width:.36;stroke-linecap:round;stroke-linejoin:round;stroke-miterlimit:10"/><path d="m230.94 679.74v5.94" style="fill:none;stroke:#333;stroke-width:2.157;stroke-linecap:round;stroke-linejoin:round;stroke-miterlimit:10"/><path d="m234.54 680.64-3.6-10.62-3.42 10.62z" fill="#333" fill-rule="evenodd"/><path d="m255.06 648.48h-28.8l4.68-4.86h28.98z" fill="#c0c0c0" fill-rule="evenodd"/><path d="m255.06 648.48h-28.8l4.68-4.86h28.98z" style="fill:none;stroke:#000;stroke-width:.18;stroke-linecap:round;stroke-linejoin:round;stroke-miterlimit:10"/><path d="m259.92 643.62-4.86 4.86v23.88l4.86-4.68z" fill="#c0c0c0" fill-rule="evenodd"/><path d="m259.92 643.62-4.86 4.86v23.88l4.86-4.68z" style="fill:none;stroke:#000;stroke-width:.18;stroke-linecap:round;stroke-linejoin:round;stroke-miterlimit:10"/><path d="m226.26 648.48h28.8v23.88h-28.8z" fill="#fff"/><path d="m255.06 648.48h-28.8v23.88h28.8z" style="fill:none;stroke:#000;stroke-width:.18;stroke-linecap:round;stroke-linejoin:round;stroke-miterlimit:10"/><text font-family="Arial" font-size="6.4732" transform="scale(1 -1)" x="232.38" y="-658.5"><tspan x="232.38 236.69957 238.85709 242.45813 245.51801" y="-658.5">Press</tspan></text><path d="m230.94 639.66v5.94" style="fill:none;stroke:#333;stroke-width:2.157;stroke-linecap:round;stroke-linejoin:round;stroke-miterlimit:10"/><path d="m234.54 640.56-3.6-10.62-3.42 10.62z" fill="#333" fill-rule="evenodd"/><path d="m255.06 609.24h-28.8l4.68-4.86h28.98z" fill="#c0c0c0" fill-rule="evenodd"/><path d="m255.06 609.24h-28.8l4.68-4.86h28.98z" style="fill:none;stroke:#000;stroke-width:.18;stroke-linecap:round;stroke-linejoin:round;stroke-miterlimit:10"/><path d="m259.92 604.38-4.86 4.86v23.94l4.86-4.86z" fill="#c0c0c0" fill-rule="evenodd"/><path d="m259.92 604.38-4.86 4.86v23.94l4.86-4.86z" style="fill:none;stroke:#000;stroke-width:.18;stroke-linecap:round;stroke-linejoin:round;stroke-miterlimit:10"/><path d="m226.26 609.24h28.8v23.94h-28.8z" fill="#fff"/><path d="m255.06 609.24h-28.8v23.94h28.8z" style="fill:none;stroke:#000;stroke-width:.18;stroke-linecap:round;stroke-linejoin:round;stroke-miterlimit:10"/><text font-family="Arial" font-size="6.4732" transform="scale(1 -1)" x="233.64" y="-619.32001"><tspan x="233.64 238.31689 239.75717 241.19746 244.4373" y="-619.32001">Click</tspan></text><path d="m231.66 599.7v5.94" style="fill:none;stroke:#333;stroke-width:2.157;stroke-linecap:round;stroke-linejoin:round;stroke-miterlimit:10"/><path d="m235.08 600.42-3.42-10.38-3.6 10.38z" fill="#333" fill-rule="evenodd"/><path d="m255.6 569.16h-28.8l4.86-4.86h28.8z" fill="#c0c0c0" fill-rule="evenodd"/><path d="m255.6 569.16h-28.8l4.86-4.86h28.8z" style="fill:none;stroke:#000;stroke-width:.18;stroke-linecap:round;stroke-linejoin:round;stroke-miterlimit:10"/><path d="m260.46 564.3-4.86 4.86v23.88l4.86-4.62z" fill="#c0c0c0" fill-rule="evenodd"/><path d="m260.46 564.3-4.86 4.86v23.88l4.86-4.62z" style="fill:none;stroke:#000;stroke-width:.18;stroke-linecap:round;stroke-linejoin:round;stroke-miterlimit:10"/><path d="m226.8 569.16h28.8v23.88h-28.8z" fill="#fff"/><path d="m255.6 569.16h-28.8v23.88h28.8z" style="fill:none;stroke:#000;stroke-width:.18;stroke-linecap:round;stroke-linejoin:round;stroke-miterlimit:10"/><text font-family="Arial" font-size="6.4732" transform="scale(1 -1)" x="231.12" y="-583.02002"><tspan x="231.12 235.61888 239.21863 242.81837 246.41812 247.8558" y="-583.02002">Double</tspan><tspan x="234.35983 238.8587 240.29836 241.73799 244.97717" y="-575.45996">Click</tspan></text><path d="m231.66 560.34v5.94" style="fill:none;stroke:#333;stroke-width:2.157;stroke-linecap:round;stroke-linejoin:round;stroke-miterlimit:10"/><path d="m235.08 561.24-3.42-10.44-3.6 10.44z" fill="#333" fill-rule="evenodd"/><path d="m255.6 529.44h-28.8l4.86-4.68h28.8z" fill="#c0c0c0" fill-rule="evenodd"/><path d="m255.6 529.44h-28.8l4.86-4.68h28.8z" style="fill:none;stroke:#000;stroke-width:.18;stroke-linecap:round;stroke-linejoin:round;stroke-miterlimit:10"/><path d="m260.46 524.76-4.86 4.68v24.06l4.86-4.86z" fill="#c0c0c0" fill-rule="evenodd"/><path d="m260.46 524.76-4.86 4.68v24.06l4.86-4.86z" style="fill:none;stroke:#000;stroke-width:.18;stroke-linecap:round;stroke-linejoin:round;stroke-miterlimit:10"/><path d="m226.8 529.44h28.8v24.06h-28.8z" fill="#fff"/><path d="m255.6 529.44h-28.8v24.06h28.8z" style="fill:none;stroke:#000;stroke-width:.18;stroke-linecap:round;stroke-linejoin:round;stroke-miterlimit:10"/><text fill="#656565" font-family="Symbol" font-size="25.713301" transform="matrix(0 -1 -1 0 0 0)" x="-551.15997" y="-240.84"><tspan x="-551.15997 -544.68024 -538.2005" y="-240.84">...</tspan></text><path d="m232.38 524.58v-2.88l.18-.72v-.72l.18-.54.36-.72.18-.54.18-.72.36-.54.18-.54 1.08-1.62.54-.54.36-.54.54-.36.36-.54 2.16-1.44.72-.18.54-.36.72-.18.54-.18 1.44-.36.54-.18h.72l.9-.18m12.6 14.58v-2.88l-.18-.72-.18-.72-.18-.54-.18-.72-.18-.54-.18-.72-.36-.54-.18-.54-1.08-1.62-.54-.54-.36-.54-.54-.36-.36-.54-1.62-1.08-.72-.36-.54-.18-.54-.36-.72-.18-.54-.18-2.16-.54h-.54l-.72-.18m-12.78 14.58v3.6m25.38-3.6v153" style="fill:none;stroke:#333;stroke-width:2.157;stroke-linecap:round;stroke-linejoin:round;stroke-miterlimit:10"/><path d="m254.16 676.68 3.6 10.62 3.42-10.62z" fill="#333" fill-rule="evenodd"/><text font-family="Times New Roman" font-size="32.006901" transform="scale(-1 1)" x="-104.46" y="627.41998"><tspan x="-104.46" y="627.41998">}</tspan></text><text font-family="Times New Roman" font-size="7.552" transform="scale(1 -1)" x="67.019997" y="-622.02002"><tspan x="67.019997 72.418922 74.399818 77.458374 81.238152 84.479469 86.640854 89.882172" y="-622.02002">Dispatch</tspan><tspan x="69.719841 75.118767 78.898544 82.139862 85.919632 87.900528" y="-613.02026">Agents</tspan></text><path d="m106.8 703.86-11.16 31.08v-20.52h-13.5v-21.18h13.5v-20.7z" fill="#fff" fill-rule="evenodd"/><path d="m106.8 703.86-11.16 31.08v-20.52h-13.5v-21.18h13.5v-20.7z" style="fill:none;stroke:#000;stroke-width:.18;stroke-linecap:round;stroke-linejoin:round;stroke-miterlimit:10"/><text font-family="Arial" font-size="6.4732" transform="scale(1 -1)" x="86.279999" y="-705.65997"><tspan x="86.279999 90.600861 93.840698 97.259842 100.85894" y="-705.65997">Event</tspan><tspan x="84.839714 89.877808 93.296951 96.897987 100.49903" y="-698.09998">Queue</tspan></text><path d="m85.02 713.34v-19.2m4.68 19.2v-19.2m4.86 19.2v-19.2" style="fill:none;stroke:#c0c0c0;stroke-width:.36;stroke-linecap:round;stroke-linejoin:round;stroke-miterlimit:10"/><path d="m79.44 678.48 5.58 9.72 2.16-1.26-3.06 4.5-5.4.36 2.16-1.26-5.58-9.72z" fill="#fff" fill-rule="evenodd"/><path d="m79.44 678.48 5.58 9.72 2.16-1.26-3.06 4.5-5.4.36 2.16-1.26-5.58-9.72z" style="fill:none;stroke:#000;stroke-width:.18;stroke-linecap:round;stroke-linejoin:round;stroke-miterlimit:10"/><path d="m60.9 670.74-.18-1.26 3.42.72.18.72-2.16.9zm-.18-1.26-.9 1.44.18 1.26.9-1.44zm-.72 2.7 1.26 1.08.9-1.44-1.26-1.08zm4.32-1.26-.9 1.44-2.16.9.9-1.44z" fill="#fff" fill-rule="evenodd"/><path d="m60.9 670.74-.18-1.26 3.42.72.18.72-2.16.9zm-.18-1.26-.9 1.44.18 1.26.9-1.44zm-.72 2.7 1.26 1.08.9-1.44-1.26-1.08zm4.32-1.26-.9 1.44-2.16.9.9-1.44zm-.54.72h.18l.36-.18.18-.18h.72l.36.18.36.36v.18h.18v.36l-.18.18v.18l-.36.36h-.18l-.54.54v.36l-.18.18v.36l.18.18v.18l.36.36v.18h.18l.36.18h.18l.18.18.36.18h.18l.18.18v.18l.18.18v.18l.18.18v1.08l-.18.36-.18.18v.9l.36.36h.36v.18h.54l.36-.18h.36l.72-.36.18-.18h.18v-.18h.18v-.18" style="fill:none;stroke:#000;stroke-width:.18;stroke-linecap:round;stroke-linejoin:round;stroke-miterlimit:10"/><path d="m89.88 667.32-4.32-6.12-.18-.18v-.18h-.54l-.18.18h-.18l-17.64 12.6-.18.18v1.44l.18.18.18.18 4.68 3.96 17.82-9.72.18-.18v-.18l.18-.36v-.18l.18-.54v-.18l-.18-.54z" fill="#fff" fill-rule="evenodd"/><path d="m89.88 667.32-4.32-6.12-.18-.18v-.18h-.54l-.18.18h-.18l-17.64 12.6-.18.18v1.44l.18.18.18.18 4.68 3.96 17.82-9.72.18-.18v-.18l.18-.36v-.18l.18-.54v-.18l-.18-.54zm-23.04 7.56.54-.18 17.28-12.06.18-.18.36-.18h.18l.18.36 3.96 6.84m-1.08.54-.72-1.08-3.96 2.16.36.9-.72.36-.36-.72h-.18l-3.42 1.98.36.72-.54.36-.54-.54-2.34 1.44.36.72-.54.18-.54-.54-1.62.9.36.72-.54.18-.54-.36-1.98 1.08.72.54zm-1.62-1.44-1.08-1.8.54-.18-1.26-2.16-.9.54-.72-.9-8.46 5.76.72.9-1.8 1.08.72.72-.54.18 2.16 2.16zm-13.68 8.28-1.98 1.08-3.6-2.88 2.16-1.44zm2.34-1.44-1.98 1.08-1.26-1.26.54-.18-.54-.54-.54.18-.9-.72 1.98-1.26.72.72-.54.36.54.72.54-.36z" style="fill:none;stroke:#000;stroke-width:.18;stroke-linecap:round;stroke-linejoin:round;stroke-miterlimit:10"/></g></svg>